<?xml version="1.0" encoding="UTF-8" standalone="no"?>
<!DOCTYPE svg PUBLIC "-//W3C//DTD SVG 1.1//EN"
 "http://www.w3.org/Graphics/SVG/1.1/DTD/svg11.dtd">
<!-- Generated by graphviz version 5.0.0 (20220707.1540)
 -->
<!-- Title: RG Pages: 1 -->
<svg width="422pt" height="332pt"
 viewBox="0.00 0.00 422.00 332.00" xmlns="http://www.w3.org/2000/svg" xmlns:xlink="http://www.w3.org/1999/xlink">
<g id="graph0" class="graph" transform="scale(1 1) rotate(0) translate(4 328)">
<title>RG</title>
<polygon fill="white" stroke="transparent" points="-4,4 -4,-328 418,-328 418,4 -4,4"/>
<!-- startState -->
<g id="node1" class="node">
<title>startState</title>
<ellipse fill="none" stroke="black" cx="207" cy="-306" rx="44.39" ry="18"/>
<text text-anchor="middle" x="207" y="-302.3" font-family="Times New Roman,serif" font-size="14.00">startState</text>
</g>
<!-- rs1 -->
<g id="node2" class="node">
<title>rs1</title>
<ellipse fill="none" stroke="black" cx="99" cy="-234" rx="27" ry="18"/>
<text text-anchor="middle" x="99" y="-230.3" font-family="Times New Roman,serif" font-size="14.00">rs1</text>
</g>
<!-- startState&#45;&gt;rs1 -->
<g id="edge1" class="edge">
<title>startState&#45;&gt;rs1</title>
<path fill="none" stroke="black" d="M184.36,-290.33C167.5,-279.4 144.41,-264.43 126.49,-252.82"/>
<polygon fill="black" stroke="black" points="127.95,-249.6 117.66,-247.09 124.15,-255.47 127.95,-249.6"/>
</g>
<!-- rs2 -->
<g id="node3" class="node">
<title>rs2</title>
<ellipse fill="none" stroke="black" cx="243" cy="-234" rx="27" ry="18"/>
<text text-anchor="middle" x="243" y="-230.3" font-family="Times New Roman,serif" font-size="14.00">rs2</text>
</g>
<!-- startState&#45;&gt;rs2 -->
<g id="edge2" class="edge">
<title>startState&#45;&gt;rs2</title>
<path fill="none" stroke="black" d="M215.71,-288.05C219.98,-279.77 225.2,-269.62 229.92,-260.42"/>
<polygon fill="black" stroke="black" points="233.15,-261.8 234.61,-251.31 226.93,-258.6 233.15,-261.8"/>
</g>
<!-- rs3 -->
<g id="node4" class="node">
<title>rs3</title>
<ellipse fill="none" stroke="black" cx="315" cy="-234" rx="27" ry="18"/>
<text text-anchor="middle" x="315" y="-230.3" font-family="Times New Roman,serif" font-size="14.00">rs3</text>
</g>
<!-- startState&#45;&gt;rs3 -->
<g id="edge3" class="edge">
<title>startState&#45;&gt;rs3</title>
<path fill="none" stroke="black" d="M229.64,-290.33C246.5,-279.4 269.59,-264.43 287.51,-252.82"/>
<polygon fill="black" stroke="black" points="289.85,-255.47 296.34,-247.09 286.05,-249.6 289.85,-255.47"/>
</g>
<!-- rs4 -->
<g id="node5" class="node">
<title>rs4</title>
<ellipse fill="none" stroke="black" cx="171" cy="-234" rx="27" ry="18"/>
<text text-anchor="middle" x="171" y="-230.3" font-family="Times New Roman,serif" font-size="14.00">rs4</text>
</g>
<!-- startState&#45;&gt;rs4 -->
<g id="edge4" class="edge">
<title>startState&#45;&gt;rs4</title>
<path fill="none" stroke="black" d="M198.29,-288.05C194.02,-279.77 188.8,-269.62 184.08,-260.42"/>
<polygon fill="black" stroke="black" points="187.07,-258.6 179.39,-251.31 180.85,-261.8 187.07,-258.6"/>
</g>
<!-- rs5 -->
<g id="node6" class="node">
<title>rs5</title>
<ellipse fill="none" stroke="black" cx="99" cy="-162" rx="27" ry="18"/>
<text text-anchor="middle" x="99" y="-158.3" font-family="Times New Roman,serif" font-size="14.00">rs5</text>
</g>
<!-- rs1&#45;&gt;rs5 -->
<g id="edge5" class="edge">
<title>rs1&#45;&gt;rs5</title>
<path fill="none" stroke="black" d="M99,-215.7C99,-207.98 99,-198.71 99,-190.11"/>
<polygon fill="black" stroke="black" points="102.5,-190.1 99,-180.1 95.5,-190.1 102.5,-190.1"/>
</g>
<!-- rs6 -->
<g id="node7" class="node">
<title>rs6</title>
<ellipse fill="none" stroke="black" cx="27" cy="-162" rx="27" ry="18"/>
<text text-anchor="middle" x="27" y="-158.3" font-family="Times New Roman,serif" font-size="14.00">rs6</text>
</g>
<!-- rs1&#45;&gt;rs6 -->
<g id="edge6" class="edge">
<title>rs1&#45;&gt;rs6</title>
<path fill="none" stroke="black" d="M84.43,-218.83C74.25,-208.94 60.48,-195.55 48.97,-184.36"/>
<polygon fill="black" stroke="black" points="51.41,-181.85 41.8,-177.38 46.53,-186.87 51.41,-181.85"/>
</g>
<!-- rs7 -->
<g id="node8" class="node">
<title>rs7</title>
<ellipse fill="none" stroke="black" cx="315" cy="-162" rx="27" ry="18"/>
<text text-anchor="middle" x="315" y="-158.3" font-family="Times New Roman,serif" font-size="14.00">rs7</text>
</g>
<!-- rs2&#45;&gt;rs7 -->
<g id="edge7" class="edge">
<title>rs2&#45;&gt;rs7</title>
<path fill="none" stroke="black" d="M257.57,-218.83C267.75,-208.94 281.52,-195.55 293.03,-184.36"/>
<polygon fill="black" stroke="black" points="295.47,-186.87 300.2,-177.38 290.59,-181.85 295.47,-186.87"/>
</g>
<!-- rs8 -->
<g id="node9" class="node">
<title>rs8</title>
<ellipse fill="none" stroke="black" cx="243" cy="-162" rx="27" ry="18"/>
<text text-anchor="middle" x="243" y="-158.3" font-family="Times New Roman,serif" font-size="14.00">rs8</text>
</g>
<!-- rs2&#45;&gt;rs8 -->
<g id="edge8" class="edge">
<title>rs2&#45;&gt;rs8</title>
<path fill="none" stroke="black" d="M243,-215.7C243,-207.98 243,-198.71 243,-190.11"/>
<polygon fill="black" stroke="black" points="246.5,-190.1 243,-180.1 239.5,-190.1 246.5,-190.1"/>
</g>
<!-- rs3&#45;&gt;rs7 -->
<g id="edge9" class="edge">
<title>rs3&#45;&gt;rs7</title>
<path fill="none" stroke="black" d="M315,-215.7C315,-207.98 315,-198.71 315,-190.11"/>
<polygon fill="black" stroke="black" points="318.5,-190.1 315,-180.1 311.5,-190.1 318.5,-190.1"/>
</g>
<!-- rs9 -->
<g id="node10" class="node">
<title>rs9</title>
<ellipse fill="none" stroke="black" cx="387" cy="-162" rx="27" ry="18"/>
<text text-anchor="middle" x="387" y="-158.3" font-family="Times New Roman,serif" font-size="14.00">rs9</text>
</g>
<!-- rs3&#45;&gt;rs9 -->
<g id="edge10" class="edge">
<title>rs3&#45;&gt;rs9</title>
<path fill="none" stroke="black" d="M329.57,-218.83C339.75,-208.94 353.52,-195.55 365.03,-184.36"/>
<polygon fill="black" stroke="black" points="367.47,-186.87 372.2,-177.38 362.59,-181.85 367.47,-186.87"/>
</g>
<!-- rs4&#45;&gt;rs5 -->
<g id="edge11" class="edge">
<title>rs4&#45;&gt;rs5</title>
<path fill="none" stroke="black" d="M156.43,-218.83C146.25,-208.94 132.48,-195.55 120.97,-184.36"/>
<polygon fill="black" stroke="black" points="123.41,-181.85 113.8,-177.38 118.53,-186.87 123.41,-181.85"/>
</g>
<!-- rs10 -->
<g id="node11" class="node">
<title>rs10</title>
<ellipse fill="none" stroke="black" cx="171" cy="-162" rx="27" ry="18"/>
<text text-anchor="middle" x="171" y="-158.3" font-family="Times New Roman,serif" font-size="14.00">rs10</text>
</g>
<!-- rs4&#45;&gt;rs10 -->
<g id="edge12" class="edge">
<title>rs4&#45;&gt;rs10</title>
<path fill="none" stroke="black" d="M171,-215.7C171,-207.98 171,-198.71 171,-190.11"/>
<polygon fill="black" stroke="black" points="174.5,-190.1 171,-180.1 167.5,-190.1 174.5,-190.1"/>
</g>
<!-- rs11 -->
<g id="node12" class="node">
<title>rs11</title>
<ellipse fill="none" stroke="black" cx="99" cy="-90" rx="27" ry="18"/>
<text text-anchor="middle" x="99" y="-86.3" font-family="Times New Roman,serif" font-size="14.00">rs11</text>
</g>
<!-- rs5&#45;&gt;rs11 -->
<g id="edge13" class="edge">
<title>rs5&#45;&gt;rs11</title>
<path fill="none" stroke="black" d="M99,-143.7C99,-135.98 99,-126.71 99,-118.11"/>
<polygon fill="black" stroke="black" points="102.5,-118.1 99,-108.1 95.5,-118.1 102.5,-118.1"/>
</g>
<!-- rs12 -->
<g id="node13" class="node">
<title>rs12</title>
<ellipse fill="none" stroke="black" cx="171" cy="-90" rx="27" ry="18"/>
<text text-anchor="middle" x="171" y="-86.3" font-family="Times New Roman,serif" font-size="14.00">rs12</text>
</g>
<!-- rs5&#45;&gt;rs12 -->
<g id="edge14" class="edge">
<title>rs5&#45;&gt;rs12</title>
<path fill="none" stroke="black" d="M113.57,-146.83C123.75,-136.94 137.52,-123.55 149.03,-112.36"/>
<polygon fill="black" stroke="black" points="151.47,-114.87 156.2,-105.38 146.59,-109.85 151.47,-114.87"/>
</g>
<!-- rs6&#45;&gt;rs11 -->
<g id="edge15" class="edge">
<title>rs6&#45;&gt;rs11</title>
<path fill="none" stroke="black" d="M41.57,-146.83C51.75,-136.94 65.52,-123.55 77.03,-112.36"/>
<polygon fill="black" stroke="black" points="79.47,-114.87 84.2,-105.38 74.59,-109.85 79.47,-114.87"/>
</g>
<!-- rs13 -->
<g id="node14" class="node">
<title>rs13</title>
<ellipse fill="none" stroke="black" cx="243" cy="-90" rx="27" ry="18"/>
<text text-anchor="middle" x="243" y="-86.3" font-family="Times New Roman,serif" font-size="14.00">rs13</text>
</g>
<!-- rs7&#45;&gt;rs13 -->
<g id="edge16" class="edge">
<title>rs7&#45;&gt;rs13</title>
<path fill="none" stroke="black" d="M300.43,-146.83C290.25,-136.94 276.48,-123.55 264.97,-112.36"/>
<polygon fill="black" stroke="black" points="267.41,-109.85 257.8,-105.38 262.53,-114.87 267.41,-109.85"/>
</g>
<!-- rs14 -->
<g id="node15" class="node">
<title>rs14</title>
<ellipse fill="none" stroke="black" cx="315" cy="-90" rx="27" ry="18"/>
<text text-anchor="middle" x="315" y="-86.3" font-family="Times New Roman,serif" font-size="14.00">rs14</text>
</g>
<!-- rs7&#45;&gt;rs14 -->
<g id="edge17" class="edge">
<title>rs7&#45;&gt;rs14</title>
<path fill="none" stroke="black" d="M315,-143.7C315,-135.98 315,-126.71 315,-118.11"/>
<polygon fill="black" stroke="black" points="318.5,-118.1 315,-108.1 311.5,-118.1 318.5,-118.1"/>
</g>
<!-- rs8&#45;&gt;rs13 -->
<g id="edge18" class="edge">
<title>rs8&#45;&gt;rs13</title>
<path fill="none" stroke="black" d="M243,-143.7C243,-135.98 243,-126.71 243,-118.11"/>
<polygon fill="black" stroke="black" points="246.5,-118.1 243,-108.1 239.5,-118.1 246.5,-118.1"/>
</g>
<!-- rs9&#45;&gt;rs14 -->
<g id="edge19" class="edge">
<title>rs9&#45;&gt;rs14</title>
<path fill="none" stroke="black" d="M372.43,-146.83C362.25,-136.94 348.48,-123.55 336.97,-112.36"/>
<polygon fill="black" stroke="black" points="339.41,-109.85 329.8,-105.38 334.53,-114.87 339.41,-109.85"/>
</g>
<!-- rs10&#45;&gt;rs12 -->
<g id="edge20" class="edge">
<title>rs10&#45;&gt;rs12</title>
<path fill="none" stroke="black" d="M171,-143.7C171,-135.98 171,-126.71 171,-118.11"/>
<polygon fill="black" stroke="black" points="174.5,-118.1 171,-108.1 167.5,-118.1 174.5,-118.1"/>
</g>
<!-- rs15 -->
<g id="node16" class="node">
<title>rs15</title>
<ellipse fill="none" stroke="black" cx="207" cy="-18" rx="27" ry="18"/>
<text text-anchor="middle" x="207" y="-14.3" font-family="Times New Roman,serif" font-size="14.00">rs15</text>
</g>
<!-- rs11&#45;&gt;rs15 -->
<g id="edge21" class="edge">
<title>rs11&#45;&gt;rs15</title>
<path fill="none" stroke="black" d="M117.81,-76.81C135,-65.67 160.62,-49.06 179.99,-36.5"/>
<polygon fill="black" stroke="black" points="181.92,-39.43 188.4,-31.05 178.11,-33.56 181.92,-39.43"/>
</g>
<!-- rs12&#45;&gt;rs15 -->
<g id="edge22" class="edge">
<title>rs12&#45;&gt;rs15</title>
<path fill="none" stroke="black" d="M179.35,-72.76C183.71,-64.28 189.15,-53.71 194.04,-44.2"/>
<polygon fill="black" stroke="black" points="197.23,-45.64 198.7,-35.15 191.01,-42.44 197.23,-45.64"/>
</g>
<!-- rs13&#45;&gt;rs15 -->
<g id="edge23" class="edge">
<title>rs13&#45;&gt;rs15</title>
<path fill="none" stroke="black" d="M234.65,-72.76C230.29,-64.28 224.85,-53.71 219.96,-44.2"/>
<polygon fill="black" stroke="black" points="222.99,-42.44 215.3,-35.15 216.77,-45.64 222.99,-42.44"/>
</g>
<!-- rs14&#45;&gt;rs15 -->
<g id="edge24" class="edge">
<title>rs14&#45;&gt;rs15</title>
<path fill="none" stroke="black" d="M296.19,-76.81C279,-65.67 253.38,-49.06 234.01,-36.5"/>
<polygon fill="black" stroke="black" points="235.89,-33.56 225.6,-31.05 232.08,-39.43 235.89,-33.56"/>
</g>
</g>
</svg>
