<?xml version="1.0" encoding="UTF-8" standalone="no"?>
<!DOCTYPE svg PUBLIC "-//W3C//DTD SVG 1.1//EN"
 "http://www.w3.org/Graphics/SVG/1.1/DTD/svg11.dtd">
<!-- Generated by graphviz version 5.0.0 (20220707.1540)
 -->
<!-- Title: G Pages: 1 -->
<svg width="328pt" height="392pt"
 viewBox="0.00 0.00 328.44 392.00" xmlns="http://www.w3.org/2000/svg" xmlns:xlink="http://www.w3.org/1999/xlink">
<g id="graph0" class="graph" transform="scale(1 1) rotate(0) translate(4 388)">
<title>G</title>
<polygon fill="white" stroke="transparent" points="-4,4 -4,-388 324.44,-388 324.44,4 -4,4"/>
<!-- vendor&#45;available -->
<g id="node1" class="node">
<title>vendor&#45;available</title>
<ellipse fill="none" stroke="black" cx="48.75" cy="-366" rx="48.99" ry="18"/>
<text text-anchor="middle" x="48.75" y="-362.3" font-family="Times New Roman,serif" font-size="14.00">(V1) (V2) </text>
</g>
<!-- item&#45;take&#45;home -->
<g id="node7" class="node">
<title>item&#45;take&#45;home</title>
<polygon fill="none" stroke="black" points="183.75,-297 81.75,-297 81.75,-261 183.75,-261 183.75,-297"/>
<text text-anchor="middle" x="132.75" y="-275.3" font-family="Times New Roman,serif" font-size="14.00">item&#45;take&#45;home</text>
</g>
<!-- vendor&#45;available&#45;&gt;item&#45;take&#45;home -->
<g id="edge1" class="edge">
<title>vendor&#45;available&#45;&gt;item&#45;take&#45;home</title>
<path fill="none" stroke="black" d="M64.94,-348.61C77.25,-336.16 94.39,-318.81 108.35,-304.68"/>
<polygon fill="black" stroke="black" points="111.19,-306.79 115.73,-297.21 106.22,-301.87 111.19,-306.79"/>
<text text-anchor="middle" x="107.25" y="-318.8" font-family="Times New Roman,serif" font-size="14.00">{y}</text>
</g>
<!-- client&#45;with&#45;item -->
<g id="node2" class="node">
<title>client&#45;with&#45;item</title>
<ellipse fill="none" stroke="black" cx="217.75" cy="-366" rx="102.88" ry="18"/>
<text text-anchor="middle" x="217.75" y="-362.3" font-family="Times New Roman,serif" font-size="14.00">(Alice,shirt) (Bob,shoes) </text>
</g>
<!-- client&#45;with&#45;item&#45;&gt;item&#45;take&#45;home -->
<g id="edge2" class="edge">
<title>client&#45;with&#45;item&#45;&gt;item&#45;take&#45;home</title>
<path fill="none" stroke="black" d="M200.95,-348.21C188.46,-335.72 171.22,-318.48 157.2,-304.46"/>
<polygon fill="black" stroke="black" points="159.34,-301.65 149.79,-297.05 154.39,-306.6 159.34,-301.65"/>
<text text-anchor="middle" x="195.25" y="-318.8" font-family="Times New Roman,serif" font-size="14.00">{x,z}</text>
</g>
<!-- vendor&#45;with&#45;item -->
<g id="node3" class="node">
<title>vendor&#45;with&#45;item</title>
<ellipse fill="none" stroke="black" cx="96.75" cy="-192" rx="27" ry="18"/>
</g>
<!-- vendor&#45;packs&#45;item -->
<g id="node8" class="node">
<title>vendor&#45;packs&#45;item</title>
<polygon fill="none" stroke="black" points="124.25,-123 3.25,-123 3.25,-87 124.25,-87 124.25,-123"/>
<text text-anchor="middle" x="63.75" y="-101.3" font-family="Times New Roman,serif" font-size="14.00">vendor&#45;packs&#45;item</text>
</g>
<!-- vendor&#45;with&#45;item&#45;&gt;vendor&#45;packs&#45;item -->
<g id="edge5" class="edge">
<title>vendor&#45;with&#45;item&#45;&gt;vendor&#45;packs&#45;item</title>
<path fill="none" stroke="black" d="M90.23,-174.21C85.6,-162.29 79.3,-146.06 74,-132.42"/>
<polygon fill="black" stroke="black" points="77.25,-131.1 70.36,-123.05 70.72,-133.64 77.25,-131.1"/>
<text text-anchor="middle" x="98.25" y="-144.8" font-family="Times New Roman,serif" font-size="14.00">{y,z}</text>
</g>
<!-- client&#45;with&#45;money -->
<g id="node4" class="node">
<title>client&#45;with&#45;money</title>
<ellipse fill="none" stroke="black" cx="171.75" cy="-192" rx="27" ry="18"/>
</g>
<!-- client&#45;pays -->
<g id="node9" class="node">
<title>client&#45;pays</title>
<polygon fill="none" stroke="black" points="219.25,-123 142.25,-123 142.25,-87 219.25,-87 219.25,-123"/>
<text text-anchor="middle" x="180.75" y="-101.3" font-family="Times New Roman,serif" font-size="14.00">client&#45;pays</text>
</g>
<!-- client&#45;with&#45;money&#45;&gt;client&#45;pays -->
<g id="edge7" class="edge">
<title>client&#45;with&#45;money&#45;&gt;client&#45;pays</title>
<path fill="none" stroke="black" d="M173.57,-173.8C174.8,-162.16 176.45,-146.55 177.86,-133.24"/>
<polygon fill="black" stroke="black" points="181.35,-133.49 178.93,-123.18 174.39,-132.75 181.35,-133.49"/>
<text text-anchor="middle" x="194.25" y="-144.8" font-family="Times New Roman,serif" font-size="14.00">{x,m}</text>
</g>
<!-- vendor&#45;packed&#45;item -->
<g id="node5" class="node">
<title>vendor&#45;packed&#45;item</title>
<ellipse fill="none" stroke="black" cx="63.75" cy="-18" rx="27" ry="18"/>
</g>
<!-- client&#45;with&#45;voucher -->
<g id="node6" class="node">
<title>client&#45;with&#45;voucher</title>
<ellipse fill="none" stroke="black" cx="180.75" cy="-18" rx="27" ry="18"/>
</g>
<!-- item&#45;take&#45;home&#45;&gt;vendor&#45;with&#45;item -->
<g id="edge3" class="edge">
<title>item&#45;take&#45;home&#45;&gt;vendor&#45;with&#45;item</title>
<path fill="none" stroke="black" d="M122.04,-260.93C118.79,-255.34 115.39,-249.02 112.75,-243 109.48,-235.58 106.55,-227.27 104.12,-219.59"/>
<polygon fill="black" stroke="black" points="107.46,-218.55 101.22,-209.99 100.76,-220.58 107.46,-218.55"/>
<text text-anchor="middle" x="128.25" y="-231.8" font-family="Times New Roman,serif" font-size="14.00">{y,z}</text>
</g>
<!-- item&#45;take&#45;home&#45;&gt;client&#45;with&#45;money -->
<g id="edge4" class="edge">
<title>item&#45;take&#45;home&#45;&gt;client&#45;with&#45;money</title>
<path fill="none" stroke="black" d="M140.64,-260.8C146.19,-248.7 153.72,-232.29 159.98,-218.65"/>
<polygon fill="black" stroke="black" points="163.27,-219.86 164.26,-209.31 156.91,-216.94 163.27,-219.86"/>
<text text-anchor="middle" x="172.25" y="-231.8" font-family="Times New Roman,serif" font-size="14.00">{x,m}</text>
</g>
<!-- vendor&#45;packs&#45;item&#45;&gt;vendor&#45;packed&#45;item -->
<g id="edge6" class="edge">
<title>vendor&#45;packs&#45;item&#45;&gt;vendor&#45;packed&#45;item</title>
<path fill="none" stroke="black" d="M63.75,-86.8C63.75,-75.16 63.75,-59.55 63.75,-46.24"/>
<polygon fill="black" stroke="black" points="67.25,-46.18 63.75,-36.18 60.25,-46.18 67.25,-46.18"/>
<text text-anchor="middle" x="82.75" y="-57.8" font-family="Times New Roman,serif" font-size="14.00">{y,pz}</text>
</g>
<!-- client&#45;pays&#45;&gt;client&#45;with&#45;voucher -->
<g id="edge8" class="edge">
<title>client&#45;pays&#45;&gt;client&#45;with&#45;voucher</title>
<path fill="none" stroke="black" d="M180.75,-86.8C180.75,-75.16 180.75,-59.55 180.75,-46.24"/>
<polygon fill="black" stroke="black" points="184.25,-46.18 180.75,-36.18 177.25,-46.18 184.25,-46.18"/>
<text text-anchor="middle" x="191.25" y="-57.8" font-family="Times New Roman,serif" font-size="14.00">{x}</text>
</g>
</g>
</svg>
