<?xml version="1.0" encoding="UTF-8" standalone="no"?>
<!DOCTYPE svg PUBLIC "-//W3C//DTD SVG 1.1//EN"
 "http://www.w3.org/Graphics/SVG/1.1/DTD/svg11.dtd">
<!-- Generated by graphviz version 5.0.0 (20220707.1540)
 -->
<!-- Title: RG Pages: 1 -->
<svg width="854pt" height="476pt"
 viewBox="0.00 0.00 854.00 476.00" xmlns="http://www.w3.org/2000/svg" xmlns:xlink="http://www.w3.org/1999/xlink">
<g id="graph0" class="graph" transform="scale(1 1) rotate(0) translate(4 472)">
<title>RG</title>
<polygon fill="white" stroke="transparent" points="-4,4 -4,-472 850,-472 850,4 -4,4"/>
<!-- startState -->
<g id="node1" class="node">
<title>startState</title>
<g id="a_node1"><a xlink:href="./rs0.svg" xlink:title="startState">
<ellipse fill="none" stroke="black" cx="441" cy="-450" rx="44.39" ry="18"/>
<text text-anchor="middle" x="441" y="-446.3" font-family="Times New Roman,serif" font-size="14.00">startState</text>
</a>
</g>
</g>
<!-- rs1 -->
<g id="node2" class="node">
<title>rs1</title>
<g id="a_node2"><a xlink:href="./rs0.svg" xlink:title="rs1">
<ellipse fill="none" stroke="black" cx="225" cy="-378" rx="27" ry="18"/>
<text text-anchor="middle" x="225" y="-374.3" font-family="Times New Roman,serif" font-size="14.00">rs1</text>
</a>
</g>
</g>
<!-- startState&#45;&gt;rs1 -->
<g id="edge1" class="edge">
<title>startState&#45;&gt;rs1</title>
<path fill="none" stroke="black" d="M407.25,-438.06C366.67,-424.91 298.98,-402.98 258.51,-389.86"/>
<polygon fill="black" stroke="black" points="259.43,-386.48 248.84,-386.73 257.27,-393.14 259.43,-386.48"/>
</g>
<!-- rs2 -->
<g id="node3" class="node">
<title>rs2</title>
<g id="a_node3"><a xlink:href="./rs0.svg" xlink:title="rs2">
<ellipse fill="none" stroke="black" cx="513" cy="-378" rx="27" ry="18"/>
<text text-anchor="middle" x="513" y="-374.3" font-family="Times New Roman,serif" font-size="14.00">rs2</text>
</a>
</g>
</g>
<!-- startState&#45;&gt;rs2 -->
<g id="edge2" class="edge">
<title>startState&#45;&gt;rs2</title>
<path fill="none" stroke="black" d="M457.34,-433.12C467.22,-423.51 479.95,-411.13 490.75,-400.63"/>
<polygon fill="black" stroke="black" points="493.47,-402.87 498.2,-393.39 488.59,-397.85 493.47,-402.87"/>
</g>
<!-- rs3 -->
<g id="node4" class="node">
<title>rs3</title>
<g id="a_node4"><a xlink:href="./rs0.svg" xlink:title="rs3">
<ellipse fill="none" stroke="black" cx="621" cy="-378" rx="27" ry="18"/>
<text text-anchor="middle" x="621" y="-374.3" font-family="Times New Roman,serif" font-size="14.00">rs3</text>
</a>
</g>
</g>
<!-- startState&#45;&gt;rs3 -->
<g id="edge3" class="edge">
<title>startState&#45;&gt;rs3</title>
<path fill="none" stroke="black" d="M471.94,-436.97C504.46,-424.32 555.4,-404.51 588.5,-391.64"/>
<polygon fill="black" stroke="black" points="590.1,-394.77 598.16,-387.88 587.57,-388.25 590.1,-394.77"/>
</g>
<!-- rs4 -->
<g id="node5" class="node">
<title>rs4</title>
<g id="a_node5"><a xlink:href="./rs0.svg" xlink:title="rs4">
<ellipse fill="none" stroke="black" cx="333" cy="-378" rx="27" ry="18"/>
<text text-anchor="middle" x="333" y="-374.3" font-family="Times New Roman,serif" font-size="14.00">rs4</text>
</a>
</g>
</g>
<!-- startState&#45;&gt;rs4 -->
<g id="edge4" class="edge">
<title>startState&#45;&gt;rs4</title>
<path fill="none" stroke="black" d="M418.36,-434.33C401.5,-423.4 378.41,-408.43 360.49,-396.82"/>
<polygon fill="black" stroke="black" points="361.95,-393.6 351.66,-391.09 358.15,-399.47 361.95,-393.6"/>
</g>
<!-- rs5 -->
<g id="node6" class="node">
<title>rs5</title>
<g id="a_node6"><a xlink:href="./rs0.svg" xlink:title="rs5">
<ellipse fill="none" stroke="black" cx="243" cy="-306" rx="27" ry="18"/>
<text text-anchor="middle" x="243" y="-302.3" font-family="Times New Roman,serif" font-size="14.00">rs5</text>
</a>
</g>
</g>
<!-- rs1&#45;&gt;rs5 -->
<g id="edge5" class="edge">
<title>rs1&#45;&gt;rs5</title>
<path fill="none" stroke="black" d="M229.36,-360.05C231.39,-352.14 233.86,-342.54 236.14,-333.69"/>
<polygon fill="black" stroke="black" points="239.58,-334.35 238.68,-323.79 232.8,-332.6 239.58,-334.35"/>
</g>
<!-- rs6 -->
<g id="node7" class="node">
<title>rs6</title>
<g id="a_node7"><a xlink:href="./rs0.svg" xlink:title="rs6">
<ellipse fill="none" stroke="black" cx="99" cy="-306" rx="27" ry="18"/>
<text text-anchor="middle" x="99" y="-302.3" font-family="Times New Roman,serif" font-size="14.00">rs6</text>
</a>
</g>
</g>
<!-- rs1&#45;&gt;rs6 -->
<g id="edge6" class="edge">
<title>rs1&#45;&gt;rs6</title>
<path fill="none" stroke="black" d="M204.76,-365.75C184,-354.22 151.52,-336.18 128.02,-323.12"/>
<polygon fill="black" stroke="black" points="129.64,-320.02 119.19,-318.22 126.24,-326.13 129.64,-320.02"/>
</g>
<!-- rs7 -->
<g id="node8" class="node">
<title>rs7</title>
<g id="a_node8"><a xlink:href="./rs0.svg" xlink:title="rs7">
<ellipse fill="none" stroke="black" cx="171" cy="-306" rx="27" ry="18"/>
<text text-anchor="middle" x="171" y="-302.3" font-family="Times New Roman,serif" font-size="14.00">rs7</text>
</a>
</g>
</g>
<!-- rs1&#45;&gt;rs7 -->
<g id="edge7" class="edge">
<title>rs1&#45;&gt;rs7</title>
<path fill="none" stroke="black" d="M213.02,-361.46C206.02,-352.4 197.06,-340.79 189.21,-330.61"/>
<polygon fill="black" stroke="black" points="191.83,-328.27 182.95,-322.49 186.29,-332.55 191.83,-328.27"/>
</g>
<!-- rs8 -->
<g id="node9" class="node">
<title>rs8</title>
<g id="a_node9"><a xlink:href="./rs0.svg" xlink:title="rs8">
<ellipse fill="none" stroke="black" cx="603" cy="-306" rx="27" ry="18"/>
<text text-anchor="middle" x="603" y="-302.3" font-family="Times New Roman,serif" font-size="14.00">rs8</text>
</a>
</g>
</g>
<!-- rs2&#45;&gt;rs8 -->
<g id="edge8" class="edge">
<title>rs2&#45;&gt;rs8</title>
<path fill="none" stroke="black" d="M529.93,-363.83C543.5,-353.27 562.76,-338.3 578.09,-326.37"/>
<polygon fill="black" stroke="black" points="580.4,-329.01 586.15,-320.11 576.11,-323.48 580.4,-329.01"/>
</g>
<!-- rs9 -->
<g id="node10" class="node">
<title>rs9</title>
<g id="a_node10"><a xlink:href="./rs0.svg" xlink:title="rs9">
<ellipse fill="none" stroke="black" cx="459" cy="-306" rx="27" ry="18"/>
<text text-anchor="middle" x="459" y="-302.3" font-family="Times New Roman,serif" font-size="14.00">rs9</text>
</a>
</g>
</g>
<!-- rs2&#45;&gt;rs9 -->
<g id="edge9" class="edge">
<title>rs2&#45;&gt;rs9</title>
<path fill="none" stroke="black" d="M501.02,-361.46C494.02,-352.4 485.06,-340.79 477.21,-330.61"/>
<polygon fill="black" stroke="black" points="479.83,-328.27 470.95,-322.49 474.29,-332.55 479.83,-328.27"/>
</g>
<!-- rs10 -->
<g id="node11" class="node">
<title>rs10</title>
<g id="a_node11"><a xlink:href="./rs0.svg" xlink:title="rs10">
<ellipse fill="none" stroke="black" cx="531" cy="-306" rx="27" ry="18"/>
<text text-anchor="middle" x="531" y="-302.3" font-family="Times New Roman,serif" font-size="14.00">rs10</text>
</a>
</g>
</g>
<!-- rs2&#45;&gt;rs10 -->
<g id="edge10" class="edge">
<title>rs2&#45;&gt;rs10</title>
<path fill="none" stroke="black" d="M517.36,-360.05C519.39,-352.14 521.86,-342.54 524.14,-333.69"/>
<polygon fill="black" stroke="black" points="527.58,-334.35 526.68,-323.79 520.8,-332.6 527.58,-334.35"/>
</g>
<!-- rs3&#45;&gt;rs8 -->
<g id="edge11" class="edge">
<title>rs3&#45;&gt;rs8</title>
<path fill="none" stroke="black" d="M616.64,-360.05C614.61,-352.14 612.14,-342.54 609.86,-333.69"/>
<polygon fill="black" stroke="black" points="613.2,-332.6 607.32,-323.79 606.42,-334.35 613.2,-332.6"/>
</g>
<!-- rs11 -->
<g id="node12" class="node">
<title>rs11</title>
<g id="a_node12"><a xlink:href="./rs0.svg" xlink:title="rs11">
<ellipse fill="none" stroke="black" cx="675" cy="-306" rx="27" ry="18"/>
<text text-anchor="middle" x="675" y="-302.3" font-family="Times New Roman,serif" font-size="14.00">rs11</text>
</a>
</g>
</g>
<!-- rs3&#45;&gt;rs11 -->
<g id="edge12" class="edge">
<title>rs3&#45;&gt;rs11</title>
<path fill="none" stroke="black" d="M632.98,-361.46C639.98,-352.4 648.94,-340.79 656.79,-330.61"/>
<polygon fill="black" stroke="black" points="659.71,-332.55 663.05,-322.49 654.17,-328.27 659.71,-332.55"/>
</g>
<!-- rs12 -->
<g id="node13" class="node">
<title>rs12</title>
<g id="a_node13"><a xlink:href="./rs0.svg" xlink:title="rs12">
<ellipse fill="none" stroke="black" cx="747" cy="-306" rx="27" ry="18"/>
<text text-anchor="middle" x="747" y="-302.3" font-family="Times New Roman,serif" font-size="14.00">rs12</text>
</a>
</g>
</g>
<!-- rs3&#45;&gt;rs12 -->
<g id="edge13" class="edge">
<title>rs3&#45;&gt;rs12</title>
<path fill="none" stroke="black" d="M641.24,-365.75C662,-354.22 694.48,-336.18 717.98,-323.12"/>
<polygon fill="black" stroke="black" points="719.76,-326.13 726.81,-318.22 716.36,-320.02 719.76,-326.13"/>
</g>
<!-- rs4&#45;&gt;rs5 -->
<g id="edge14" class="edge">
<title>rs4&#45;&gt;rs5</title>
<path fill="none" stroke="black" d="M316.07,-363.83C302.5,-353.27 283.24,-338.3 267.91,-326.37"/>
<polygon fill="black" stroke="black" points="269.89,-323.48 259.85,-320.11 265.6,-329.01 269.89,-323.48"/>
</g>
<!-- rs13 -->
<g id="node14" class="node">
<title>rs13</title>
<g id="a_node14"><a xlink:href="./rs0.svg" xlink:title="rs13">
<ellipse fill="none" stroke="black" cx="315" cy="-306" rx="27" ry="18"/>
<text text-anchor="middle" x="315" y="-302.3" font-family="Times New Roman,serif" font-size="14.00">rs13</text>
</a>
</g>
</g>
<!-- rs4&#45;&gt;rs13 -->
<g id="edge15" class="edge">
<title>rs4&#45;&gt;rs13</title>
<path fill="none" stroke="black" d="M328.64,-360.05C326.61,-352.14 324.14,-342.54 321.86,-333.69"/>
<polygon fill="black" stroke="black" points="325.2,-332.6 319.32,-323.79 318.42,-334.35 325.2,-332.6"/>
</g>
<!-- rs14 -->
<g id="node15" class="node">
<title>rs14</title>
<g id="a_node15"><a xlink:href="./rs0.svg" xlink:title="rs14">
<ellipse fill="none" stroke="black" cx="387" cy="-306" rx="27" ry="18"/>
<text text-anchor="middle" x="387" y="-302.3" font-family="Times New Roman,serif" font-size="14.00">rs14</text>
</a>
</g>
</g>
<!-- rs4&#45;&gt;rs14 -->
<g id="edge16" class="edge">
<title>rs4&#45;&gt;rs14</title>
<path fill="none" stroke="black" d="M344.98,-361.46C351.98,-352.4 360.94,-340.79 368.79,-330.61"/>
<polygon fill="black" stroke="black" points="371.71,-332.55 375.05,-322.49 366.17,-328.27 371.71,-332.55"/>
</g>
<!-- rs15 -->
<g id="node16" class="node">
<title>rs15</title>
<g id="a_node16"><a xlink:href="./rs0.svg" xlink:title="rs15">
<ellipse fill="none" stroke="black" cx="99" cy="-234" rx="27" ry="18"/>
<text text-anchor="middle" x="99" y="-230.3" font-family="Times New Roman,serif" font-size="14.00">rs15</text>
</a>
</g>
</g>
<!-- rs5&#45;&gt;rs15 -->
<g id="edge17" class="edge">
<title>rs5&#45;&gt;rs15</title>
<path fill="none" stroke="black" d="M221.75,-294.67C197.4,-282.83 157.28,-263.33 129.57,-249.86"/>
<polygon fill="black" stroke="black" points="130.86,-246.6 120.33,-245.37 127.8,-252.89 130.86,-246.6"/>
</g>
<!-- rs16 -->
<g id="node17" class="node">
<title>rs16</title>
<g id="a_node17"><a xlink:href="./rs0.svg" xlink:title="rs16">
<ellipse fill="none" stroke="black" cx="243" cy="-234" rx="27" ry="18"/>
<text text-anchor="middle" x="243" y="-230.3" font-family="Times New Roman,serif" font-size="14.00">rs16</text>
</a>
</g>
</g>
<!-- rs5&#45;&gt;rs16 -->
<g id="edge18" class="edge">
<title>rs5&#45;&gt;rs16</title>
<path fill="none" stroke="black" d="M243,-287.7C243,-279.98 243,-270.71 243,-262.11"/>
<polygon fill="black" stroke="black" points="246.5,-262.1 243,-252.1 239.5,-262.1 246.5,-262.1"/>
</g>
<!-- rs17 -->
<g id="node18" class="node">
<title>rs17</title>
<g id="a_node18"><a xlink:href="./rs0.svg" xlink:title="rs17">
<ellipse fill="none" stroke="black" cx="171" cy="-234" rx="27" ry="18"/>
<text text-anchor="middle" x="171" y="-230.3" font-family="Times New Roman,serif" font-size="14.00">rs17</text>
</a>
</g>
</g>
<!-- rs5&#45;&gt;rs17 -->
<g id="edge19" class="edge">
<title>rs5&#45;&gt;rs17</title>
<path fill="none" stroke="black" d="M228.43,-290.83C218.25,-280.94 204.48,-267.55 192.97,-256.36"/>
<polygon fill="black" stroke="black" points="195.41,-253.85 185.8,-249.38 190.53,-258.87 195.41,-253.85"/>
</g>
<!-- rs18 -->
<g id="node19" class="node">
<title>rs18</title>
<g id="a_node19"><a xlink:href="./rs0.svg" xlink:title="rs18">
<ellipse fill="none" stroke="black" cx="315" cy="-234" rx="27" ry="18"/>
<text text-anchor="middle" x="315" y="-230.3" font-family="Times New Roman,serif" font-size="14.00">rs18</text>
</a>
</g>
</g>
<!-- rs5&#45;&gt;rs18 -->
<g id="edge20" class="edge">
<title>rs5&#45;&gt;rs18</title>
<path fill="none" stroke="black" d="M257.57,-290.83C267.75,-280.94 281.52,-267.55 293.03,-256.36"/>
<polygon fill="black" stroke="black" points="295.47,-258.87 300.2,-249.38 290.59,-253.85 295.47,-258.87"/>
</g>
<!-- rs6&#45;&gt;rs15 -->
<g id="edge21" class="edge">
<title>rs6&#45;&gt;rs15</title>
<path fill="none" stroke="black" d="M99,-287.7C99,-279.98 99,-270.71 99,-262.11"/>
<polygon fill="black" stroke="black" points="102.5,-262.1 99,-252.1 95.5,-262.1 102.5,-262.1"/>
</g>
<!-- rs19 -->
<g id="node20" class="node">
<title>rs19</title>
<g id="a_node20"><a xlink:href="./rs0.svg" xlink:title="rs19">
<ellipse fill="none" stroke="black" cx="27" cy="-234" rx="27" ry="18"/>
<text text-anchor="middle" x="27" y="-230.3" font-family="Times New Roman,serif" font-size="14.00">rs19</text>
</a>
</g>
</g>
<!-- rs6&#45;&gt;rs19 -->
<g id="edge22" class="edge">
<title>rs6&#45;&gt;rs19</title>
<path fill="none" stroke="black" d="M84.43,-290.83C74.25,-280.94 60.48,-267.55 48.97,-256.36"/>
<polygon fill="black" stroke="black" points="51.41,-253.85 41.8,-249.38 46.53,-258.87 51.41,-253.85"/>
</g>
<!-- rs7&#45;&gt;rs17 -->
<g id="edge23" class="edge">
<title>rs7&#45;&gt;rs17</title>
<path fill="none" stroke="black" d="M171,-287.7C171,-279.98 171,-270.71 171,-262.11"/>
<polygon fill="black" stroke="black" points="174.5,-262.1 171,-252.1 167.5,-262.1 174.5,-262.1"/>
</g>
<!-- rs7&#45;&gt;rs19 -->
<g id="edge24" class="edge">
<title>rs7&#45;&gt;rs19</title>
<path fill="none" stroke="black" d="M149.75,-294.67C125.4,-282.83 85.28,-263.33 57.57,-249.86"/>
<polygon fill="black" stroke="black" points="58.86,-246.6 48.33,-245.37 55.8,-252.89 58.86,-246.6"/>
</g>
<!-- rs20 -->
<g id="node21" class="node">
<title>rs20</title>
<g id="a_node21"><a xlink:href="./rs0.svg" xlink:title="rs20">
<ellipse fill="none" stroke="black" cx="531" cy="-234" rx="27" ry="18"/>
<text text-anchor="middle" x="531" y="-230.3" font-family="Times New Roman,serif" font-size="14.00">rs20</text>
</a>
</g>
</g>
<!-- rs8&#45;&gt;rs20 -->
<g id="edge25" class="edge">
<title>rs8&#45;&gt;rs20</title>
<path fill="none" stroke="black" d="M588.43,-290.83C578.25,-280.94 564.48,-267.55 552.97,-256.36"/>
<polygon fill="black" stroke="black" points="555.41,-253.85 545.8,-249.38 550.53,-258.87 555.41,-253.85"/>
</g>
<!-- rs21 -->
<g id="node22" class="node">
<title>rs21</title>
<g id="a_node22"><a xlink:href="./rs0.svg" xlink:title="rs21">
<ellipse fill="none" stroke="black" cx="675" cy="-234" rx="27" ry="18"/>
<text text-anchor="middle" x="675" y="-230.3" font-family="Times New Roman,serif" font-size="14.00">rs21</text>
</a>
</g>
</g>
<!-- rs8&#45;&gt;rs21 -->
<g id="edge26" class="edge">
<title>rs8&#45;&gt;rs21</title>
<path fill="none" stroke="black" d="M617.57,-290.83C627.75,-280.94 641.52,-267.55 653.03,-256.36"/>
<polygon fill="black" stroke="black" points="655.47,-258.87 660.2,-249.38 650.59,-253.85 655.47,-258.87"/>
</g>
<!-- rs22 -->
<g id="node23" class="node">
<title>rs22</title>
<g id="a_node23"><a xlink:href="./rs0.svg" xlink:title="rs22">
<ellipse fill="none" stroke="black" cx="603" cy="-234" rx="27" ry="18"/>
<text text-anchor="middle" x="603" y="-230.3" font-family="Times New Roman,serif" font-size="14.00">rs22</text>
</a>
</g>
</g>
<!-- rs8&#45;&gt;rs22 -->
<g id="edge27" class="edge">
<title>rs8&#45;&gt;rs22</title>
<path fill="none" stroke="black" d="M603,-287.7C603,-279.98 603,-270.71 603,-262.11"/>
<polygon fill="black" stroke="black" points="606.5,-262.1 603,-252.1 599.5,-262.1 606.5,-262.1"/>
</g>
<!-- rs23 -->
<g id="node24" class="node">
<title>rs23</title>
<g id="a_node24"><a xlink:href="./rs0.svg" xlink:title="rs23">
<ellipse fill="none" stroke="black" cx="747" cy="-234" rx="27" ry="18"/>
<text text-anchor="middle" x="747" y="-230.3" font-family="Times New Roman,serif" font-size="14.00">rs23</text>
</a>
</g>
</g>
<!-- rs8&#45;&gt;rs23 -->
<g id="edge28" class="edge">
<title>rs8&#45;&gt;rs23</title>
<path fill="none" stroke="black" d="M624.25,-294.67C648.6,-282.83 688.72,-263.33 716.43,-249.86"/>
<polygon fill="black" stroke="black" points="718.2,-252.89 725.67,-245.37 715.14,-246.6 718.2,-252.89"/>
</g>
<!-- rs9&#45;&gt;rs20 -->
<g id="edge29" class="edge">
<title>rs9&#45;&gt;rs20</title>
<path fill="none" stroke="black" d="M473.57,-290.83C483.75,-280.94 497.52,-267.55 509.03,-256.36"/>
<polygon fill="black" stroke="black" points="511.47,-258.87 516.2,-249.38 506.59,-253.85 511.47,-258.87"/>
</g>
<!-- rs24 -->
<g id="node25" class="node">
<title>rs24</title>
<g id="a_node25"><a xlink:href="./rs0.svg" xlink:title="rs24">
<ellipse fill="none" stroke="black" cx="459" cy="-234" rx="27" ry="18"/>
<text text-anchor="middle" x="459" y="-230.3" font-family="Times New Roman,serif" font-size="14.00">rs24</text>
</a>
</g>
</g>
<!-- rs9&#45;&gt;rs24 -->
<g id="edge30" class="edge">
<title>rs9&#45;&gt;rs24</title>
<path fill="none" stroke="black" d="M459,-287.7C459,-279.98 459,-270.71 459,-262.11"/>
<polygon fill="black" stroke="black" points="462.5,-262.1 459,-252.1 455.5,-262.1 462.5,-262.1"/>
</g>
<!-- rs10&#45;&gt;rs22 -->
<g id="edge31" class="edge">
<title>rs10&#45;&gt;rs22</title>
<path fill="none" stroke="black" d="M545.57,-290.83C555.75,-280.94 569.52,-267.55 581.03,-256.36"/>
<polygon fill="black" stroke="black" points="583.47,-258.87 588.2,-249.38 578.59,-253.85 583.47,-258.87"/>
</g>
<!-- rs10&#45;&gt;rs24 -->
<g id="edge32" class="edge">
<title>rs10&#45;&gt;rs24</title>
<path fill="none" stroke="black" d="M516.43,-290.83C506.25,-280.94 492.48,-267.55 480.97,-256.36"/>
<polygon fill="black" stroke="black" points="483.41,-253.85 473.8,-249.38 478.53,-258.87 483.41,-253.85"/>
</g>
<!-- rs11&#45;&gt;rs21 -->
<g id="edge33" class="edge">
<title>rs11&#45;&gt;rs21</title>
<path fill="none" stroke="black" d="M675,-287.7C675,-279.98 675,-270.71 675,-262.11"/>
<polygon fill="black" stroke="black" points="678.5,-262.1 675,-252.1 671.5,-262.1 678.5,-262.1"/>
</g>
<!-- rs25 -->
<g id="node26" class="node">
<title>rs25</title>
<g id="a_node26"><a xlink:href="./rs0.svg" xlink:title="rs25">
<ellipse fill="none" stroke="black" cx="819" cy="-234" rx="27" ry="18"/>
<text text-anchor="middle" x="819" y="-230.3" font-family="Times New Roman,serif" font-size="14.00">rs25</text>
</a>
</g>
</g>
<!-- rs11&#45;&gt;rs25 -->
<g id="edge34" class="edge">
<title>rs11&#45;&gt;rs25</title>
<path fill="none" stroke="black" d="M696.25,-294.67C720.6,-282.83 760.72,-263.33 788.43,-249.86"/>
<polygon fill="black" stroke="black" points="790.2,-252.89 797.67,-245.37 787.14,-246.6 790.2,-252.89"/>
</g>
<!-- rs12&#45;&gt;rs23 -->
<g id="edge35" class="edge">
<title>rs12&#45;&gt;rs23</title>
<path fill="none" stroke="black" d="M747,-287.7C747,-279.98 747,-270.71 747,-262.11"/>
<polygon fill="black" stroke="black" points="750.5,-262.1 747,-252.1 743.5,-262.1 750.5,-262.1"/>
</g>
<!-- rs12&#45;&gt;rs25 -->
<g id="edge36" class="edge">
<title>rs12&#45;&gt;rs25</title>
<path fill="none" stroke="black" d="M761.57,-290.83C771.75,-280.94 785.52,-267.55 797.03,-256.36"/>
<polygon fill="black" stroke="black" points="799.47,-258.87 804.2,-249.38 794.59,-253.85 799.47,-258.87"/>
</g>
<!-- rs13&#45;&gt;rs16 -->
<g id="edge37" class="edge">
<title>rs13&#45;&gt;rs16</title>
<path fill="none" stroke="black" d="M300.43,-290.83C290.25,-280.94 276.48,-267.55 264.97,-256.36"/>
<polygon fill="black" stroke="black" points="267.41,-253.85 257.8,-249.38 262.53,-258.87 267.41,-253.85"/>
</g>
<!-- rs26 -->
<g id="node27" class="node">
<title>rs26</title>
<g id="a_node27"><a xlink:href="./rs0.svg" xlink:title="rs26">
<ellipse fill="none" stroke="black" cx="387" cy="-234" rx="27" ry="18"/>
<text text-anchor="middle" x="387" y="-230.3" font-family="Times New Roman,serif" font-size="14.00">rs26</text>
</a>
</g>
</g>
<!-- rs13&#45;&gt;rs26 -->
<g id="edge38" class="edge">
<title>rs13&#45;&gt;rs26</title>
<path fill="none" stroke="black" d="M329.57,-290.83C339.75,-280.94 353.52,-267.55 365.03,-256.36"/>
<polygon fill="black" stroke="black" points="367.47,-258.87 372.2,-249.38 362.59,-253.85 367.47,-258.87"/>
</g>
<!-- rs14&#45;&gt;rs18 -->
<g id="edge39" class="edge">
<title>rs14&#45;&gt;rs18</title>
<path fill="none" stroke="black" d="M372.43,-290.83C362.25,-280.94 348.48,-267.55 336.97,-256.36"/>
<polygon fill="black" stroke="black" points="339.41,-253.85 329.8,-249.38 334.53,-258.87 339.41,-253.85"/>
</g>
<!-- rs14&#45;&gt;rs26 -->
<g id="edge40" class="edge">
<title>rs14&#45;&gt;rs26</title>
<path fill="none" stroke="black" d="M387,-287.7C387,-279.98 387,-270.71 387,-262.11"/>
<polygon fill="black" stroke="black" points="390.5,-262.1 387,-252.1 383.5,-262.1 390.5,-262.1"/>
</g>
<!-- rs27 -->
<g id="node28" class="node">
<title>rs27</title>
<g id="a_node28"><a xlink:href="./rs0.svg" xlink:title="rs27">
<ellipse fill="none" stroke="black" cx="99" cy="-162" rx="27" ry="18"/>
<text text-anchor="middle" x="99" y="-158.3" font-family="Times New Roman,serif" font-size="14.00">rs27</text>
</a>
</g>
</g>
<!-- rs15&#45;&gt;rs27 -->
<g id="edge41" class="edge">
<title>rs15&#45;&gt;rs27</title>
<path fill="none" stroke="black" d="M99,-215.7C99,-207.98 99,-198.71 99,-190.11"/>
<polygon fill="black" stroke="black" points="102.5,-190.1 99,-180.1 95.5,-190.1 102.5,-190.1"/>
</g>
<!-- rs28 -->
<g id="node29" class="node">
<title>rs28</title>
<g id="a_node29"><a xlink:href="./rs0.svg" xlink:title="rs28">
<ellipse fill="none" stroke="black" cx="27" cy="-162" rx="27" ry="18"/>
<text text-anchor="middle" x="27" y="-158.3" font-family="Times New Roman,serif" font-size="14.00">rs28</text>
</a>
</g>
</g>
<!-- rs15&#45;&gt;rs28 -->
<g id="edge42" class="edge">
<title>rs15&#45;&gt;rs28</title>
<path fill="none" stroke="black" d="M84.43,-218.83C74.25,-208.94 60.48,-195.55 48.97,-184.36"/>
<polygon fill="black" stroke="black" points="51.41,-181.85 41.8,-177.38 46.53,-186.87 51.41,-181.85"/>
</g>
<!-- rs29 -->
<g id="node30" class="node">
<title>rs29</title>
<g id="a_node30"><a xlink:href="./rs0.svg" xlink:title="rs29">
<ellipse fill="none" stroke="black" cx="243" cy="-162" rx="27" ry="18"/>
<text text-anchor="middle" x="243" y="-158.3" font-family="Times New Roman,serif" font-size="14.00">rs29</text>
</a>
</g>
</g>
<!-- rs15&#45;&gt;rs29 -->
<g id="edge43" class="edge">
<title>rs15&#45;&gt;rs29</title>
<path fill="none" stroke="black" d="M120.25,-222.67C144.6,-210.83 184.72,-191.33 212.43,-177.86"/>
<polygon fill="black" stroke="black" points="214.2,-180.89 221.67,-173.37 211.14,-174.6 214.2,-180.89"/>
</g>
<!-- rs16&#45;&gt;rs27 -->
<g id="edge44" class="edge">
<title>rs16&#45;&gt;rs27</title>
<path fill="none" stroke="black" d="M221.75,-222.67C197.4,-210.83 157.28,-191.33 129.57,-177.86"/>
<polygon fill="black" stroke="black" points="130.86,-174.6 120.33,-173.37 127.8,-180.89 130.86,-174.6"/>
</g>
<!-- rs30 -->
<g id="node31" class="node">
<title>rs30</title>
<g id="a_node31"><a xlink:href="./rs0.svg" xlink:title="rs30">
<ellipse fill="none" stroke="black" cx="171" cy="-162" rx="27" ry="18"/>
<text text-anchor="middle" x="171" y="-158.3" font-family="Times New Roman,serif" font-size="14.00">rs30</text>
</a>
</g>
</g>
<!-- rs16&#45;&gt;rs30 -->
<g id="edge45" class="edge">
<title>rs16&#45;&gt;rs30</title>
<path fill="none" stroke="black" d="M228.43,-218.83C218.25,-208.94 204.48,-195.55 192.97,-184.36"/>
<polygon fill="black" stroke="black" points="195.41,-181.85 185.8,-177.38 190.53,-186.87 195.41,-181.85"/>
</g>
<!-- rs31 -->
<g id="node32" class="node">
<title>rs31</title>
<g id="a_node32"><a xlink:href="./rs0.svg" xlink:title="rs31">
<ellipse fill="none" stroke="black" cx="387" cy="-162" rx="27" ry="18"/>
<text text-anchor="middle" x="387" y="-158.3" font-family="Times New Roman,serif" font-size="14.00">rs31</text>
</a>
</g>
</g>
<!-- rs16&#45;&gt;rs31 -->
<g id="edge46" class="edge">
<title>rs16&#45;&gt;rs31</title>
<path fill="none" stroke="black" d="M264.25,-222.67C288.6,-210.83 328.72,-191.33 356.43,-177.86"/>
<polygon fill="black" stroke="black" points="358.2,-180.89 365.67,-173.37 355.14,-174.6 358.2,-180.89"/>
</g>
<!-- rs17&#45;&gt;rs28 -->
<g id="edge47" class="edge">
<title>rs17&#45;&gt;rs28</title>
<path fill="none" stroke="black" d="M149.75,-222.67C125.4,-210.83 85.28,-191.33 57.57,-177.86"/>
<polygon fill="black" stroke="black" points="58.86,-174.6 48.33,-173.37 55.8,-180.89 58.86,-174.6"/>
</g>
<!-- rs17&#45;&gt;rs30 -->
<g id="edge48" class="edge">
<title>rs17&#45;&gt;rs30</title>
<path fill="none" stroke="black" d="M171,-215.7C171,-207.98 171,-198.71 171,-190.11"/>
<polygon fill="black" stroke="black" points="174.5,-190.1 171,-180.1 167.5,-190.1 174.5,-190.1"/>
</g>
<!-- rs32 -->
<g id="node33" class="node">
<title>rs32</title>
<g id="a_node33"><a xlink:href="./rs0.svg" xlink:title="rs32">
<ellipse fill="none" stroke="black" cx="315" cy="-162" rx="27" ry="18"/>
<text text-anchor="middle" x="315" y="-158.3" font-family="Times New Roman,serif" font-size="14.00">rs32</text>
</a>
</g>
</g>
<!-- rs17&#45;&gt;rs32 -->
<g id="edge49" class="edge">
<title>rs17&#45;&gt;rs32</title>
<path fill="none" stroke="black" d="M192.25,-222.67C216.6,-210.83 256.72,-191.33 284.43,-177.86"/>
<polygon fill="black" stroke="black" points="286.2,-180.89 293.67,-173.37 283.14,-174.6 286.2,-180.89"/>
</g>
<!-- rs18&#45;&gt;rs29 -->
<g id="edge50" class="edge">
<title>rs18&#45;&gt;rs29</title>
<path fill="none" stroke="black" d="M300.43,-218.83C290.25,-208.94 276.48,-195.55 264.97,-184.36"/>
<polygon fill="black" stroke="black" points="267.41,-181.85 257.8,-177.38 262.53,-186.87 267.41,-181.85"/>
</g>
<!-- rs18&#45;&gt;rs31 -->
<g id="edge51" class="edge">
<title>rs18&#45;&gt;rs31</title>
<path fill="none" stroke="black" d="M329.57,-218.83C339.75,-208.94 353.52,-195.55 365.03,-184.36"/>
<polygon fill="black" stroke="black" points="367.47,-186.87 372.2,-177.38 362.59,-181.85 367.47,-186.87"/>
</g>
<!-- rs18&#45;&gt;rs32 -->
<g id="edge52" class="edge">
<title>rs18&#45;&gt;rs32</title>
<path fill="none" stroke="black" d="M315,-215.7C315,-207.98 315,-198.71 315,-190.11"/>
<polygon fill="black" stroke="black" points="318.5,-190.1 315,-180.1 311.5,-190.1 318.5,-190.1"/>
</g>
<!-- rs19&#45;&gt;rs28 -->
<g id="edge53" class="edge">
<title>rs19&#45;&gt;rs28</title>
<path fill="none" stroke="black" d="M27,-215.7C27,-207.98 27,-198.71 27,-190.11"/>
<polygon fill="black" stroke="black" points="30.5,-190.1 27,-180.1 23.5,-190.1 30.5,-190.1"/>
</g>
<!-- rs33 -->
<g id="node34" class="node">
<title>rs33</title>
<g id="a_node34"><a xlink:href="./rs0.svg" xlink:title="rs33">
<ellipse fill="none" stroke="black" cx="531" cy="-162" rx="27" ry="18"/>
<text text-anchor="middle" x="531" y="-158.3" font-family="Times New Roman,serif" font-size="14.00">rs33</text>
</a>
</g>
</g>
<!-- rs20&#45;&gt;rs33 -->
<g id="edge54" class="edge">
<title>rs20&#45;&gt;rs33</title>
<path fill="none" stroke="black" d="M531,-215.7C531,-207.98 531,-198.71 531,-190.11"/>
<polygon fill="black" stroke="black" points="534.5,-190.1 531,-180.1 527.5,-190.1 534.5,-190.1"/>
</g>
<!-- rs34 -->
<g id="node35" class="node">
<title>rs34</title>
<g id="a_node35"><a xlink:href="./rs0.svg" xlink:title="rs34">
<ellipse fill="none" stroke="black" cx="459" cy="-162" rx="27" ry="18"/>
<text text-anchor="middle" x="459" y="-158.3" font-family="Times New Roman,serif" font-size="14.00">rs34</text>
</a>
</g>
</g>
<!-- rs20&#45;&gt;rs34 -->
<g id="edge55" class="edge">
<title>rs20&#45;&gt;rs34</title>
<path fill="none" stroke="black" d="M516.43,-218.83C506.25,-208.94 492.48,-195.55 480.97,-184.36"/>
<polygon fill="black" stroke="black" points="483.41,-181.85 473.8,-177.38 478.53,-186.87 483.41,-181.85"/>
</g>
<!-- rs35 -->
<g id="node36" class="node">
<title>rs35</title>
<g id="a_node36"><a xlink:href="./rs0.svg" xlink:title="rs35">
<ellipse fill="none" stroke="black" cx="675" cy="-162" rx="27" ry="18"/>
<text text-anchor="middle" x="675" y="-158.3" font-family="Times New Roman,serif" font-size="14.00">rs35</text>
</a>
</g>
</g>
<!-- rs20&#45;&gt;rs35 -->
<g id="edge56" class="edge">
<title>rs20&#45;&gt;rs35</title>
<path fill="none" stroke="black" d="M552.25,-222.67C576.6,-210.83 616.72,-191.33 644.43,-177.86"/>
<polygon fill="black" stroke="black" points="646.2,-180.89 653.67,-173.37 643.14,-174.6 646.2,-180.89"/>
</g>
<!-- rs21&#45;&gt;rs33 -->
<g id="edge57" class="edge">
<title>rs21&#45;&gt;rs33</title>
<path fill="none" stroke="black" d="M653.75,-222.67C629.4,-210.83 589.28,-191.33 561.57,-177.86"/>
<polygon fill="black" stroke="black" points="562.86,-174.6 552.33,-173.37 559.8,-180.89 562.86,-174.6"/>
</g>
<!-- rs36 -->
<g id="node37" class="node">
<title>rs36</title>
<g id="a_node37"><a xlink:href="./rs0.svg" xlink:title="rs36">
<ellipse fill="none" stroke="black" cx="603" cy="-162" rx="27" ry="18"/>
<text text-anchor="middle" x="603" y="-158.3" font-family="Times New Roman,serif" font-size="14.00">rs36</text>
</a>
</g>
</g>
<!-- rs21&#45;&gt;rs36 -->
<g id="edge58" class="edge">
<title>rs21&#45;&gt;rs36</title>
<path fill="none" stroke="black" d="M660.43,-218.83C650.25,-208.94 636.48,-195.55 624.97,-184.36"/>
<polygon fill="black" stroke="black" points="627.41,-181.85 617.8,-177.38 622.53,-186.87 627.41,-181.85"/>
</g>
<!-- rs37 -->
<g id="node38" class="node">
<title>rs37</title>
<g id="a_node38"><a xlink:href="./rs0.svg" xlink:title="rs37">
<ellipse fill="none" stroke="black" cx="819" cy="-162" rx="27" ry="18"/>
<text text-anchor="middle" x="819" y="-158.3" font-family="Times New Roman,serif" font-size="14.00">rs37</text>
</a>
</g>
</g>
<!-- rs21&#45;&gt;rs37 -->
<g id="edge59" class="edge">
<title>rs21&#45;&gt;rs37</title>
<path fill="none" stroke="black" d="M696.25,-222.67C720.6,-210.83 760.72,-191.33 788.43,-177.86"/>
<polygon fill="black" stroke="black" points="790.2,-180.89 797.67,-173.37 787.14,-174.6 790.2,-180.89"/>
</g>
<!-- rs22&#45;&gt;rs34 -->
<g id="edge60" class="edge">
<title>rs22&#45;&gt;rs34</title>
<path fill="none" stroke="black" d="M581.75,-222.67C557.4,-210.83 517.28,-191.33 489.57,-177.86"/>
<polygon fill="black" stroke="black" points="490.86,-174.6 480.33,-173.37 487.8,-180.89 490.86,-174.6"/>
</g>
<!-- rs22&#45;&gt;rs36 -->
<g id="edge61" class="edge">
<title>rs22&#45;&gt;rs36</title>
<path fill="none" stroke="black" d="M603,-215.7C603,-207.98 603,-198.71 603,-190.11"/>
<polygon fill="black" stroke="black" points="606.5,-190.1 603,-180.1 599.5,-190.1 606.5,-190.1"/>
</g>
<!-- rs38 -->
<g id="node39" class="node">
<title>rs38</title>
<g id="a_node39"><a xlink:href="./rs0.svg" xlink:title="rs38">
<ellipse fill="none" stroke="black" cx="747" cy="-162" rx="27" ry="18"/>
<text text-anchor="middle" x="747" y="-158.3" font-family="Times New Roman,serif" font-size="14.00">rs38</text>
</a>
</g>
</g>
<!-- rs22&#45;&gt;rs38 -->
<g id="edge62" class="edge">
<title>rs22&#45;&gt;rs38</title>
<path fill="none" stroke="black" d="M624.25,-222.67C648.6,-210.83 688.72,-191.33 716.43,-177.86"/>
<polygon fill="black" stroke="black" points="718.2,-180.89 725.67,-173.37 715.14,-174.6 718.2,-180.89"/>
</g>
<!-- rs23&#45;&gt;rs35 -->
<g id="edge63" class="edge">
<title>rs23&#45;&gt;rs35</title>
<path fill="none" stroke="black" d="M732.43,-218.83C722.25,-208.94 708.48,-195.55 696.97,-184.36"/>
<polygon fill="black" stroke="black" points="699.41,-181.85 689.8,-177.38 694.53,-186.87 699.41,-181.85"/>
</g>
<!-- rs23&#45;&gt;rs37 -->
<g id="edge64" class="edge">
<title>rs23&#45;&gt;rs37</title>
<path fill="none" stroke="black" d="M761.57,-218.83C771.75,-208.94 785.52,-195.55 797.03,-184.36"/>
<polygon fill="black" stroke="black" points="799.47,-186.87 804.2,-177.38 794.59,-181.85 799.47,-186.87"/>
</g>
<!-- rs23&#45;&gt;rs38 -->
<g id="edge65" class="edge">
<title>rs23&#45;&gt;rs38</title>
<path fill="none" stroke="black" d="M747,-215.7C747,-207.98 747,-198.71 747,-190.11"/>
<polygon fill="black" stroke="black" points="750.5,-190.1 747,-180.1 743.5,-190.1 750.5,-190.1"/>
</g>
<!-- rs24&#45;&gt;rs34 -->
<g id="edge66" class="edge">
<title>rs24&#45;&gt;rs34</title>
<path fill="none" stroke="black" d="M459,-215.7C459,-207.98 459,-198.71 459,-190.11"/>
<polygon fill="black" stroke="black" points="462.5,-190.1 459,-180.1 455.5,-190.1 462.5,-190.1"/>
</g>
<!-- rs25&#45;&gt;rs37 -->
<g id="edge67" class="edge">
<title>rs25&#45;&gt;rs37</title>
<path fill="none" stroke="black" d="M819,-215.7C819,-207.98 819,-198.71 819,-190.11"/>
<polygon fill="black" stroke="black" points="822.5,-190.1 819,-180.1 815.5,-190.1 822.5,-190.1"/>
</g>
<!-- rs26&#45;&gt;rs31 -->
<g id="edge68" class="edge">
<title>rs26&#45;&gt;rs31</title>
<path fill="none" stroke="black" d="M387,-215.7C387,-207.98 387,-198.71 387,-190.11"/>
<polygon fill="black" stroke="black" points="390.5,-190.1 387,-180.1 383.5,-190.1 390.5,-190.1"/>
</g>
<!-- rs39 -->
<g id="node40" class="node">
<title>rs39</title>
<g id="a_node40"><a xlink:href="./rs0.svg" xlink:title="rs39">
<ellipse fill="none" stroke="black" cx="99" cy="-90" rx="27" ry="18"/>
<text text-anchor="middle" x="99" y="-86.3" font-family="Times New Roman,serif" font-size="14.00">rs39</text>
</a>
</g>
</g>
<!-- rs27&#45;&gt;rs39 -->
<g id="edge69" class="edge">
<title>rs27&#45;&gt;rs39</title>
<path fill="none" stroke="black" d="M99,-143.7C99,-135.98 99,-126.71 99,-118.11"/>
<polygon fill="black" stroke="black" points="102.5,-118.1 99,-108.1 95.5,-118.1 102.5,-118.1"/>
</g>
<!-- rs40 -->
<g id="node41" class="node">
<title>rs40</title>
<g id="a_node41"><a xlink:href="./rs0.svg" xlink:title="rs40">
<ellipse fill="none" stroke="black" cx="243" cy="-90" rx="27" ry="18"/>
<text text-anchor="middle" x="243" y="-86.3" font-family="Times New Roman,serif" font-size="14.00">rs40</text>
</a>
</g>
</g>
<!-- rs27&#45;&gt;rs40 -->
<g id="edge70" class="edge">
<title>rs27&#45;&gt;rs40</title>
<path fill="none" stroke="black" d="M120.25,-150.67C144.6,-138.83 184.72,-119.33 212.43,-105.86"/>
<polygon fill="black" stroke="black" points="214.2,-108.89 221.67,-101.37 211.14,-102.6 214.2,-108.89"/>
</g>
<!-- rs28&#45;&gt;rs39 -->
<g id="edge71" class="edge">
<title>rs28&#45;&gt;rs39</title>
<path fill="none" stroke="black" d="M41.57,-146.83C51.75,-136.94 65.52,-123.55 77.03,-112.36"/>
<polygon fill="black" stroke="black" points="79.47,-114.87 84.2,-105.38 74.59,-109.85 79.47,-114.87"/>
</g>
<!-- rs41 -->
<g id="node42" class="node">
<title>rs41</title>
<g id="a_node42"><a xlink:href="./rs0.svg" xlink:title="rs41">
<ellipse fill="none" stroke="black" cx="171" cy="-90" rx="27" ry="18"/>
<text text-anchor="middle" x="171" y="-86.3" font-family="Times New Roman,serif" font-size="14.00">rs41</text>
</a>
</g>
</g>
<!-- rs28&#45;&gt;rs41 -->
<g id="edge72" class="edge">
<title>rs28&#45;&gt;rs41</title>
<path fill="none" stroke="black" d="M48.25,-150.67C72.6,-138.83 112.72,-119.33 140.43,-105.86"/>
<polygon fill="black" stroke="black" points="142.2,-108.89 149.67,-101.37 139.14,-102.6 142.2,-108.89"/>
</g>
<!-- rs29&#45;&gt;rs40 -->
<g id="edge73" class="edge">
<title>rs29&#45;&gt;rs40</title>
<path fill="none" stroke="black" d="M243,-143.7C243,-135.98 243,-126.71 243,-118.11"/>
<polygon fill="black" stroke="black" points="246.5,-118.1 243,-108.1 239.5,-118.1 246.5,-118.1"/>
</g>
<!-- rs29&#45;&gt;rs41 -->
<g id="edge74" class="edge">
<title>rs29&#45;&gt;rs41</title>
<path fill="none" stroke="black" d="M228.43,-146.83C218.25,-136.94 204.48,-123.55 192.97,-112.36"/>
<polygon fill="black" stroke="black" points="195.41,-109.85 185.8,-105.38 190.53,-114.87 195.41,-109.85"/>
</g>
<!-- rs30&#45;&gt;rs39 -->
<g id="edge75" class="edge">
<title>rs30&#45;&gt;rs39</title>
<path fill="none" stroke="black" d="M156.43,-146.83C146.25,-136.94 132.48,-123.55 120.97,-112.36"/>
<polygon fill="black" stroke="black" points="123.41,-109.85 113.8,-105.38 118.53,-114.87 123.41,-109.85"/>
</g>
<!-- rs42 -->
<g id="node43" class="node">
<title>rs42</title>
<g id="a_node43"><a xlink:href="./rs0.svg" xlink:title="rs42">
<ellipse fill="none" stroke="black" cx="315" cy="-90" rx="27" ry="18"/>
<text text-anchor="middle" x="315" y="-86.3" font-family="Times New Roman,serif" font-size="14.00">rs42</text>
</a>
</g>
</g>
<!-- rs30&#45;&gt;rs42 -->
<g id="edge76" class="edge">
<title>rs30&#45;&gt;rs42</title>
<path fill="none" stroke="black" d="M192.25,-150.67C216.6,-138.83 256.72,-119.33 284.43,-105.86"/>
<polygon fill="black" stroke="black" points="286.2,-108.89 293.67,-101.37 283.14,-102.6 286.2,-108.89"/>
</g>
<!-- rs31&#45;&gt;rs40 -->
<g id="edge77" class="edge">
<title>rs31&#45;&gt;rs40</title>
<path fill="none" stroke="black" d="M365.75,-150.67C341.4,-138.83 301.28,-119.33 273.57,-105.86"/>
<polygon fill="black" stroke="black" points="274.86,-102.6 264.33,-101.37 271.8,-108.89 274.86,-102.6"/>
</g>
<!-- rs31&#45;&gt;rs42 -->
<g id="edge78" class="edge">
<title>rs31&#45;&gt;rs42</title>
<path fill="none" stroke="black" d="M372.43,-146.83C362.25,-136.94 348.48,-123.55 336.97,-112.36"/>
<polygon fill="black" stroke="black" points="339.41,-109.85 329.8,-105.38 334.53,-114.87 339.41,-109.85"/>
</g>
<!-- rs32&#45;&gt;rs41 -->
<g id="edge79" class="edge">
<title>rs32&#45;&gt;rs41</title>
<path fill="none" stroke="black" d="M293.75,-150.67C269.4,-138.83 229.28,-119.33 201.57,-105.86"/>
<polygon fill="black" stroke="black" points="202.86,-102.6 192.33,-101.37 199.8,-108.89 202.86,-102.6"/>
</g>
<!-- rs32&#45;&gt;rs42 -->
<g id="edge80" class="edge">
<title>rs32&#45;&gt;rs42</title>
<path fill="none" stroke="black" d="M315,-143.7C315,-135.98 315,-126.71 315,-118.11"/>
<polygon fill="black" stroke="black" points="318.5,-118.1 315,-108.1 311.5,-118.1 318.5,-118.1"/>
</g>
<!-- rs43 -->
<g id="node44" class="node">
<title>rs43</title>
<g id="a_node44"><a xlink:href="./rs0.svg" xlink:title="rs43">
<ellipse fill="none" stroke="black" cx="531" cy="-90" rx="27" ry="18"/>
<text text-anchor="middle" x="531" y="-86.3" font-family="Times New Roman,serif" font-size="14.00">rs43</text>
</a>
</g>
</g>
<!-- rs33&#45;&gt;rs43 -->
<g id="edge81" class="edge">
<title>rs33&#45;&gt;rs43</title>
<path fill="none" stroke="black" d="M531,-143.7C531,-135.98 531,-126.71 531,-118.11"/>
<polygon fill="black" stroke="black" points="534.5,-118.1 531,-108.1 527.5,-118.1 534.5,-118.1"/>
</g>
<!-- rs44 -->
<g id="node45" class="node">
<title>rs44</title>
<g id="a_node45"><a xlink:href="./rs0.svg" xlink:title="rs44">
<ellipse fill="none" stroke="black" cx="675" cy="-90" rx="27" ry="18"/>
<text text-anchor="middle" x="675" y="-86.3" font-family="Times New Roman,serif" font-size="14.00">rs44</text>
</a>
</g>
</g>
<!-- rs33&#45;&gt;rs44 -->
<g id="edge82" class="edge">
<title>rs33&#45;&gt;rs44</title>
<path fill="none" stroke="black" d="M552.25,-150.67C576.6,-138.83 616.72,-119.33 644.43,-105.86"/>
<polygon fill="black" stroke="black" points="646.2,-108.89 653.67,-101.37 643.14,-102.6 646.2,-108.89"/>
</g>
<!-- rs34&#45;&gt;rs43 -->
<g id="edge83" class="edge">
<title>rs34&#45;&gt;rs43</title>
<path fill="none" stroke="black" d="M473.57,-146.83C483.75,-136.94 497.52,-123.55 509.03,-112.36"/>
<polygon fill="black" stroke="black" points="511.47,-114.87 516.2,-105.38 506.59,-109.85 511.47,-114.87"/>
</g>
<!-- rs45 -->
<g id="node46" class="node">
<title>rs45</title>
<g id="a_node46"><a xlink:href="./rs0.svg" xlink:title="rs45">
<ellipse fill="none" stroke="black" cx="603" cy="-90" rx="27" ry="18"/>
<text text-anchor="middle" x="603" y="-86.3" font-family="Times New Roman,serif" font-size="14.00">rs45</text>
</a>
</g>
</g>
<!-- rs34&#45;&gt;rs45 -->
<g id="edge84" class="edge">
<title>rs34&#45;&gt;rs45</title>
<path fill="none" stroke="black" d="M480.25,-150.67C504.6,-138.83 544.72,-119.33 572.43,-105.86"/>
<polygon fill="black" stroke="black" points="574.2,-108.89 581.67,-101.37 571.14,-102.6 574.2,-108.89"/>
</g>
<!-- rs35&#45;&gt;rs44 -->
<g id="edge85" class="edge">
<title>rs35&#45;&gt;rs44</title>
<path fill="none" stroke="black" d="M675,-143.7C675,-135.98 675,-126.71 675,-118.11"/>
<polygon fill="black" stroke="black" points="678.5,-118.1 675,-108.1 671.5,-118.1 678.5,-118.1"/>
</g>
<!-- rs35&#45;&gt;rs45 -->
<g id="edge86" class="edge">
<title>rs35&#45;&gt;rs45</title>
<path fill="none" stroke="black" d="M660.43,-146.83C650.25,-136.94 636.48,-123.55 624.97,-112.36"/>
<polygon fill="black" stroke="black" points="627.41,-109.85 617.8,-105.38 622.53,-114.87 627.41,-109.85"/>
</g>
<!-- rs36&#45;&gt;rs43 -->
<g id="edge87" class="edge">
<title>rs36&#45;&gt;rs43</title>
<path fill="none" stroke="black" d="M588.43,-146.83C578.25,-136.94 564.48,-123.55 552.97,-112.36"/>
<polygon fill="black" stroke="black" points="555.41,-109.85 545.8,-105.38 550.53,-114.87 555.41,-109.85"/>
</g>
<!-- rs46 -->
<g id="node47" class="node">
<title>rs46</title>
<g id="a_node47"><a xlink:href="./rs0.svg" xlink:title="rs46">
<ellipse fill="none" stroke="black" cx="747" cy="-90" rx="27" ry="18"/>
<text text-anchor="middle" x="747" y="-86.3" font-family="Times New Roman,serif" font-size="14.00">rs46</text>
</a>
</g>
</g>
<!-- rs36&#45;&gt;rs46 -->
<g id="edge88" class="edge">
<title>rs36&#45;&gt;rs46</title>
<path fill="none" stroke="black" d="M624.25,-150.67C648.6,-138.83 688.72,-119.33 716.43,-105.86"/>
<polygon fill="black" stroke="black" points="718.2,-108.89 725.67,-101.37 715.14,-102.6 718.2,-108.89"/>
</g>
<!-- rs37&#45;&gt;rs44 -->
<g id="edge89" class="edge">
<title>rs37&#45;&gt;rs44</title>
<path fill="none" stroke="black" d="M797.75,-150.67C773.4,-138.83 733.28,-119.33 705.57,-105.86"/>
<polygon fill="black" stroke="black" points="706.86,-102.6 696.33,-101.37 703.8,-108.89 706.86,-102.6"/>
</g>
<!-- rs37&#45;&gt;rs46 -->
<g id="edge90" class="edge">
<title>rs37&#45;&gt;rs46</title>
<path fill="none" stroke="black" d="M804.43,-146.83C794.25,-136.94 780.48,-123.55 768.97,-112.36"/>
<polygon fill="black" stroke="black" points="771.41,-109.85 761.8,-105.38 766.53,-114.87 771.41,-109.85"/>
</g>
<!-- rs38&#45;&gt;rs45 -->
<g id="edge91" class="edge">
<title>rs38&#45;&gt;rs45</title>
<path fill="none" stroke="black" d="M725.75,-150.67C701.4,-138.83 661.28,-119.33 633.57,-105.86"/>
<polygon fill="black" stroke="black" points="634.86,-102.6 624.33,-101.37 631.8,-108.89 634.86,-102.6"/>
</g>
<!-- rs38&#45;&gt;rs46 -->
<g id="edge92" class="edge">
<title>rs38&#45;&gt;rs46</title>
<path fill="none" stroke="black" d="M747,-143.7C747,-135.98 747,-126.71 747,-118.11"/>
<polygon fill="black" stroke="black" points="750.5,-118.1 747,-108.1 743.5,-118.1 750.5,-118.1"/>
</g>
<!-- rs47 -->
<g id="node48" class="node">
<title>rs47</title>
<g id="a_node48"><a xlink:href="./rs0.svg" xlink:title="rs47">
<ellipse fill="none" stroke="black" cx="207" cy="-18" rx="27" ry="18"/>
<text text-anchor="middle" x="207" y="-14.3" font-family="Times New Roman,serif" font-size="14.00">rs47</text>
</a>
</g>
</g>
<!-- rs39&#45;&gt;rs47 -->
<g id="edge93" class="edge">
<title>rs39&#45;&gt;rs47</title>
<path fill="none" stroke="black" d="M117.81,-76.81C135,-65.67 160.62,-49.06 179.99,-36.5"/>
<polygon fill="black" stroke="black" points="181.92,-39.43 188.4,-31.05 178.11,-33.56 181.92,-39.43"/>
</g>
<!-- rs40&#45;&gt;rs47 -->
<g id="edge94" class="edge">
<title>rs40&#45;&gt;rs47</title>
<path fill="none" stroke="black" d="M234.65,-72.76C230.29,-64.28 224.85,-53.71 219.96,-44.2"/>
<polygon fill="black" stroke="black" points="222.99,-42.44 215.3,-35.15 216.77,-45.64 222.99,-42.44"/>
</g>
<!-- rs41&#45;&gt;rs47 -->
<g id="edge95" class="edge">
<title>rs41&#45;&gt;rs47</title>
<path fill="none" stroke="black" d="M179.35,-72.76C183.71,-64.28 189.15,-53.71 194.04,-44.2"/>
<polygon fill="black" stroke="black" points="197.23,-45.64 198.7,-35.15 191.01,-42.44 197.23,-45.64"/>
</g>
<!-- rs42&#45;&gt;rs47 -->
<g id="edge96" class="edge">
<title>rs42&#45;&gt;rs47</title>
<path fill="none" stroke="black" d="M296.19,-76.81C279,-65.67 253.38,-49.06 234.01,-36.5"/>
<polygon fill="black" stroke="black" points="235.89,-33.56 225.6,-31.05 232.08,-39.43 235.89,-33.56"/>
</g>
<!-- rs48 -->
<g id="node49" class="node">
<title>rs48</title>
<g id="a_node49"><a xlink:href="./rs0.svg" xlink:title="rs48">
<ellipse fill="none" stroke="black" cx="639" cy="-18" rx="27" ry="18"/>
<text text-anchor="middle" x="639" y="-14.3" font-family="Times New Roman,serif" font-size="14.00">rs48</text>
</a>
</g>
</g>
<!-- rs43&#45;&gt;rs48 -->
<g id="edge97" class="edge">
<title>rs43&#45;&gt;rs48</title>
<path fill="none" stroke="black" d="M549.81,-76.81C567,-65.67 592.62,-49.06 611.99,-36.5"/>
<polygon fill="black" stroke="black" points="613.92,-39.43 620.4,-31.05 610.11,-33.56 613.92,-39.43"/>
</g>
<!-- rs44&#45;&gt;rs48 -->
<g id="edge98" class="edge">
<title>rs44&#45;&gt;rs48</title>
<path fill="none" stroke="black" d="M666.65,-72.76C662.29,-64.28 656.85,-53.71 651.96,-44.2"/>
<polygon fill="black" stroke="black" points="654.99,-42.44 647.3,-35.15 648.77,-45.64 654.99,-42.44"/>
</g>
<!-- rs45&#45;&gt;rs48 -->
<g id="edge99" class="edge">
<title>rs45&#45;&gt;rs48</title>
<path fill="none" stroke="black" d="M611.35,-72.76C615.71,-64.28 621.15,-53.71 626.04,-44.2"/>
<polygon fill="black" stroke="black" points="629.23,-45.64 630.7,-35.15 623.01,-42.44 629.23,-45.64"/>
</g>
<!-- rs46&#45;&gt;rs48 -->
<g id="edge100" class="edge">
<title>rs46&#45;&gt;rs48</title>
<path fill="none" stroke="black" d="M728.19,-76.81C711,-65.67 685.38,-49.06 666.01,-36.5"/>
<polygon fill="black" stroke="black" points="667.89,-33.56 657.6,-31.05 664.08,-39.43 667.89,-33.56"/>
</g>
</g>
</svg>
