<?xml version="1.0" encoding="UTF-8" standalone="no"?>
<!DOCTYPE svg PUBLIC "-//W3C//DTD SVG 1.1//EN"
 "http://www.w3.org/Graphics/SVG/1.1/DTD/svg11.dtd">
<!-- Generated by graphviz version 5.0.0 (20220707.1540)
 -->
<!-- Title: G Pages: 1 -->
<svg width="379pt" height="392pt"
 viewBox="0.00 0.00 379.08 392.00" xmlns="http://www.w3.org/2000/svg" xmlns:xlink="http://www.w3.org/1999/xlink">
<g id="graph0" class="graph" transform="scale(1 1) rotate(0) translate(4 388)">
<title>G</title>
<polygon fill="white" stroke="transparent" points="-4,4 -4,-388 375.08,-388 375.08,4 -4,4"/>
<!-- vendor&#45;available -->
<g id="node1" class="node">
<title>vendor&#45;available</title>
<ellipse fill="none" stroke="black" cx="131.34" cy="-366" rx="27" ry="18"/>
</g>
<!-- item&#45;take&#45;home -->
<g id="node7" class="node">
<title>item&#45;take&#45;home</title>
<polygon fill="none" stroke="black" points="218.34,-297 116.34,-297 116.34,-261 218.34,-261 218.34,-297"/>
<text text-anchor="middle" x="167.34" y="-275.3" font-family="Times New Roman,serif" font-size="14.00">item&#45;take&#45;home</text>
</g>
<!-- vendor&#45;available&#45;&gt;item&#45;take&#45;home -->
<g id="edge1" class="edge">
<title>vendor&#45;available&#45;&gt;item&#45;take&#45;home</title>
<path fill="none" stroke="black" d="M138.46,-348.21C143.5,-336.29 150.38,-320.06 156.15,-306.42"/>
<polygon fill="black" stroke="black" points="159.45,-307.62 160.12,-297.05 153,-304.89 159.45,-307.62"/>
<text text-anchor="middle" x="162.84" y="-318.8" font-family="Times New Roman,serif" font-size="14.00">{y}</text>
</g>
<!-- client&#45;with&#45;item -->
<g id="node2" class="node">
<title>client&#45;with&#45;item</title>
<ellipse fill="none" stroke="black" cx="203.34" cy="-366" rx="27" ry="18"/>
</g>
<!-- client&#45;with&#45;item&#45;&gt;item&#45;take&#45;home -->
<g id="edge2" class="edge">
<title>client&#45;with&#45;item&#45;&gt;item&#45;take&#45;home</title>
<path fill="none" stroke="black" d="M196.23,-348.21C191.19,-336.29 184.31,-320.06 178.53,-306.42"/>
<polygon fill="black" stroke="black" points="181.69,-304.89 174.56,-297.05 175.24,-307.62 181.69,-304.89"/>
<text text-anchor="middle" x="202.84" y="-318.8" font-family="Times New Roman,serif" font-size="14.00">{x,z}</text>
</g>
<!-- vendor&#45;with&#45;item -->
<g id="node3" class="node">
<title>vendor&#45;with&#45;item</title>
<ellipse fill="none" stroke="black" cx="77.34" cy="-192" rx="48.19" ry="18"/>
<text text-anchor="middle" x="77.34" y="-188.3" font-family="Times New Roman,serif" font-size="14.00">(V1,shirt) </text>
</g>
<!-- vendor&#45;packs&#45;item -->
<g id="node8" class="node">
<title>vendor&#45;packs&#45;item</title>
<polygon fill="none" stroke="black" points="137.84,-123 16.84,-123 16.84,-87 137.84,-87 137.84,-123"/>
<text text-anchor="middle" x="77.34" y="-101.3" font-family="Times New Roman,serif" font-size="14.00">vendor&#45;packs&#45;item</text>
</g>
<!-- vendor&#45;with&#45;item&#45;&gt;vendor&#45;packs&#45;item -->
<g id="edge5" class="edge">
<title>vendor&#45;with&#45;item&#45;&gt;vendor&#45;packs&#45;item</title>
<path fill="none" stroke="black" d="M77.34,-173.8C77.34,-162.16 77.34,-146.55 77.34,-133.24"/>
<polygon fill="black" stroke="black" points="80.84,-133.18 77.34,-123.18 73.84,-133.18 80.84,-133.18"/>
<text text-anchor="middle" x="92.84" y="-144.8" font-family="Times New Roman,serif" font-size="14.00">{y,z}</text>
</g>
<!-- client&#45;with&#45;money -->
<g id="node4" class="node">
<title>client&#45;with&#45;money</title>
<ellipse fill="none" stroke="black" cx="257.34" cy="-192" rx="113.98" ry="18"/>
<text text-anchor="middle" x="257.34" y="-188.3" font-family="Times New Roman,serif" font-size="14.00">(Alice,50Eur) (Bob,120Eur) </text>
</g>
<!-- client&#45;pays -->
<g id="node9" class="node">
<title>client&#45;pays</title>
<polygon fill="none" stroke="black" points="295.84,-123 218.84,-123 218.84,-87 295.84,-87 295.84,-123"/>
<text text-anchor="middle" x="257.34" y="-101.3" font-family="Times New Roman,serif" font-size="14.00">client&#45;pays</text>
</g>
<!-- client&#45;with&#45;money&#45;&gt;client&#45;pays -->
<g id="edge7" class="edge">
<title>client&#45;with&#45;money&#45;&gt;client&#45;pays</title>
<path fill="none" stroke="black" d="M257.34,-173.8C257.34,-162.16 257.34,-146.55 257.34,-133.24"/>
<polygon fill="black" stroke="black" points="260.84,-133.18 257.34,-123.18 253.84,-133.18 260.84,-133.18"/>
<text text-anchor="middle" x="274.84" y="-144.8" font-family="Times New Roman,serif" font-size="14.00">{x,m}</text>
</g>
<!-- vendor&#45;packed&#45;item -->
<g id="node5" class="node">
<title>vendor&#45;packed&#45;item</title>
<ellipse fill="none" stroke="black" cx="77.34" cy="-18" rx="77.19" ry="18"/>
<text text-anchor="middle" x="77.34" y="-14.3" font-family="Times New Roman,serif" font-size="14.00">(V2,packs&#45;shoes) </text>
</g>
<!-- client&#45;with&#45;voucher -->
<g id="node6" class="node">
<title>client&#45;with&#45;voucher</title>
<ellipse fill="none" stroke="black" cx="257.34" cy="-18" rx="27" ry="18"/>
</g>
<!-- item&#45;take&#45;home&#45;&gt;vendor&#45;with&#45;item -->
<g id="edge3" class="edge">
<title>item&#45;take&#45;home&#45;&gt;vendor&#45;with&#45;item</title>
<path fill="none" stroke="black" d="M149.13,-260.8C135.48,-247.91 116.67,-230.14 101.73,-216.03"/>
<polygon fill="black" stroke="black" points="103.98,-213.35 94.31,-209.03 99.18,-218.44 103.98,-213.35"/>
<text text-anchor="middle" x="143.84" y="-231.8" font-family="Times New Roman,serif" font-size="14.00">{y,z}</text>
</g>
<!-- item&#45;take&#45;home&#45;&gt;client&#45;with&#45;money -->
<g id="edge4" class="edge">
<title>item&#45;take&#45;home&#45;&gt;client&#45;with&#45;money</title>
<path fill="none" stroke="black" d="M185.56,-260.8C198.94,-248.16 217.3,-230.82 232.09,-216.85"/>
<polygon fill="black" stroke="black" points="234.6,-219.3 239.46,-209.89 229.79,-214.21 234.6,-219.3"/>
<text text-anchor="middle" x="234.84" y="-231.8" font-family="Times New Roman,serif" font-size="14.00">{x,m}</text>
</g>
<!-- vendor&#45;packs&#45;item&#45;&gt;vendor&#45;packed&#45;item -->
<g id="edge6" class="edge">
<title>vendor&#45;packs&#45;item&#45;&gt;vendor&#45;packed&#45;item</title>
<path fill="none" stroke="black" d="M77.34,-86.8C77.34,-75.16 77.34,-59.55 77.34,-46.24"/>
<polygon fill="black" stroke="black" points="80.84,-46.18 77.34,-36.18 73.84,-46.18 80.84,-46.18"/>
<text text-anchor="middle" x="96.34" y="-57.8" font-family="Times New Roman,serif" font-size="14.00">{y,pz}</text>
</g>
<!-- client&#45;pays&#45;&gt;client&#45;with&#45;voucher -->
<g id="edge8" class="edge">
<title>client&#45;pays&#45;&gt;client&#45;with&#45;voucher</title>
<path fill="none" stroke="black" d="M257.34,-86.8C257.34,-75.16 257.34,-59.55 257.34,-46.24"/>
<polygon fill="black" stroke="black" points="260.84,-46.18 257.34,-36.18 253.84,-46.18 260.84,-46.18"/>
<text text-anchor="middle" x="267.84" y="-57.8" font-family="Times New Roman,serif" font-size="14.00">{x}</text>
</g>
</g>
</svg>
