<?xml version="1.0" encoding="UTF-8" standalone="no"?>
<!DOCTYPE svg PUBLIC "-//W3C//DTD SVG 1.1//EN"
 "http://www.w3.org/Graphics/SVG/1.1/DTD/svg11.dtd">
<!-- Generated by graphviz version 5.0.0 (20220707.1540)
 -->
<!-- Title: G Pages: 1 -->
<svg width="332pt" height="392pt"
 viewBox="0.00 0.00 332.39 392.00" xmlns="http://www.w3.org/2000/svg" xmlns:xlink="http://www.w3.org/1999/xlink">
<g id="graph0" class="graph" transform="scale(1 1) rotate(0) translate(4 388)">
<title>G</title>
<polygon fill="white" stroke="transparent" points="-4,4 -4,-388 328.39,-388 328.39,4 -4,4"/>
<!-- vendor&#45;available -->
<g id="node1" class="node">
<title>vendor&#45;available</title>
<ellipse fill="none" stroke="black" cx="139.34" cy="-366" rx="27" ry="18"/>
</g>
<!-- item&#45;take&#45;home -->
<g id="node7" class="node">
<title>item&#45;take&#45;home</title>
<polygon fill="none" stroke="black" points="226.34,-297 124.34,-297 124.34,-261 226.34,-261 226.34,-297"/>
<text text-anchor="middle" x="175.34" y="-275.3" font-family="Times New Roman,serif" font-size="14.00">item&#45;take&#45;home</text>
</g>
<!-- vendor&#45;available&#45;&gt;item&#45;take&#45;home -->
<g id="edge1" class="edge">
<title>vendor&#45;available&#45;&gt;item&#45;take&#45;home</title>
<path fill="none" stroke="black" d="M146.45,-348.21C151.5,-336.29 158.37,-320.06 164.15,-306.42"/>
<polygon fill="black" stroke="black" points="167.44,-307.62 168.12,-297.05 161,-304.89 167.44,-307.62"/>
<text text-anchor="middle" x="170.84" y="-318.8" font-family="Times New Roman,serif" font-size="14.00">{y}</text>
</g>
<!-- client&#45;with&#45;item -->
<g id="node2" class="node">
<title>client&#45;with&#45;item</title>
<ellipse fill="none" stroke="black" cx="211.34" cy="-366" rx="27" ry="18"/>
</g>
<!-- client&#45;with&#45;item&#45;&gt;item&#45;take&#45;home -->
<g id="edge2" class="edge">
<title>client&#45;with&#45;item&#45;&gt;item&#45;take&#45;home</title>
<path fill="none" stroke="black" d="M204.23,-348.21C199.18,-336.29 192.31,-320.06 186.53,-306.42"/>
<polygon fill="black" stroke="black" points="189.69,-304.89 182.56,-297.05 183.24,-307.62 189.69,-304.89"/>
<text text-anchor="middle" x="210.84" y="-318.8" font-family="Times New Roman,serif" font-size="14.00">{x,z}</text>
</g>
<!-- vendor&#45;with&#45;item -->
<g id="node3" class="node">
<title>vendor&#45;with&#45;item</title>
<ellipse fill="none" stroke="black" cx="90.34" cy="-192" rx="90.18" ry="18"/>
<text text-anchor="middle" x="90.34" y="-188.3" font-family="Times New Roman,serif" font-size="14.00">(V1,shirt) (V2,shoes) </text>
</g>
<!-- vendor&#45;packs&#45;item -->
<g id="node8" class="node">
<title>vendor&#45;packs&#45;item</title>
<polygon fill="none" stroke="black" points="150.84,-123 29.84,-123 29.84,-87 150.84,-87 150.84,-123"/>
<text text-anchor="middle" x="90.34" y="-101.3" font-family="Times New Roman,serif" font-size="14.00">vendor&#45;packs&#45;item</text>
</g>
<!-- vendor&#45;with&#45;item&#45;&gt;vendor&#45;packs&#45;item -->
<g id="edge5" class="edge">
<title>vendor&#45;with&#45;item&#45;&gt;vendor&#45;packs&#45;item</title>
<path fill="none" stroke="black" d="M90.34,-173.8C90.34,-162.16 90.34,-146.55 90.34,-133.24"/>
<polygon fill="black" stroke="black" points="93.84,-133.18 90.34,-123.18 86.84,-133.18 93.84,-133.18"/>
<text text-anchor="middle" x="105.84" y="-144.8" font-family="Times New Roman,serif" font-size="14.00">{y,z}</text>
</g>
<!-- client&#45;with&#45;money -->
<g id="node4" class="node">
<title>client&#45;with&#45;money</title>
<ellipse fill="none" stroke="black" cx="261.34" cy="-192" rx="63.09" ry="18"/>
<text text-anchor="middle" x="261.34" y="-188.3" font-family="Times New Roman,serif" font-size="14.00">(Bob,120Eur) </text>
</g>
<!-- client&#45;pays -->
<g id="node9" class="node">
<title>client&#45;pays</title>
<polygon fill="none" stroke="black" points="299.84,-123 222.84,-123 222.84,-87 299.84,-87 299.84,-123"/>
<text text-anchor="middle" x="261.34" y="-101.3" font-family="Times New Roman,serif" font-size="14.00">client&#45;pays</text>
</g>
<!-- client&#45;with&#45;money&#45;&gt;client&#45;pays -->
<g id="edge7" class="edge">
<title>client&#45;with&#45;money&#45;&gt;client&#45;pays</title>
<path fill="none" stroke="black" d="M261.34,-173.8C261.34,-162.16 261.34,-146.55 261.34,-133.24"/>
<polygon fill="black" stroke="black" points="264.84,-133.18 261.34,-123.18 257.84,-133.18 264.84,-133.18"/>
<text text-anchor="middle" x="278.84" y="-144.8" font-family="Times New Roman,serif" font-size="14.00">{x,m}</text>
</g>
<!-- vendor&#45;packed&#45;item -->
<g id="node5" class="node">
<title>vendor&#45;packed&#45;item</title>
<ellipse fill="none" stroke="black" cx="90.34" cy="-18" rx="27" ry="18"/>
</g>
<!-- client&#45;with&#45;voucher -->
<g id="node6" class="node">
<title>client&#45;with&#45;voucher</title>
<ellipse fill="none" stroke="black" cx="261.34" cy="-18" rx="37.89" ry="18"/>
<text text-anchor="middle" x="261.34" y="-14.3" font-family="Times New Roman,serif" font-size="14.00">(Alice) </text>
</g>
<!-- item&#45;take&#45;home&#45;&gt;vendor&#45;with&#45;item -->
<g id="edge3" class="edge">
<title>item&#45;take&#45;home&#45;&gt;vendor&#45;with&#45;item</title>
<path fill="none" stroke="black" d="M158.14,-260.8C145.62,-248.27 128.48,-231.14 114.57,-217.23"/>
<polygon fill="black" stroke="black" points="116.77,-214.48 107.23,-209.89 111.82,-219.43 116.77,-214.48"/>
<text text-anchor="middle" x="153.84" y="-231.8" font-family="Times New Roman,serif" font-size="14.00">{y,z}</text>
</g>
<!-- item&#45;take&#45;home&#45;&gt;client&#45;with&#45;money -->
<g id="edge4" class="edge">
<title>item&#45;take&#45;home&#45;&gt;client&#45;with&#45;money</title>
<path fill="none" stroke="black" d="M192.75,-260.8C205.5,-248.19 222.98,-230.92 237.1,-216.96"/>
<polygon fill="black" stroke="black" points="239.9,-219.12 244.55,-209.6 234.98,-214.14 239.9,-219.12"/>
<text text-anchor="middle" x="240.84" y="-231.8" font-family="Times New Roman,serif" font-size="14.00">{x,m}</text>
</g>
<!-- vendor&#45;packs&#45;item&#45;&gt;vendor&#45;packed&#45;item -->
<g id="edge6" class="edge">
<title>vendor&#45;packs&#45;item&#45;&gt;vendor&#45;packed&#45;item</title>
<path fill="none" stroke="black" d="M90.34,-86.8C90.34,-75.16 90.34,-59.55 90.34,-46.24"/>
<polygon fill="black" stroke="black" points="93.84,-46.18 90.34,-36.18 86.84,-46.18 93.84,-46.18"/>
<text text-anchor="middle" x="109.34" y="-57.8" font-family="Times New Roman,serif" font-size="14.00">{y,pz}</text>
</g>
<!-- client&#45;pays&#45;&gt;client&#45;with&#45;voucher -->
<g id="edge8" class="edge">
<title>client&#45;pays&#45;&gt;client&#45;with&#45;voucher</title>
<path fill="none" stroke="black" d="M261.34,-86.8C261.34,-75.16 261.34,-59.55 261.34,-46.24"/>
<polygon fill="black" stroke="black" points="264.84,-46.18 261.34,-36.18 257.84,-46.18 264.84,-46.18"/>
<text text-anchor="middle" x="271.84" y="-57.8" font-family="Times New Roman,serif" font-size="14.00">{x}</text>
</g>
</g>
</svg>
