<?xml version="1.0" encoding="UTF-8" standalone="no"?>
<!DOCTYPE svg PUBLIC "-//W3C//DTD SVG 1.1//EN"
 "http://www.w3.org/Graphics/SVG/1.1/DTD/svg11.dtd">
<!-- Generated by graphviz version 5.0.0 (20220707.1540)
 -->
<!-- Title: G Pages: 1 -->
<svg width="257pt" height="392pt"
 viewBox="0.00 0.00 256.89 392.00" xmlns="http://www.w3.org/2000/svg" xmlns:xlink="http://www.w3.org/1999/xlink">
<g id="graph0" class="graph" transform="scale(1 1) rotate(0) translate(4 388)">
<title>G</title>
<polygon fill="white" stroke="transparent" points="-4,4 -4,-388 252.89,-388 252.89,4 -4,4"/>
<!-- vendor&#45;available -->
<g id="node1" class="node">
<title>vendor&#45;available</title>
<ellipse fill="none" stroke="black" cx="79.14" cy="-366" rx="29.8" ry="18"/>
<text text-anchor="middle" x="79.14" y="-362.3" font-family="Times New Roman,serif" font-size="14.00">(V2) </text>
</g>
<!-- item&#45;take&#45;home -->
<g id="node7" class="node">
<title>item&#45;take&#45;home</title>
<polygon fill="none" stroke="black" points="183.14,-297 81.14,-297 81.14,-261 183.14,-261 183.14,-297"/>
<text text-anchor="middle" x="132.14" y="-275.3" font-family="Times New Roman,serif" font-size="14.00">item&#45;take&#45;home</text>
</g>
<!-- vendor&#45;available&#45;&gt;item&#45;take&#45;home -->
<g id="edge1" class="edge">
<title>vendor&#45;available&#45;&gt;item&#45;take&#45;home</title>
<path fill="none" stroke="black" d="M89.11,-349.01C96.69,-336.86 107.27,-319.9 116.04,-305.83"/>
<polygon fill="black" stroke="black" points="119.17,-307.42 121.49,-297.08 113.23,-303.72 119.17,-307.42"/>
<text text-anchor="middle" x="119.64" y="-318.8" font-family="Times New Roman,serif" font-size="14.00">{y}</text>
</g>
<!-- client&#45;with&#45;item -->
<g id="node2" class="node">
<title>client&#45;with&#45;item</title>
<ellipse fill="none" stroke="black" cx="185.14" cy="-366" rx="57.69" ry="18"/>
<text text-anchor="middle" x="185.14" y="-362.3" font-family="Times New Roman,serif" font-size="14.00">(Bob,shoes) </text>
</g>
<!-- client&#45;with&#45;item&#45;&gt;item&#45;take&#45;home -->
<g id="edge2" class="edge">
<title>client&#45;with&#45;item&#45;&gt;item&#45;take&#45;home</title>
<path fill="none" stroke="black" d="M174.67,-348.21C167.1,-336.06 156.73,-319.43 148.13,-305.63"/>
<polygon fill="black" stroke="black" points="151.04,-303.68 142.77,-297.05 145.1,-307.39 151.04,-303.68"/>
<text text-anchor="middle" x="176.64" y="-318.8" font-family="Times New Roman,serif" font-size="14.00">{x,z}</text>
</g>
<!-- vendor&#45;with&#45;item -->
<g id="node3" class="node">
<title>vendor&#45;with&#45;item</title>
<ellipse fill="none" stroke="black" cx="79.14" cy="-192" rx="27" ry="18"/>
</g>
<!-- vendor&#45;packs&#45;item -->
<g id="node8" class="node">
<title>vendor&#45;packs&#45;item</title>
<polygon fill="none" stroke="black" points="132.64,-123 11.64,-123 11.64,-87 132.64,-87 132.64,-123"/>
<text text-anchor="middle" x="72.14" y="-101.3" font-family="Times New Roman,serif" font-size="14.00">vendor&#45;packs&#45;item</text>
</g>
<!-- vendor&#45;with&#45;item&#45;&gt;vendor&#45;packs&#45;item -->
<g id="edge5" class="edge">
<title>vendor&#45;with&#45;item&#45;&gt;vendor&#45;packs&#45;item</title>
<path fill="none" stroke="black" d="M77.73,-173.8C76.77,-162.16 75.48,-146.55 74.39,-133.24"/>
<polygon fill="black" stroke="black" points="77.87,-132.85 73.56,-123.18 70.89,-133.43 77.87,-132.85"/>
<text text-anchor="middle" x="91.64" y="-144.8" font-family="Times New Roman,serif" font-size="14.00">{y,z}</text>
</g>
<!-- client&#45;with&#45;money -->
<g id="node4" class="node">
<title>client&#45;with&#45;money</title>
<ellipse fill="none" stroke="black" cx="187.14" cy="-192" rx="61.99" ry="18"/>
<text text-anchor="middle" x="187.14" y="-188.3" font-family="Times New Roman,serif" font-size="14.00">(Alice,50Eur) </text>
</g>
<!-- client&#45;pays -->
<g id="node9" class="node">
<title>client&#45;pays</title>
<polygon fill="none" stroke="black" points="227.64,-123 150.64,-123 150.64,-87 227.64,-87 227.64,-123"/>
<text text-anchor="middle" x="189.14" y="-101.3" font-family="Times New Roman,serif" font-size="14.00">client&#45;pays</text>
</g>
<!-- client&#45;with&#45;money&#45;&gt;client&#45;pays -->
<g id="edge7" class="edge">
<title>client&#45;with&#45;money&#45;&gt;client&#45;pays</title>
<path fill="none" stroke="black" d="M187.55,-173.8C187.82,-162.16 188.19,-146.55 188.5,-133.24"/>
<polygon fill="black" stroke="black" points="192,-133.26 188.74,-123.18 185.01,-133.09 192,-133.26"/>
<text text-anchor="middle" x="205.64" y="-144.8" font-family="Times New Roman,serif" font-size="14.00">{x,m}</text>
</g>
<!-- vendor&#45;packed&#45;item -->
<g id="node5" class="node">
<title>vendor&#45;packed&#45;item</title>
<ellipse fill="none" stroke="black" cx="72.14" cy="-18" rx="72.29" ry="18"/>
<text text-anchor="middle" x="72.14" y="-14.3" font-family="Times New Roman,serif" font-size="14.00">(V1,packs&#45;shirt) </text>
</g>
<!-- client&#45;with&#45;voucher -->
<g id="node6" class="node">
<title>client&#45;with&#45;voucher</title>
<ellipse fill="none" stroke="black" cx="189.14" cy="-18" rx="27" ry="18"/>
</g>
<!-- item&#45;take&#45;home&#45;&gt;vendor&#45;with&#45;item -->
<g id="edge3" class="edge">
<title>item&#45;take&#45;home&#45;&gt;vendor&#45;with&#45;item</title>
<path fill="none" stroke="black" d="M121.42,-260.8C113.68,-248.38 103.11,-231.44 94.48,-217.6"/>
<polygon fill="black" stroke="black" points="97.4,-215.66 89.14,-209.03 91.46,-219.36 97.4,-215.66"/>
<text text-anchor="middle" x="124.64" y="-231.8" font-family="Times New Roman,serif" font-size="14.00">{y,z}</text>
</g>
<!-- item&#45;take&#45;home&#45;&gt;client&#45;with&#45;money -->
<g id="edge4" class="edge">
<title>item&#45;take&#45;home&#45;&gt;client&#45;with&#45;money</title>
<path fill="none" stroke="black" d="M143.27,-260.8C151.15,-248.62 161.85,-232.09 170.71,-218.4"/>
<polygon fill="black" stroke="black" points="173.72,-220.18 176.22,-209.89 167.85,-216.38 173.72,-220.18"/>
<text text-anchor="middle" x="179.64" y="-231.8" font-family="Times New Roman,serif" font-size="14.00">{x,m}</text>
</g>
<!-- vendor&#45;packs&#45;item&#45;&gt;vendor&#45;packed&#45;item -->
<g id="edge6" class="edge">
<title>vendor&#45;packs&#45;item&#45;&gt;vendor&#45;packed&#45;item</title>
<path fill="none" stroke="black" d="M72.14,-86.8C72.14,-75.16 72.14,-59.55 72.14,-46.24"/>
<polygon fill="black" stroke="black" points="75.64,-46.18 72.14,-36.18 68.64,-46.18 75.64,-46.18"/>
<text text-anchor="middle" x="91.14" y="-57.8" font-family="Times New Roman,serif" font-size="14.00">{y,pz}</text>
</g>
<!-- client&#45;pays&#45;&gt;client&#45;with&#45;voucher -->
<g id="edge8" class="edge">
<title>client&#45;pays&#45;&gt;client&#45;with&#45;voucher</title>
<path fill="none" stroke="black" d="M189.14,-86.8C189.14,-75.16 189.14,-59.55 189.14,-46.24"/>
<polygon fill="black" stroke="black" points="192.64,-46.18 189.14,-36.18 185.64,-46.18 192.64,-46.18"/>
<text text-anchor="middle" x="199.64" y="-57.8" font-family="Times New Roman,serif" font-size="14.00">{x}</text>
</g>
</g>
</svg>
