<?xml version="1.0" encoding="UTF-8" standalone="no"?>
<!DOCTYPE svg PUBLIC "-//W3C//DTD SVG 1.1//EN"
 "http://www.w3.org/Graphics/SVG/1.1/DTD/svg11.dtd">
<!-- Generated by graphviz version 5.0.0 (20220707.1540)
 -->
<!-- Title: G Pages: 1 -->
<svg width="379pt" height="392pt"
 viewBox="0.00 0.00 378.88 392.00" xmlns="http://www.w3.org/2000/svg" xmlns:xlink="http://www.w3.org/1999/xlink">
<g id="graph0" class="graph" transform="scale(1 1) rotate(0) translate(4 388)">
<title>G</title>
<polygon fill="white" stroke="transparent" points="-4,4 -4,-388 374.88,-388 374.88,4 -4,4"/>
<!-- vendor&#45;available -->
<g id="node1" class="node">
<title>vendor&#45;available</title>
<ellipse fill="none" stroke="black" cx="128.14" cy="-366" rx="27" ry="18"/>
</g>
<!-- item&#45;take&#45;home -->
<g id="node7" class="node">
<title>item&#45;take&#45;home</title>
<polygon fill="none" stroke="black" points="215.14,-297 113.14,-297 113.14,-261 215.14,-261 215.14,-297"/>
<text text-anchor="middle" x="164.14" y="-275.3" font-family="Times New Roman,serif" font-size="14.00">item&#45;take&#45;home</text>
</g>
<!-- vendor&#45;available&#45;&gt;item&#45;take&#45;home -->
<g id="edge1" class="edge">
<title>vendor&#45;available&#45;&gt;item&#45;take&#45;home</title>
<path fill="none" stroke="black" d="M135.26,-348.21C140.3,-336.29 147.18,-320.06 152.95,-306.42"/>
<polygon fill="black" stroke="black" points="156.25,-307.62 156.92,-297.05 149.8,-304.89 156.25,-307.62"/>
<text text-anchor="middle" x="159.64" y="-318.8" font-family="Times New Roman,serif" font-size="14.00">{y}</text>
</g>
<!-- client&#45;with&#45;item -->
<g id="node2" class="node">
<title>client&#45;with&#45;item</title>
<ellipse fill="none" stroke="black" cx="200.14" cy="-366" rx="27" ry="18"/>
</g>
<!-- client&#45;with&#45;item&#45;&gt;item&#45;take&#45;home -->
<g id="edge2" class="edge">
<title>client&#45;with&#45;item&#45;&gt;item&#45;take&#45;home</title>
<path fill="none" stroke="black" d="M193.03,-348.21C187.99,-336.29 181.11,-320.06 175.34,-306.42"/>
<polygon fill="black" stroke="black" points="178.49,-304.89 171.36,-297.05 172.04,-307.62 178.49,-304.89"/>
<text text-anchor="middle" x="199.64" y="-318.8" font-family="Times New Roman,serif" font-size="14.00">{x,z}</text>
</g>
<!-- vendor&#45;with&#45;item -->
<g id="node3" class="node">
<title>vendor&#45;with&#45;item</title>
<ellipse fill="none" stroke="black" cx="72.14" cy="-192" rx="53.09" ry="18"/>
<text text-anchor="middle" x="72.14" y="-188.3" font-family="Times New Roman,serif" font-size="14.00">(V1,shoes) </text>
</g>
<!-- vendor&#45;packs&#45;item -->
<g id="node8" class="node">
<title>vendor&#45;packs&#45;item</title>
<polygon fill="none" stroke="black" points="132.64,-123 11.64,-123 11.64,-87 132.64,-87 132.64,-123"/>
<text text-anchor="middle" x="72.14" y="-101.3" font-family="Times New Roman,serif" font-size="14.00">vendor&#45;packs&#45;item</text>
</g>
<!-- vendor&#45;with&#45;item&#45;&gt;vendor&#45;packs&#45;item -->
<g id="edge5" class="edge">
<title>vendor&#45;with&#45;item&#45;&gt;vendor&#45;packs&#45;item</title>
<path fill="none" stroke="black" d="M72.14,-173.8C72.14,-162.16 72.14,-146.55 72.14,-133.24"/>
<polygon fill="black" stroke="black" points="75.64,-133.18 72.14,-123.18 68.64,-133.18 75.64,-133.18"/>
<text text-anchor="middle" x="87.64" y="-144.8" font-family="Times New Roman,serif" font-size="14.00">{y,z}</text>
</g>
<!-- client&#45;with&#45;money -->
<g id="node4" class="node">
<title>client&#45;with&#45;money</title>
<ellipse fill="none" stroke="black" cx="257.14" cy="-192" rx="113.98" ry="18"/>
<text text-anchor="middle" x="257.14" y="-188.3" font-family="Times New Roman,serif" font-size="14.00">(Bob,120Eur) (Alice,50Eur) </text>
</g>
<!-- client&#45;pays -->
<g id="node9" class="node">
<title>client&#45;pays</title>
<polygon fill="none" stroke="black" points="295.64,-123 218.64,-123 218.64,-87 295.64,-87 295.64,-123"/>
<text text-anchor="middle" x="257.14" y="-101.3" font-family="Times New Roman,serif" font-size="14.00">client&#45;pays</text>
</g>
<!-- client&#45;with&#45;money&#45;&gt;client&#45;pays -->
<g id="edge7" class="edge">
<title>client&#45;with&#45;money&#45;&gt;client&#45;pays</title>
<path fill="none" stroke="black" d="M257.14,-173.8C257.14,-162.16 257.14,-146.55 257.14,-133.24"/>
<polygon fill="black" stroke="black" points="260.64,-133.18 257.14,-123.18 253.64,-133.18 260.64,-133.18"/>
<text text-anchor="middle" x="274.64" y="-144.8" font-family="Times New Roman,serif" font-size="14.00">{x,m}</text>
</g>
<!-- vendor&#45;packed&#45;item -->
<g id="node5" class="node">
<title>vendor&#45;packed&#45;item</title>
<ellipse fill="none" stroke="black" cx="72.14" cy="-18" rx="72.29" ry="18"/>
<text text-anchor="middle" x="72.14" y="-14.3" font-family="Times New Roman,serif" font-size="14.00">(V2,packs&#45;shirt) </text>
</g>
<!-- client&#45;with&#45;voucher -->
<g id="node6" class="node">
<title>client&#45;with&#45;voucher</title>
<ellipse fill="none" stroke="black" cx="257.14" cy="-18" rx="27" ry="18"/>
</g>
<!-- item&#45;take&#45;home&#45;&gt;vendor&#45;with&#45;item -->
<g id="edge3" class="edge">
<title>item&#45;take&#45;home&#45;&gt;vendor&#45;with&#45;item</title>
<path fill="none" stroke="black" d="M145.53,-260.8C131.58,-247.91 112.34,-230.14 97.07,-216.03"/>
<polygon fill="black" stroke="black" points="99.21,-213.24 89.49,-209.03 94.46,-218.38 99.21,-213.24"/>
<text text-anchor="middle" x="139.64" y="-231.8" font-family="Times New Roman,serif" font-size="14.00">{y,z}</text>
</g>
<!-- item&#45;take&#45;home&#45;&gt;client&#45;with&#45;money -->
<g id="edge4" class="edge">
<title>item&#45;take&#45;home&#45;&gt;client&#45;with&#45;money</title>
<path fill="none" stroke="black" d="M182.96,-260.8C196.79,-248.16 215.76,-230.82 231.05,-216.85"/>
<polygon fill="black" stroke="black" points="233.65,-219.22 238.67,-209.89 228.93,-214.05 233.65,-219.22"/>
<text text-anchor="middle" x="233.64" y="-231.8" font-family="Times New Roman,serif" font-size="14.00">{x,m}</text>
</g>
<!-- vendor&#45;packs&#45;item&#45;&gt;vendor&#45;packed&#45;item -->
<g id="edge6" class="edge">
<title>vendor&#45;packs&#45;item&#45;&gt;vendor&#45;packed&#45;item</title>
<path fill="none" stroke="black" d="M72.14,-86.8C72.14,-75.16 72.14,-59.55 72.14,-46.24"/>
<polygon fill="black" stroke="black" points="75.64,-46.18 72.14,-36.18 68.64,-46.18 75.64,-46.18"/>
<text text-anchor="middle" x="91.14" y="-57.8" font-family="Times New Roman,serif" font-size="14.00">{y,pz}</text>
</g>
<!-- client&#45;pays&#45;&gt;client&#45;with&#45;voucher -->
<g id="edge8" class="edge">
<title>client&#45;pays&#45;&gt;client&#45;with&#45;voucher</title>
<path fill="none" stroke="black" d="M257.14,-86.8C257.14,-75.16 257.14,-59.55 257.14,-46.24"/>
<polygon fill="black" stroke="black" points="260.64,-46.18 257.14,-36.18 253.64,-46.18 260.64,-46.18"/>
<text text-anchor="middle" x="267.64" y="-57.8" font-family="Times New Roman,serif" font-size="14.00">{x}</text>
</g>
</g>
</svg>
