<?xml version="1.0" encoding="UTF-8" standalone="no"?>
<!DOCTYPE svg PUBLIC "-//W3C//DTD SVG 1.1//EN"
 "http://www.w3.org/Graphics/SVG/1.1/DTD/svg11.dtd">
<!-- Generated by graphviz version 5.0.0 (20220707.1540)
 -->
<!-- Title: G Pages: 1 -->
<svg width="434pt" height="392pt"
 viewBox="0.00 0.00 434.08 392.00" xmlns="http://www.w3.org/2000/svg" xmlns:xlink="http://www.w3.org/1999/xlink">
<g id="graph0" class="graph" transform="scale(1 1) rotate(0) translate(4 388)">
<title>G</title>
<polygon fill="white" stroke="transparent" points="-4,4 -4,-388 430.08,-388 430.08,4 -4,4"/>
<!-- vendor&#45;available -->
<g id="node1" class="node">
<title>vendor&#45;available</title>
<ellipse fill="none" stroke="black" cx="165.34" cy="-366" rx="27" ry="18"/>
</g>
<!-- item&#45;take&#45;home -->
<g id="node7" class="node">
<title>item&#45;take&#45;home</title>
<polygon fill="none" stroke="black" points="252.34,-297 150.34,-297 150.34,-261 252.34,-261 252.34,-297"/>
<text text-anchor="middle" x="201.34" y="-275.3" font-family="Times New Roman,serif" font-size="14.00">item&#45;take&#45;home</text>
</g>
<!-- vendor&#45;available&#45;&gt;item&#45;take&#45;home -->
<g id="edge1" class="edge">
<title>vendor&#45;available&#45;&gt;item&#45;take&#45;home</title>
<path fill="none" stroke="black" d="M172.45,-348.21C177.5,-336.29 184.37,-320.06 190.15,-306.42"/>
<polygon fill="black" stroke="black" points="193.44,-307.62 194.12,-297.05 187,-304.89 193.44,-307.62"/>
<text text-anchor="middle" x="196.84" y="-318.8" font-family="Times New Roman,serif" font-size="14.00">{y}</text>
</g>
<!-- client&#45;with&#45;item -->
<g id="node2" class="node">
<title>client&#45;with&#45;item</title>
<ellipse fill="none" stroke="black" cx="237.34" cy="-366" rx="27" ry="18"/>
</g>
<!-- client&#45;with&#45;item&#45;&gt;item&#45;take&#45;home -->
<g id="edge2" class="edge">
<title>client&#45;with&#45;item&#45;&gt;item&#45;take&#45;home</title>
<path fill="none" stroke="black" d="M230.23,-348.21C225.18,-336.29 218.31,-320.06 212.53,-306.42"/>
<polygon fill="black" stroke="black" points="215.69,-304.89 208.56,-297.05 209.24,-307.62 215.69,-304.89"/>
<text text-anchor="middle" x="236.84" y="-318.8" font-family="Times New Roman,serif" font-size="14.00">{x,z}</text>
</g>
<!-- vendor&#45;with&#45;item -->
<g id="node3" class="node">
<title>vendor&#45;with&#45;item</title>
<ellipse fill="none" stroke="black" cx="90.34" cy="-192" rx="90.18" ry="18"/>
<text text-anchor="middle" x="90.34" y="-188.3" font-family="Times New Roman,serif" font-size="14.00">(V1,shoes) (V2,shirt) </text>
</g>
<!-- vendor&#45;packs&#45;item -->
<g id="node8" class="node">
<title>vendor&#45;packs&#45;item</title>
<polygon fill="none" stroke="black" points="150.84,-123 29.84,-123 29.84,-87 150.84,-87 150.84,-123"/>
<text text-anchor="middle" x="90.34" y="-101.3" font-family="Times New Roman,serif" font-size="14.00">vendor&#45;packs&#45;item</text>
</g>
<!-- vendor&#45;with&#45;item&#45;&gt;vendor&#45;packs&#45;item -->
<g id="edge5" class="edge">
<title>vendor&#45;with&#45;item&#45;&gt;vendor&#45;packs&#45;item</title>
<path fill="none" stroke="black" d="M90.34,-173.8C90.34,-162.16 90.34,-146.55 90.34,-133.24"/>
<polygon fill="black" stroke="black" points="93.84,-133.18 90.34,-123.18 86.84,-133.18 93.84,-133.18"/>
<text text-anchor="middle" x="105.84" y="-144.8" font-family="Times New Roman,serif" font-size="14.00">{y,z}</text>
</g>
<!-- client&#45;with&#45;money -->
<g id="node4" class="node">
<title>client&#45;with&#45;money</title>
<ellipse fill="none" stroke="black" cx="312.34" cy="-192" rx="113.98" ry="18"/>
<text text-anchor="middle" x="312.34" y="-188.3" font-family="Times New Roman,serif" font-size="14.00">(Bob,120Eur) (Alice,50Eur) </text>
</g>
<!-- client&#45;pays -->
<g id="node9" class="node">
<title>client&#45;pays</title>
<polygon fill="none" stroke="black" points="350.84,-123 273.84,-123 273.84,-87 350.84,-87 350.84,-123"/>
<text text-anchor="middle" x="312.34" y="-101.3" font-family="Times New Roman,serif" font-size="14.00">client&#45;pays</text>
</g>
<!-- client&#45;with&#45;money&#45;&gt;client&#45;pays -->
<g id="edge7" class="edge">
<title>client&#45;with&#45;money&#45;&gt;client&#45;pays</title>
<path fill="none" stroke="black" d="M312.34,-173.8C312.34,-162.16 312.34,-146.55 312.34,-133.24"/>
<polygon fill="black" stroke="black" points="315.84,-133.18 312.34,-123.18 308.84,-133.18 315.84,-133.18"/>
<text text-anchor="middle" x="329.84" y="-144.8" font-family="Times New Roman,serif" font-size="14.00">{x,m}</text>
</g>
<!-- vendor&#45;packed&#45;item -->
<g id="node5" class="node">
<title>vendor&#45;packed&#45;item</title>
<ellipse fill="none" stroke="black" cx="90.34" cy="-18" rx="27" ry="18"/>
</g>
<!-- client&#45;with&#45;voucher -->
<g id="node6" class="node">
<title>client&#45;with&#45;voucher</title>
<ellipse fill="none" stroke="black" cx="312.34" cy="-18" rx="27" ry="18"/>
</g>
<!-- item&#45;take&#45;home&#45;&gt;vendor&#45;with&#45;item -->
<g id="edge3" class="edge">
<title>item&#45;take&#45;home&#45;&gt;vendor&#45;with&#45;item</title>
<path fill="none" stroke="black" d="M178.88,-260.8C161.96,-247.84 138.6,-229.95 120.12,-215.8"/>
<polygon fill="black" stroke="black" points="122.08,-212.9 112.02,-209.6 117.83,-218.46 122.08,-212.9"/>
<text text-anchor="middle" x="168.84" y="-231.8" font-family="Times New Roman,serif" font-size="14.00">{y,z}</text>
</g>
<!-- item&#45;take&#45;home&#45;&gt;client&#45;with&#45;money -->
<g id="edge4" class="edge">
<title>item&#45;take&#45;home&#45;&gt;client&#45;with&#45;money</title>
<path fill="none" stroke="black" d="M223.8,-260.8C240.61,-247.93 263.78,-230.19 282.2,-216.08"/>
<polygon fill="black" stroke="black" points="284.48,-218.74 290.29,-209.89 280.22,-213.19 284.48,-218.74"/>
<text text-anchor="middle" x="280.84" y="-231.8" font-family="Times New Roman,serif" font-size="14.00">{x,m}</text>
</g>
<!-- vendor&#45;packs&#45;item&#45;&gt;vendor&#45;packed&#45;item -->
<g id="edge6" class="edge">
<title>vendor&#45;packs&#45;item&#45;&gt;vendor&#45;packed&#45;item</title>
<path fill="none" stroke="black" d="M90.34,-86.8C90.34,-75.16 90.34,-59.55 90.34,-46.24"/>
<polygon fill="black" stroke="black" points="93.84,-46.18 90.34,-36.18 86.84,-46.18 93.84,-46.18"/>
<text text-anchor="middle" x="109.34" y="-57.8" font-family="Times New Roman,serif" font-size="14.00">{y,pz}</text>
</g>
<!-- client&#45;pays&#45;&gt;client&#45;with&#45;voucher -->
<g id="edge8" class="edge">
<title>client&#45;pays&#45;&gt;client&#45;with&#45;voucher</title>
<path fill="none" stroke="black" d="M312.34,-86.8C312.34,-75.16 312.34,-59.55 312.34,-46.24"/>
<polygon fill="black" stroke="black" points="315.84,-46.18 312.34,-36.18 308.84,-46.18 315.84,-46.18"/>
<text text-anchor="middle" x="322.84" y="-57.8" font-family="Times New Roman,serif" font-size="14.00">{x}</text>
</g>
</g>
</svg>
