<?xml version="1.0" encoding="UTF-8" standalone="no"?>
<!DOCTYPE svg PUBLIC "-//W3C//DTD SVG 1.1//EN"
 "http://www.w3.org/Graphics/SVG/1.1/DTD/svg11.dtd">
<!-- Generated by graphviz version 5.0.0 (20220707.1540)
 -->
<!-- Title: G Pages: 1 -->
<svg width="266pt" height="392pt"
 viewBox="0.00 0.00 266.39 392.00" xmlns="http://www.w3.org/2000/svg" xmlns:xlink="http://www.w3.org/1999/xlink">
<g id="graph0" class="graph" transform="scale(1 1) rotate(0) translate(4 388)">
<title>G</title>
<polygon fill="white" stroke="transparent" points="-4,4 -4,-388 262.39,-388 262.39,4 -4,4"/>
<!-- vendor&#45;available -->
<g id="node1" class="node">
<title>vendor&#45;available</title>
<ellipse fill="none" stroke="black" cx="87.34" cy="-366" rx="29.8" ry="18"/>
<text text-anchor="middle" x="87.34" y="-362.3" font-family="Times New Roman,serif" font-size="14.00">(V2) </text>
</g>
<!-- item&#45;take&#45;home -->
<g id="node7" class="node">
<title>item&#45;take&#45;home</title>
<polygon fill="none" stroke="black" points="190.34,-297 88.34,-297 88.34,-261 190.34,-261 190.34,-297"/>
<text text-anchor="middle" x="139.34" y="-275.3" font-family="Times New Roman,serif" font-size="14.00">item&#45;take&#45;home</text>
</g>
<!-- vendor&#45;available&#45;&gt;item&#45;take&#45;home -->
<g id="edge1" class="edge">
<title>vendor&#45;available&#45;&gt;item&#45;take&#45;home</title>
<path fill="none" stroke="black" d="M97.37,-348.61C104.78,-336.5 115.01,-319.77 123.52,-305.87"/>
<polygon fill="black" stroke="black" points="126.58,-307.57 128.81,-297.21 120.61,-303.92 126.58,-307.57"/>
<text text-anchor="middle" x="127.84" y="-318.8" font-family="Times New Roman,serif" font-size="14.00">{y}</text>
</g>
<!-- client&#45;with&#45;item -->
<g id="node2" class="node">
<title>client&#45;with&#45;item</title>
<ellipse fill="none" stroke="black" cx="191.34" cy="-366" rx="55.79" ry="18"/>
<text text-anchor="middle" x="191.34" y="-362.3" font-family="Times New Roman,serif" font-size="14.00">(Alice,shirt) </text>
</g>
<!-- client&#45;with&#45;item&#45;&gt;item&#45;take&#45;home -->
<g id="edge2" class="edge">
<title>client&#45;with&#45;item&#45;&gt;item&#45;take&#45;home</title>
<path fill="none" stroke="black" d="M181.07,-348.21C173.64,-336.06 163.47,-319.43 155.02,-305.63"/>
<polygon fill="black" stroke="black" points="157.98,-303.75 149.77,-297.05 152.01,-307.41 157.98,-303.75"/>
<text text-anchor="middle" x="183.84" y="-318.8" font-family="Times New Roman,serif" font-size="14.00">{x,z}</text>
</g>
<!-- vendor&#45;with&#45;item -->
<g id="node3" class="node">
<title>vendor&#45;with&#45;item</title>
<ellipse fill="none" stroke="black" cx="85.34" cy="-192" rx="27" ry="18"/>
</g>
<!-- vendor&#45;packs&#45;item -->
<g id="node8" class="node">
<title>vendor&#45;packs&#45;item</title>
<polygon fill="none" stroke="black" points="139.84,-123 18.84,-123 18.84,-87 139.84,-87 139.84,-123"/>
<text text-anchor="middle" x="79.34" y="-101.3" font-family="Times New Roman,serif" font-size="14.00">vendor&#45;packs&#45;item</text>
</g>
<!-- vendor&#45;with&#45;item&#45;&gt;vendor&#45;packs&#45;item -->
<g id="edge5" class="edge">
<title>vendor&#45;with&#45;item&#45;&gt;vendor&#45;packs&#45;item</title>
<path fill="none" stroke="black" d="M84.13,-173.8C83.31,-162.16 82.21,-146.55 81.27,-133.24"/>
<polygon fill="black" stroke="black" points="84.75,-132.9 80.56,-123.18 77.77,-133.4 84.75,-132.9"/>
<text text-anchor="middle" x="98.84" y="-144.8" font-family="Times New Roman,serif" font-size="14.00">{y,z}</text>
</g>
<!-- client&#45;with&#45;money -->
<g id="node4" class="node">
<title>client&#45;with&#45;money</title>
<ellipse fill="none" stroke="black" cx="195.34" cy="-192" rx="63.09" ry="18"/>
<text text-anchor="middle" x="195.34" y="-188.3" font-family="Times New Roman,serif" font-size="14.00">(Bob,120Eur) </text>
</g>
<!-- client&#45;pays -->
<g id="node9" class="node">
<title>client&#45;pays</title>
<polygon fill="none" stroke="black" points="236.84,-123 159.84,-123 159.84,-87 236.84,-87 236.84,-123"/>
<text text-anchor="middle" x="198.34" y="-101.3" font-family="Times New Roman,serif" font-size="14.00">client&#45;pays</text>
</g>
<!-- client&#45;with&#45;money&#45;&gt;client&#45;pays -->
<g id="edge7" class="edge">
<title>client&#45;with&#45;money&#45;&gt;client&#45;pays</title>
<path fill="none" stroke="black" d="M195.95,-173.8C196.36,-162.16 196.91,-146.55 197.38,-133.24"/>
<polygon fill="black" stroke="black" points="200.88,-133.29 197.74,-123.18 193.89,-133.05 200.88,-133.29"/>
<text text-anchor="middle" x="213.84" y="-144.8" font-family="Times New Roman,serif" font-size="14.00">{x,m}</text>
</g>
<!-- vendor&#45;packed&#45;item -->
<g id="node5" class="node">
<title>vendor&#45;packed&#45;item</title>
<ellipse fill="none" stroke="black" cx="77.34" cy="-18" rx="77.19" ry="18"/>
<text text-anchor="middle" x="77.34" y="-14.3" font-family="Times New Roman,serif" font-size="14.00">(V1,packs&#45;shoes) </text>
</g>
<!-- client&#45;with&#45;voucher -->
<g id="node6" class="node">
<title>client&#45;with&#45;voucher</title>
<ellipse fill="none" stroke="black" cx="199.34" cy="-18" rx="27" ry="18"/>
</g>
<!-- item&#45;take&#45;home&#45;&gt;vendor&#45;with&#45;item -->
<g id="edge3" class="edge">
<title>item&#45;take&#45;home&#45;&gt;vendor&#45;with&#45;item</title>
<path fill="none" stroke="black" d="M128.42,-260.8C120.48,-248.3 109.63,-231.22 100.8,-217.33"/>
<polygon fill="black" stroke="black" points="103.66,-215.31 95.34,-208.74 97.75,-219.06 103.66,-215.31"/>
<text text-anchor="middle" x="131.84" y="-231.8" font-family="Times New Roman,serif" font-size="14.00">{y,z}</text>
</g>
<!-- item&#45;take&#45;home&#45;&gt;client&#45;with&#45;money -->
<g id="edge4" class="edge">
<title>item&#45;take&#45;home&#45;&gt;client&#45;with&#45;money</title>
<path fill="none" stroke="black" d="M150.68,-260.8C158.7,-248.62 169.59,-232.09 178.61,-218.4"/>
<polygon fill="black" stroke="black" points="181.64,-220.16 184.22,-209.89 175.79,-216.31 181.64,-220.16"/>
<text text-anchor="middle" x="187.84" y="-231.8" font-family="Times New Roman,serif" font-size="14.00">{x,m}</text>
</g>
<!-- vendor&#45;packs&#45;item&#45;&gt;vendor&#45;packed&#45;item -->
<g id="edge6" class="edge">
<title>vendor&#45;packs&#45;item&#45;&gt;vendor&#45;packed&#45;item</title>
<path fill="none" stroke="black" d="M78.94,-86.8C78.66,-75.16 78.3,-59.55 77.98,-46.24"/>
<polygon fill="black" stroke="black" points="81.48,-46.09 77.75,-36.18 74.48,-46.26 81.48,-46.09"/>
<text text-anchor="middle" x="98.34" y="-57.8" font-family="Times New Roman,serif" font-size="14.00">{y,pz}</text>
</g>
<!-- client&#45;pays&#45;&gt;client&#45;with&#45;voucher -->
<g id="edge8" class="edge">
<title>client&#45;pays&#45;&gt;client&#45;with&#45;voucher</title>
<path fill="none" stroke="black" d="M198.55,-86.8C198.68,-75.16 198.87,-59.55 199.02,-46.24"/>
<polygon fill="black" stroke="black" points="202.52,-46.22 199.14,-36.18 195.52,-46.13 202.52,-46.22"/>
<text text-anchor="middle" x="208.84" y="-57.8" font-family="Times New Roman,serif" font-size="14.00">{x}</text>
</g>
</g>
</svg>
