<?xml version="1.0" encoding="UTF-8" standalone="no"?>
<!DOCTYPE svg PUBLIC "-//W3C//DTD SVG 1.1//EN"
 "http://www.w3.org/Graphics/SVG/1.1/DTD/svg11.dtd">
<!-- Generated by graphviz version 5.0.0 (20220707.1540)
 -->
<!-- Title: G Pages: 1 -->
<svg width="441pt" height="392pt"
 viewBox="0.00 0.00 440.83 392.00" xmlns="http://www.w3.org/2000/svg" xmlns:xlink="http://www.w3.org/1999/xlink">
<g id="graph0" class="graph" transform="scale(1 1) rotate(0) translate(4 388)">
<title>G</title>
<polygon fill="white" stroke="transparent" points="-4,4 -4,-388 436.83,-388 436.83,4 -4,4"/>
<!-- vendor&#45;available -->
<g id="node1" class="node">
<title>vendor&#45;available</title>
<ellipse fill="none" stroke="black" cx="201.09" cy="-366" rx="27" ry="18"/>
</g>
<!-- item&#45;take&#45;home -->
<g id="node7" class="node">
<title>item&#45;take&#45;home</title>
<polygon fill="none" stroke="black" points="288.09,-297 186.09,-297 186.09,-261 288.09,-261 288.09,-297"/>
<text text-anchor="middle" x="237.09" y="-275.3" font-family="Times New Roman,serif" font-size="14.00">item&#45;take&#45;home</text>
</g>
<!-- vendor&#45;available&#45;&gt;item&#45;take&#45;home -->
<g id="edge1" class="edge">
<title>vendor&#45;available&#45;&gt;item&#45;take&#45;home</title>
<path fill="none" stroke="black" d="M208.2,-348.21C213.25,-336.29 220.12,-320.06 225.9,-306.42"/>
<polygon fill="black" stroke="black" points="229.19,-307.62 229.87,-297.05 222.74,-304.89 229.19,-307.62"/>
<text text-anchor="middle" x="232.59" y="-318.8" font-family="Times New Roman,serif" font-size="14.00">{y}</text>
</g>
<!-- client&#45;with&#45;item -->
<g id="node2" class="node">
<title>client&#45;with&#45;item</title>
<ellipse fill="none" stroke="black" cx="273.09" cy="-366" rx="27" ry="18"/>
</g>
<!-- client&#45;with&#45;item&#45;&gt;item&#45;take&#45;home -->
<g id="edge2" class="edge">
<title>client&#45;with&#45;item&#45;&gt;item&#45;take&#45;home</title>
<path fill="none" stroke="black" d="M265.98,-348.21C260.93,-336.29 254.06,-320.06 248.28,-306.42"/>
<polygon fill="black" stroke="black" points="251.43,-304.89 244.31,-297.05 244.99,-307.62 251.43,-304.89"/>
<text text-anchor="middle" x="272.59" y="-318.8" font-family="Times New Roman,serif" font-size="14.00">{x,z}</text>
</g>
<!-- vendor&#45;with&#45;item -->
<g id="node3" class="node">
<title>vendor&#45;with&#45;item</title>
<ellipse fill="none" stroke="black" cx="158.09" cy="-192" rx="27" ry="18"/>
</g>
<!-- vendor&#45;packs&#45;item -->
<g id="node8" class="node">
<title>vendor&#45;packs&#45;item</title>
<polygon fill="none" stroke="black" points="205.59,-123 84.59,-123 84.59,-87 205.59,-87 205.59,-123"/>
<text text-anchor="middle" x="145.09" y="-101.3" font-family="Times New Roman,serif" font-size="14.00">vendor&#45;packs&#45;item</text>
</g>
<!-- vendor&#45;with&#45;item&#45;&gt;vendor&#45;packs&#45;item -->
<g id="edge5" class="edge">
<title>vendor&#45;with&#45;item&#45;&gt;vendor&#45;packs&#45;item</title>
<path fill="none" stroke="black" d="M155.46,-173.8C153.68,-162.16 151.29,-146.55 149.25,-133.24"/>
<polygon fill="black" stroke="black" points="152.69,-132.53 147.71,-123.18 145.77,-133.59 152.69,-132.53"/>
<text text-anchor="middle" x="168.59" y="-144.8" font-family="Times New Roman,serif" font-size="14.00">{y,z}</text>
</g>
<!-- client&#45;with&#45;money -->
<g id="node4" class="node">
<title>client&#45;with&#45;money</title>
<ellipse fill="none" stroke="black" cx="319.09" cy="-192" rx="113.98" ry="18"/>
<text text-anchor="middle" x="319.09" y="-188.3" font-family="Times New Roman,serif" font-size="14.00">(Alice,50Eur) (Bob,120Eur) </text>
</g>
<!-- client&#45;pays -->
<g id="node9" class="node">
<title>client&#45;pays</title>
<polygon fill="none" stroke="black" points="361.59,-123 284.59,-123 284.59,-87 361.59,-87 361.59,-123"/>
<text text-anchor="middle" x="323.09" y="-101.3" font-family="Times New Roman,serif" font-size="14.00">client&#45;pays</text>
</g>
<!-- client&#45;with&#45;money&#45;&gt;client&#45;pays -->
<g id="edge7" class="edge">
<title>client&#45;with&#45;money&#45;&gt;client&#45;pays</title>
<path fill="none" stroke="black" d="M319.9,-173.8C320.44,-162.16 321.18,-146.55 321.81,-133.24"/>
<polygon fill="black" stroke="black" points="325.31,-133.33 322.28,-123.18 318.31,-133 325.31,-133.33"/>
<text text-anchor="middle" x="338.59" y="-144.8" font-family="Times New Roman,serif" font-size="14.00">{x,m}</text>
</g>
<!-- vendor&#45;packed&#45;item -->
<g id="node5" class="node">
<title>vendor&#45;packed&#45;item</title>
<ellipse fill="none" stroke="black" cx="139.09" cy="-18" rx="139.18" ry="18"/>
<text text-anchor="middle" x="139.09" y="-14.3" font-family="Times New Roman,serif" font-size="14.00">(V1,packs&#45;shirt) (V2,packs&#45;shoes) </text>
</g>
<!-- client&#45;with&#45;voucher -->
<g id="node6" class="node">
<title>client&#45;with&#45;voucher</title>
<ellipse fill="none" stroke="black" cx="323.09" cy="-18" rx="27" ry="18"/>
</g>
<!-- item&#45;take&#45;home&#45;&gt;vendor&#45;with&#45;item -->
<g id="edge3" class="edge">
<title>item&#45;take&#45;home&#45;&gt;vendor&#45;with&#45;item</title>
<path fill="none" stroke="black" d="M221.1,-260.8C208.85,-247.62 191.86,-229.34 178.61,-215.08"/>
<polygon fill="black" stroke="black" points="181.05,-212.57 171.68,-207.63 175.93,-217.33 181.05,-212.57"/>
<text text-anchor="middle" x="218.59" y="-231.8" font-family="Times New Roman,serif" font-size="14.00">{y,z}</text>
</g>
<!-- item&#45;take&#45;home&#45;&gt;client&#45;with&#45;money -->
<g id="edge4" class="edge">
<title>item&#45;take&#45;home&#45;&gt;client&#45;with&#45;money</title>
<path fill="none" stroke="black" d="M253.68,-260.8C265.76,-248.27 282.29,-231.14 295.71,-217.23"/>
<polygon fill="black" stroke="black" points="298.37,-219.51 302.8,-209.89 293.34,-214.65 298.37,-219.51"/>
<text text-anchor="middle" x="299.59" y="-231.8" font-family="Times New Roman,serif" font-size="14.00">{x,m}</text>
</g>
<!-- vendor&#45;packs&#45;item&#45;&gt;vendor&#45;packed&#45;item -->
<g id="edge6" class="edge">
<title>vendor&#45;packs&#45;item&#45;&gt;vendor&#45;packed&#45;item</title>
<path fill="none" stroke="black" d="M143.87,-86.8C143.05,-75.16 141.95,-59.55 141.01,-46.24"/>
<polygon fill="black" stroke="black" points="144.5,-45.9 140.3,-36.18 137.51,-46.4 144.5,-45.9"/>
<text text-anchor="middle" x="162.09" y="-57.8" font-family="Times New Roman,serif" font-size="14.00">{y,pz}</text>
</g>
<!-- client&#45;pays&#45;&gt;client&#45;with&#45;voucher -->
<g id="edge8" class="edge">
<title>client&#45;pays&#45;&gt;client&#45;with&#45;voucher</title>
<path fill="none" stroke="black" d="M323.09,-86.8C323.09,-75.16 323.09,-59.55 323.09,-46.24"/>
<polygon fill="black" stroke="black" points="326.59,-46.18 323.09,-36.18 319.59,-46.18 326.59,-46.18"/>
<text text-anchor="middle" x="333.59" y="-57.8" font-family="Times New Roman,serif" font-size="14.00">{x}</text>
</g>
</g>
</svg>
