<?xml version="1.0" encoding="UTF-8" standalone="no"?>
<!DOCTYPE svg PUBLIC "-//W3C//DTD SVG 1.1//EN"
 "http://www.w3.org/Graphics/SVG/1.1/DTD/svg11.dtd">
<!-- Generated by graphviz version 5.0.0 (20220707.1540)
 -->
<!-- Title: G Pages: 1 -->
<svg width="277pt" height="392pt"
 viewBox="0.00 0.00 277.19 392.00" xmlns="http://www.w3.org/2000/svg" xmlns:xlink="http://www.w3.org/1999/xlink">
<g id="graph0" class="graph" transform="scale(1 1) rotate(0) translate(4 388)">
<title>G</title>
<polygon fill="white" stroke="transparent" points="-4,4 -4,-388 273.19,-388 273.19,4 -4,4"/>
<!-- vendor&#45;available -->
<g id="node1" class="node">
<title>vendor&#45;available</title>
<ellipse fill="none" stroke="black" cx="103.14" cy="-366" rx="27" ry="18"/>
</g>
<!-- item&#45;take&#45;home -->
<g id="node7" class="node">
<title>item&#45;take&#45;home</title>
<polygon fill="none" stroke="black" points="190.14,-297 88.14,-297 88.14,-261 190.14,-261 190.14,-297"/>
<text text-anchor="middle" x="139.14" y="-275.3" font-family="Times New Roman,serif" font-size="14.00">item&#45;take&#45;home</text>
</g>
<!-- vendor&#45;available&#45;&gt;item&#45;take&#45;home -->
<g id="edge1" class="edge">
<title>vendor&#45;available&#45;&gt;item&#45;take&#45;home</title>
<path fill="none" stroke="black" d="M110.26,-348.21C115.3,-336.29 122.18,-320.06 127.95,-306.42"/>
<polygon fill="black" stroke="black" points="131.25,-307.62 131.92,-297.05 124.8,-304.89 131.25,-307.62"/>
<text text-anchor="middle" x="134.64" y="-318.8" font-family="Times New Roman,serif" font-size="14.00">{y}</text>
</g>
<!-- client&#45;with&#45;item -->
<g id="node2" class="node">
<title>client&#45;with&#45;item</title>
<ellipse fill="none" stroke="black" cx="175.14" cy="-366" rx="27" ry="18"/>
</g>
<!-- client&#45;with&#45;item&#45;&gt;item&#45;take&#45;home -->
<g id="edge2" class="edge">
<title>client&#45;with&#45;item&#45;&gt;item&#45;take&#45;home</title>
<path fill="none" stroke="black" d="M168.03,-348.21C162.99,-336.29 156.11,-320.06 150.34,-306.42"/>
<polygon fill="black" stroke="black" points="153.49,-304.89 146.36,-297.05 147.04,-307.62 153.49,-304.89"/>
<text text-anchor="middle" x="174.64" y="-318.8" font-family="Times New Roman,serif" font-size="14.00">{x,z}</text>
</g>
<!-- vendor&#45;with&#45;item -->
<g id="node3" class="node">
<title>vendor&#45;with&#45;item</title>
<ellipse fill="none" stroke="black" cx="72.14" cy="-192" rx="53.09" ry="18"/>
<text text-anchor="middle" x="72.14" y="-188.3" font-family="Times New Roman,serif" font-size="14.00">(V2,shoes) </text>
</g>
<!-- vendor&#45;packs&#45;item -->
<g id="node8" class="node">
<title>vendor&#45;packs&#45;item</title>
<polygon fill="none" stroke="black" points="132.64,-123 11.64,-123 11.64,-87 132.64,-87 132.64,-123"/>
<text text-anchor="middle" x="72.14" y="-101.3" font-family="Times New Roman,serif" font-size="14.00">vendor&#45;packs&#45;item</text>
</g>
<!-- vendor&#45;with&#45;item&#45;&gt;vendor&#45;packs&#45;item -->
<g id="edge5" class="edge">
<title>vendor&#45;with&#45;item&#45;&gt;vendor&#45;packs&#45;item</title>
<path fill="none" stroke="black" d="M72.14,-173.8C72.14,-162.16 72.14,-146.55 72.14,-133.24"/>
<polygon fill="black" stroke="black" points="75.64,-133.18 72.14,-123.18 68.64,-133.18 75.64,-133.18"/>
<text text-anchor="middle" x="87.64" y="-144.8" font-family="Times New Roman,serif" font-size="14.00">{y,z}</text>
</g>
<!-- client&#45;with&#45;money -->
<g id="node4" class="node">
<title>client&#45;with&#45;money</title>
<ellipse fill="none" stroke="black" cx="206.14" cy="-192" rx="63.09" ry="18"/>
<text text-anchor="middle" x="206.14" y="-188.3" font-family="Times New Roman,serif" font-size="14.00">(Bob,120Eur) </text>
</g>
<!-- client&#45;pays -->
<g id="node9" class="node">
<title>client&#45;pays</title>
<polygon fill="none" stroke="black" points="244.64,-123 167.64,-123 167.64,-87 244.64,-87 244.64,-123"/>
<text text-anchor="middle" x="206.14" y="-101.3" font-family="Times New Roman,serif" font-size="14.00">client&#45;pays</text>
</g>
<!-- client&#45;with&#45;money&#45;&gt;client&#45;pays -->
<g id="edge7" class="edge">
<title>client&#45;with&#45;money&#45;&gt;client&#45;pays</title>
<path fill="none" stroke="black" d="M206.14,-173.8C206.14,-162.16 206.14,-146.55 206.14,-133.24"/>
<polygon fill="black" stroke="black" points="209.64,-133.18 206.14,-123.18 202.64,-133.18 209.64,-133.18"/>
<text text-anchor="middle" x="223.64" y="-144.8" font-family="Times New Roman,serif" font-size="14.00">{x,m}</text>
</g>
<!-- vendor&#45;packed&#45;item -->
<g id="node5" class="node">
<title>vendor&#45;packed&#45;item</title>
<ellipse fill="none" stroke="black" cx="72.14" cy="-18" rx="72.29" ry="18"/>
<text text-anchor="middle" x="72.14" y="-14.3" font-family="Times New Roman,serif" font-size="14.00">(V1,packs&#45;shirt) </text>
</g>
<!-- client&#45;with&#45;voucher -->
<g id="node6" class="node">
<title>client&#45;with&#45;voucher</title>
<ellipse fill="none" stroke="black" cx="206.14" cy="-18" rx="37.89" ry="18"/>
<text text-anchor="middle" x="206.14" y="-14.3" font-family="Times New Roman,serif" font-size="14.00">(Alice) </text>
</g>
<!-- item&#45;take&#45;home&#45;&gt;vendor&#45;with&#45;item -->
<g id="edge3" class="edge">
<title>item&#45;take&#45;home&#45;&gt;vendor&#45;with&#45;item</title>
<path fill="none" stroke="black" d="M125.59,-260.8C115.83,-248.43 102.53,-231.55 91.64,-217.74"/>
<polygon fill="black" stroke="black" points="94.17,-215.28 85.23,-209.6 88.67,-219.62 94.17,-215.28"/>
<text text-anchor="middle" x="125.64" y="-231.8" font-family="Times New Roman,serif" font-size="14.00">{y,z}</text>
</g>
<!-- item&#45;take&#45;home&#45;&gt;client&#45;with&#45;money -->
<g id="edge4" class="edge">
<title>item&#45;take&#45;home&#45;&gt;client&#45;with&#45;money</title>
<path fill="none" stroke="black" d="M152.7,-260.8C162.39,-248.51 175.58,-231.77 186.43,-218.01"/>
<polygon fill="black" stroke="black" points="189.39,-219.91 192.83,-209.89 183.89,-215.57 189.39,-219.91"/>
<text text-anchor="middle" x="193.64" y="-231.8" font-family="Times New Roman,serif" font-size="14.00">{x,m}</text>
</g>
<!-- vendor&#45;packs&#45;item&#45;&gt;vendor&#45;packed&#45;item -->
<g id="edge6" class="edge">
<title>vendor&#45;packs&#45;item&#45;&gt;vendor&#45;packed&#45;item</title>
<path fill="none" stroke="black" d="M72.14,-86.8C72.14,-75.16 72.14,-59.55 72.14,-46.24"/>
<polygon fill="black" stroke="black" points="75.64,-46.18 72.14,-36.18 68.64,-46.18 75.64,-46.18"/>
<text text-anchor="middle" x="91.14" y="-57.8" font-family="Times New Roman,serif" font-size="14.00">{y,pz}</text>
</g>
<!-- client&#45;pays&#45;&gt;client&#45;with&#45;voucher -->
<g id="edge8" class="edge">
<title>client&#45;pays&#45;&gt;client&#45;with&#45;voucher</title>
<path fill="none" stroke="black" d="M206.14,-86.8C206.14,-75.16 206.14,-59.55 206.14,-46.24"/>
<polygon fill="black" stroke="black" points="209.64,-46.18 206.14,-36.18 202.64,-46.18 209.64,-46.18"/>
<text text-anchor="middle" x="216.64" y="-57.8" font-family="Times New Roman,serif" font-size="14.00">{x}</text>
</g>
</g>
</svg>
