<?xml version="1.0" encoding="UTF-8" standalone="no"?>
<!DOCTYPE svg PUBLIC "-//W3C//DTD SVG 1.1//EN"
 "http://www.w3.org/Graphics/SVG/1.1/DTD/svg11.dtd">
<!-- Generated by graphviz version 5.0.0 (20220707.1540)
 -->
<!-- Title: G Pages: 1 -->
<svg width="281pt" height="392pt"
 viewBox="0.00 0.00 281.39 392.00" xmlns="http://www.w3.org/2000/svg" xmlns:xlink="http://www.w3.org/1999/xlink">
<g id="graph0" class="graph" transform="scale(1 1) rotate(0) translate(4 388)">
<title>G</title>
<polygon fill="white" stroke="transparent" points="-4,4 -4,-388 277.39,-388 277.39,4 -4,4"/>
<!-- vendor&#45;available -->
<g id="node1" class="node">
<title>vendor&#45;available</title>
<ellipse fill="none" stroke="black" cx="109.34" cy="-366" rx="27" ry="18"/>
</g>
<!-- item&#45;take&#45;home -->
<g id="node7" class="node">
<title>item&#45;take&#45;home</title>
<polygon fill="none" stroke="black" points="196.34,-297 94.34,-297 94.34,-261 196.34,-261 196.34,-297"/>
<text text-anchor="middle" x="145.34" y="-275.3" font-family="Times New Roman,serif" font-size="14.00">item&#45;take&#45;home</text>
</g>
<!-- vendor&#45;available&#45;&gt;item&#45;take&#45;home -->
<g id="edge1" class="edge">
<title>vendor&#45;available&#45;&gt;item&#45;take&#45;home</title>
<path fill="none" stroke="black" d="M116.46,-348.21C121.5,-336.29 128.38,-320.06 134.15,-306.42"/>
<polygon fill="black" stroke="black" points="137.45,-307.62 138.12,-297.05 131,-304.89 137.45,-307.62"/>
<text text-anchor="middle" x="140.84" y="-318.8" font-family="Times New Roman,serif" font-size="14.00">{y}</text>
</g>
<!-- client&#45;with&#45;item -->
<g id="node2" class="node">
<title>client&#45;with&#45;item</title>
<ellipse fill="none" stroke="black" cx="181.34" cy="-366" rx="27" ry="18"/>
</g>
<!-- client&#45;with&#45;item&#45;&gt;item&#45;take&#45;home -->
<g id="edge2" class="edge">
<title>client&#45;with&#45;item&#45;&gt;item&#45;take&#45;home</title>
<path fill="none" stroke="black" d="M174.23,-348.21C169.19,-336.29 162.31,-320.06 156.53,-306.42"/>
<polygon fill="black" stroke="black" points="159.69,-304.89 152.56,-297.05 153.24,-307.62 159.69,-304.89"/>
<text text-anchor="middle" x="180.84" y="-318.8" font-family="Times New Roman,serif" font-size="14.00">{x,z}</text>
</g>
<!-- vendor&#45;with&#45;item -->
<g id="node3" class="node">
<title>vendor&#45;with&#45;item</title>
<ellipse fill="none" stroke="black" cx="81.34" cy="-192" rx="48.19" ry="18"/>
<text text-anchor="middle" x="81.34" y="-188.3" font-family="Times New Roman,serif" font-size="14.00">(V1,shirt) </text>
</g>
<!-- vendor&#45;packs&#45;item -->
<g id="node8" class="node">
<title>vendor&#45;packs&#45;item</title>
<polygon fill="none" stroke="black" points="138.84,-123 17.84,-123 17.84,-87 138.84,-87 138.84,-123"/>
<text text-anchor="middle" x="78.34" y="-101.3" font-family="Times New Roman,serif" font-size="14.00">vendor&#45;packs&#45;item</text>
</g>
<!-- vendor&#45;with&#45;item&#45;&gt;vendor&#45;packs&#45;item -->
<g id="edge5" class="edge">
<title>vendor&#45;with&#45;item&#45;&gt;vendor&#45;packs&#45;item</title>
<path fill="none" stroke="black" d="M80.74,-173.8C80.33,-162.16 79.77,-146.55 79.3,-133.24"/>
<polygon fill="black" stroke="black" points="82.8,-133.05 78.95,-123.18 75.8,-133.29 82.8,-133.05"/>
<text text-anchor="middle" x="95.84" y="-144.8" font-family="Times New Roman,serif" font-size="14.00">{y,z}</text>
</g>
<!-- client&#45;with&#45;money -->
<g id="node4" class="node">
<title>client&#45;with&#45;money</title>
<ellipse fill="none" stroke="black" cx="210.34" cy="-192" rx="63.09" ry="18"/>
<text text-anchor="middle" x="210.34" y="-188.3" font-family="Times New Roman,serif" font-size="14.00">(Bob,120Eur) </text>
</g>
<!-- client&#45;pays -->
<g id="node9" class="node">
<title>client&#45;pays</title>
<polygon fill="none" stroke="black" points="248.84,-123 171.84,-123 171.84,-87 248.84,-87 248.84,-123"/>
<text text-anchor="middle" x="210.34" y="-101.3" font-family="Times New Roman,serif" font-size="14.00">client&#45;pays</text>
</g>
<!-- client&#45;with&#45;money&#45;&gt;client&#45;pays -->
<g id="edge7" class="edge">
<title>client&#45;with&#45;money&#45;&gt;client&#45;pays</title>
<path fill="none" stroke="black" d="M210.34,-173.8C210.34,-162.16 210.34,-146.55 210.34,-133.24"/>
<polygon fill="black" stroke="black" points="213.84,-133.18 210.34,-123.18 206.84,-133.18 213.84,-133.18"/>
<text text-anchor="middle" x="227.84" y="-144.8" font-family="Times New Roman,serif" font-size="14.00">{x,m}</text>
</g>
<!-- vendor&#45;packed&#45;item -->
<g id="node5" class="node">
<title>vendor&#45;packed&#45;item</title>
<ellipse fill="none" stroke="black" cx="77.34" cy="-18" rx="77.19" ry="18"/>
<text text-anchor="middle" x="77.34" y="-14.3" font-family="Times New Roman,serif" font-size="14.00">(V2,packs&#45;shoes) </text>
</g>
<!-- client&#45;with&#45;voucher -->
<g id="node6" class="node">
<title>client&#45;with&#45;voucher</title>
<ellipse fill="none" stroke="black" cx="210.34" cy="-18" rx="37.89" ry="18"/>
<text text-anchor="middle" x="210.34" y="-14.3" font-family="Times New Roman,serif" font-size="14.00">(Alice) </text>
</g>
<!-- item&#45;take&#45;home&#45;&gt;vendor&#45;with&#45;item -->
<g id="edge3" class="edge">
<title>item&#45;take&#45;home&#45;&gt;vendor&#45;with&#45;item</title>
<path fill="none" stroke="black" d="M132.39,-260.8C123.08,-248.43 110.37,-231.55 99.97,-217.74"/>
<polygon fill="black" stroke="black" points="102.65,-215.48 93.84,-209.6 97.06,-219.69 102.65,-215.48"/>
<text text-anchor="middle" x="132.84" y="-231.8" font-family="Times New Roman,serif" font-size="14.00">{y,z}</text>
</g>
<!-- item&#45;take&#45;home&#45;&gt;client&#45;with&#45;money -->
<g id="edge4" class="edge">
<title>item&#45;take&#45;home&#45;&gt;client&#45;with&#45;money</title>
<path fill="none" stroke="black" d="M158.5,-260.8C167.9,-248.51 180.69,-231.77 191.22,-218.01"/>
<polygon fill="black" stroke="black" points="194.14,-219.96 197.43,-209.89 188.58,-215.7 194.14,-219.96"/>
<text text-anchor="middle" x="198.84" y="-231.8" font-family="Times New Roman,serif" font-size="14.00">{x,m}</text>
</g>
<!-- vendor&#45;packs&#45;item&#45;&gt;vendor&#45;packed&#45;item -->
<g id="edge6" class="edge">
<title>vendor&#45;packs&#45;item&#45;&gt;vendor&#45;packed&#45;item</title>
<path fill="none" stroke="black" d="M78.14,-86.8C78,-75.16 77.82,-59.55 77.66,-46.24"/>
<polygon fill="black" stroke="black" points="81.16,-46.13 77.55,-36.18 74.16,-46.22 81.16,-46.13"/>
<text text-anchor="middle" x="97.34" y="-57.8" font-family="Times New Roman,serif" font-size="14.00">{y,pz}</text>
</g>
<!-- client&#45;pays&#45;&gt;client&#45;with&#45;voucher -->
<g id="edge8" class="edge">
<title>client&#45;pays&#45;&gt;client&#45;with&#45;voucher</title>
<path fill="none" stroke="black" d="M210.34,-86.8C210.34,-75.16 210.34,-59.55 210.34,-46.24"/>
<polygon fill="black" stroke="black" points="213.84,-46.18 210.34,-36.18 206.84,-46.18 213.84,-46.18"/>
<text text-anchor="middle" x="220.84" y="-57.8" font-family="Times New Roman,serif" font-size="14.00">{x}</text>
</g>
</g>
</svg>
