<?xml version="1.0" encoding="UTF-8" standalone="no"?>
<!DOCTYPE svg PUBLIC "-//W3C//DTD SVG 1.1//EN"
 "http://www.w3.org/Graphics/SVG/1.1/DTD/svg11.dtd">
<!-- Generated by graphviz version 5.0.0 (20220707.1540)
 -->
<!-- Title: G Pages: 1 -->
<svg width="277pt" height="392pt"
 viewBox="0.00 0.00 277.09 392.00" xmlns="http://www.w3.org/2000/svg" xmlns:xlink="http://www.w3.org/1999/xlink">
<g id="graph0" class="graph" transform="scale(1 1) rotate(0) translate(4 388)">
<title>G</title>
<polygon fill="white" stroke="transparent" points="-4,4 -4,-388 273.09,-388 273.09,4 -4,4"/>
<!-- vendor&#45;available -->
<g id="node1" class="node">
<title>vendor&#45;available</title>
<ellipse fill="none" stroke="black" cx="107.34" cy="-366" rx="27" ry="18"/>
</g>
<!-- item&#45;take&#45;home -->
<g id="node7" class="node">
<title>item&#45;take&#45;home</title>
<polygon fill="none" stroke="black" points="194.34,-297 92.34,-297 92.34,-261 194.34,-261 194.34,-297"/>
<text text-anchor="middle" x="143.34" y="-275.3" font-family="Times New Roman,serif" font-size="14.00">item&#45;take&#45;home</text>
</g>
<!-- vendor&#45;available&#45;&gt;item&#45;take&#45;home -->
<g id="edge1" class="edge">
<title>vendor&#45;available&#45;&gt;item&#45;take&#45;home</title>
<path fill="none" stroke="black" d="M114.46,-348.21C119.5,-336.29 126.38,-320.06 132.15,-306.42"/>
<polygon fill="black" stroke="black" points="135.45,-307.62 136.12,-297.05 129,-304.89 135.45,-307.62"/>
<text text-anchor="middle" x="138.84" y="-318.8" font-family="Times New Roman,serif" font-size="14.00">{y}</text>
</g>
<!-- client&#45;with&#45;item -->
<g id="node2" class="node">
<title>client&#45;with&#45;item</title>
<ellipse fill="none" stroke="black" cx="179.34" cy="-366" rx="27" ry="18"/>
</g>
<!-- client&#45;with&#45;item&#45;&gt;item&#45;take&#45;home -->
<g id="edge2" class="edge">
<title>client&#45;with&#45;item&#45;&gt;item&#45;take&#45;home</title>
<path fill="none" stroke="black" d="M172.23,-348.21C167.19,-336.29 160.31,-320.06 154.53,-306.42"/>
<polygon fill="black" stroke="black" points="157.69,-304.89 150.56,-297.05 151.24,-307.62 157.69,-304.89"/>
<text text-anchor="middle" x="178.84" y="-318.8" font-family="Times New Roman,serif" font-size="14.00">{x,z}</text>
</g>
<!-- vendor&#45;with&#45;item -->
<g id="node3" class="node">
<title>vendor&#45;with&#45;item</title>
<ellipse fill="none" stroke="black" cx="79.34" cy="-192" rx="48.19" ry="18"/>
<text text-anchor="middle" x="79.34" y="-188.3" font-family="Times New Roman,serif" font-size="14.00">(V2,shirt) </text>
</g>
<!-- vendor&#45;packs&#45;item -->
<g id="node8" class="node">
<title>vendor&#45;packs&#45;item</title>
<polygon fill="none" stroke="black" points="137.84,-123 16.84,-123 16.84,-87 137.84,-87 137.84,-123"/>
<text text-anchor="middle" x="77.34" y="-101.3" font-family="Times New Roman,serif" font-size="14.00">vendor&#45;packs&#45;item</text>
</g>
<!-- vendor&#45;with&#45;item&#45;&gt;vendor&#45;packs&#45;item -->
<g id="edge5" class="edge">
<title>vendor&#45;with&#45;item&#45;&gt;vendor&#45;packs&#45;item</title>
<path fill="none" stroke="black" d="M78.94,-173.8C78.66,-162.16 78.3,-146.55 77.98,-133.24"/>
<polygon fill="black" stroke="black" points="81.48,-133.09 77.75,-123.18 74.48,-133.26 81.48,-133.09"/>
<text text-anchor="middle" x="94.84" y="-144.8" font-family="Times New Roman,serif" font-size="14.00">{y,z}</text>
</g>
<!-- client&#45;with&#45;money -->
<g id="node4" class="node">
<title>client&#45;with&#45;money</title>
<ellipse fill="none" stroke="black" cx="207.34" cy="-192" rx="61.99" ry="18"/>
<text text-anchor="middle" x="207.34" y="-188.3" font-family="Times New Roman,serif" font-size="14.00">(Alice,50Eur) </text>
</g>
<!-- client&#45;pays -->
<g id="node9" class="node">
<title>client&#45;pays</title>
<polygon fill="none" stroke="black" points="245.84,-123 168.84,-123 168.84,-87 245.84,-87 245.84,-123"/>
<text text-anchor="middle" x="207.34" y="-101.3" font-family="Times New Roman,serif" font-size="14.00">client&#45;pays</text>
</g>
<!-- client&#45;with&#45;money&#45;&gt;client&#45;pays -->
<g id="edge7" class="edge">
<title>client&#45;with&#45;money&#45;&gt;client&#45;pays</title>
<path fill="none" stroke="black" d="M207.34,-173.8C207.34,-162.16 207.34,-146.55 207.34,-133.24"/>
<polygon fill="black" stroke="black" points="210.84,-133.18 207.34,-123.18 203.84,-133.18 210.84,-133.18"/>
<text text-anchor="middle" x="224.84" y="-144.8" font-family="Times New Roman,serif" font-size="14.00">{x,m}</text>
</g>
<!-- vendor&#45;packed&#45;item -->
<g id="node5" class="node">
<title>vendor&#45;packed&#45;item</title>
<ellipse fill="none" stroke="black" cx="77.34" cy="-18" rx="77.19" ry="18"/>
<text text-anchor="middle" x="77.34" y="-14.3" font-family="Times New Roman,serif" font-size="14.00">(V1,packs&#45;shoes) </text>
</g>
<!-- client&#45;with&#45;voucher -->
<g id="node6" class="node">
<title>client&#45;with&#45;voucher</title>
<ellipse fill="none" stroke="black" cx="207.34" cy="-18" rx="34.39" ry="18"/>
<text text-anchor="middle" x="207.34" y="-14.3" font-family="Times New Roman,serif" font-size="14.00">(Bob) </text>
</g>
<!-- item&#45;take&#45;home&#45;&gt;vendor&#45;with&#45;item -->
<g id="edge3" class="edge">
<title>item&#45;take&#45;home&#45;&gt;vendor&#45;with&#45;item</title>
<path fill="none" stroke="black" d="M130.39,-260.8C121.08,-248.43 108.37,-231.55 97.97,-217.74"/>
<polygon fill="black" stroke="black" points="100.65,-215.48 91.84,-209.6 95.06,-219.69 100.65,-215.48"/>
<text text-anchor="middle" x="130.84" y="-231.8" font-family="Times New Roman,serif" font-size="14.00">{y,z}</text>
</g>
<!-- item&#45;take&#45;home&#45;&gt;client&#45;with&#45;money -->
<g id="edge4" class="edge">
<title>item&#45;take&#45;home&#45;&gt;client&#45;with&#45;money</title>
<path fill="none" stroke="black" d="M156.29,-260.8C165.55,-248.51 178.15,-231.77 188.51,-218.01"/>
<polygon fill="black" stroke="black" points="191.41,-219.98 194.63,-209.89 185.82,-215.77 191.41,-219.98"/>
<text text-anchor="middle" x="195.84" y="-231.8" font-family="Times New Roman,serif" font-size="14.00">{x,m}</text>
</g>
<!-- vendor&#45;packs&#45;item&#45;&gt;vendor&#45;packed&#45;item -->
<g id="edge6" class="edge">
<title>vendor&#45;packs&#45;item&#45;&gt;vendor&#45;packed&#45;item</title>
<path fill="none" stroke="black" d="M77.34,-86.8C77.34,-75.16 77.34,-59.55 77.34,-46.24"/>
<polygon fill="black" stroke="black" points="80.84,-46.18 77.34,-36.18 73.84,-46.18 80.84,-46.18"/>
<text text-anchor="middle" x="96.34" y="-57.8" font-family="Times New Roman,serif" font-size="14.00">{y,pz}</text>
</g>
<!-- client&#45;pays&#45;&gt;client&#45;with&#45;voucher -->
<g id="edge8" class="edge">
<title>client&#45;pays&#45;&gt;client&#45;with&#45;voucher</title>
<path fill="none" stroke="black" d="M207.34,-86.8C207.34,-75.16 207.34,-59.55 207.34,-46.24"/>
<polygon fill="black" stroke="black" points="210.84,-46.18 207.34,-36.18 203.84,-46.18 210.84,-46.18"/>
<text text-anchor="middle" x="217.84" y="-57.8" font-family="Times New Roman,serif" font-size="14.00">{x}</text>
</g>
</g>
</svg>
