<?xml version="1.0" encoding="UTF-8" standalone="no"?>
<!DOCTYPE svg PUBLIC "-//W3C//DTD SVG 1.1//EN"
 "http://www.w3.org/Graphics/SVG/1.1/DTD/svg11.dtd">
<!-- Generated by graphviz version 5.0.0 (20220707.1540)
 -->
<!-- Title: G Pages: 1 -->
<svg width="275pt" height="392pt"
 viewBox="0.00 0.00 274.89 392.00" xmlns="http://www.w3.org/2000/svg" xmlns:xlink="http://www.w3.org/1999/xlink">
<g id="graph0" class="graph" transform="scale(1 1) rotate(0) translate(4 388)">
<title>G</title>
<polygon fill="white" stroke="transparent" points="-4,4 -4,-388 270.89,-388 270.89,4 -4,4"/>
<!-- vendor&#45;available -->
<g id="node1" class="node">
<title>vendor&#45;available</title>
<ellipse fill="none" stroke="black" cx="102.14" cy="-366" rx="27" ry="18"/>
</g>
<!-- item&#45;take&#45;home -->
<g id="node7" class="node">
<title>item&#45;take&#45;home</title>
<polygon fill="none" stroke="black" points="189.14,-297 87.14,-297 87.14,-261 189.14,-261 189.14,-297"/>
<text text-anchor="middle" x="138.14" y="-275.3" font-family="Times New Roman,serif" font-size="14.00">item&#45;take&#45;home</text>
</g>
<!-- vendor&#45;available&#45;&gt;item&#45;take&#45;home -->
<g id="edge1" class="edge">
<title>vendor&#45;available&#45;&gt;item&#45;take&#45;home</title>
<path fill="none" stroke="black" d="M109.26,-348.21C114.3,-336.29 121.18,-320.06 126.95,-306.42"/>
<polygon fill="black" stroke="black" points="130.25,-307.62 130.92,-297.05 123.8,-304.89 130.25,-307.62"/>
<text text-anchor="middle" x="133.64" y="-318.8" font-family="Times New Roman,serif" font-size="14.00">{y}</text>
</g>
<!-- client&#45;with&#45;item -->
<g id="node2" class="node">
<title>client&#45;with&#45;item</title>
<ellipse fill="none" stroke="black" cx="174.14" cy="-366" rx="27" ry="18"/>
</g>
<!-- client&#45;with&#45;item&#45;&gt;item&#45;take&#45;home -->
<g id="edge2" class="edge">
<title>client&#45;with&#45;item&#45;&gt;item&#45;take&#45;home</title>
<path fill="none" stroke="black" d="M167.03,-348.21C161.99,-336.29 155.11,-320.06 149.34,-306.42"/>
<polygon fill="black" stroke="black" points="152.49,-304.89 145.36,-297.05 146.04,-307.62 152.49,-304.89"/>
<text text-anchor="middle" x="173.64" y="-318.8" font-family="Times New Roman,serif" font-size="14.00">{x,z}</text>
</g>
<!-- vendor&#45;with&#45;item -->
<g id="node3" class="node">
<title>vendor&#45;with&#45;item</title>
<ellipse fill="none" stroke="black" cx="72.14" cy="-192" rx="53.09" ry="18"/>
<text text-anchor="middle" x="72.14" y="-188.3" font-family="Times New Roman,serif" font-size="14.00">(V1,shoes) </text>
</g>
<!-- vendor&#45;packs&#45;item -->
<g id="node8" class="node">
<title>vendor&#45;packs&#45;item</title>
<polygon fill="none" stroke="black" points="132.64,-123 11.64,-123 11.64,-87 132.64,-87 132.64,-123"/>
<text text-anchor="middle" x="72.14" y="-101.3" font-family="Times New Roman,serif" font-size="14.00">vendor&#45;packs&#45;item</text>
</g>
<!-- vendor&#45;with&#45;item&#45;&gt;vendor&#45;packs&#45;item -->
<g id="edge5" class="edge">
<title>vendor&#45;with&#45;item&#45;&gt;vendor&#45;packs&#45;item</title>
<path fill="none" stroke="black" d="M72.14,-173.8C72.14,-162.16 72.14,-146.55 72.14,-133.24"/>
<polygon fill="black" stroke="black" points="75.64,-133.18 72.14,-123.18 68.64,-133.18 75.64,-133.18"/>
<text text-anchor="middle" x="87.64" y="-144.8" font-family="Times New Roman,serif" font-size="14.00">{y,z}</text>
</g>
<!-- client&#45;with&#45;money -->
<g id="node4" class="node">
<title>client&#45;with&#45;money</title>
<ellipse fill="none" stroke="black" cx="205.14" cy="-192" rx="61.99" ry="18"/>
<text text-anchor="middle" x="205.14" y="-188.3" font-family="Times New Roman,serif" font-size="14.00">(Alice,50Eur) </text>
</g>
<!-- client&#45;pays -->
<g id="node9" class="node">
<title>client&#45;pays</title>
<polygon fill="none" stroke="black" points="243.64,-123 166.64,-123 166.64,-87 243.64,-87 243.64,-123"/>
<text text-anchor="middle" x="205.14" y="-101.3" font-family="Times New Roman,serif" font-size="14.00">client&#45;pays</text>
</g>
<!-- client&#45;with&#45;money&#45;&gt;client&#45;pays -->
<g id="edge7" class="edge">
<title>client&#45;with&#45;money&#45;&gt;client&#45;pays</title>
<path fill="none" stroke="black" d="M205.14,-173.8C205.14,-162.16 205.14,-146.55 205.14,-133.24"/>
<polygon fill="black" stroke="black" points="208.64,-133.18 205.14,-123.18 201.64,-133.18 208.64,-133.18"/>
<text text-anchor="middle" x="222.64" y="-144.8" font-family="Times New Roman,serif" font-size="14.00">{x,m}</text>
</g>
<!-- vendor&#45;packed&#45;item -->
<g id="node5" class="node">
<title>vendor&#45;packed&#45;item</title>
<ellipse fill="none" stroke="black" cx="72.14" cy="-18" rx="72.29" ry="18"/>
<text text-anchor="middle" x="72.14" y="-14.3" font-family="Times New Roman,serif" font-size="14.00">(V2,packs&#45;shirt) </text>
</g>
<!-- client&#45;with&#45;voucher -->
<g id="node6" class="node">
<title>client&#45;with&#45;voucher</title>
<ellipse fill="none" stroke="black" cx="205.14" cy="-18" rx="34.39" ry="18"/>
<text text-anchor="middle" x="205.14" y="-14.3" font-family="Times New Roman,serif" font-size="14.00">(Bob) </text>
</g>
<!-- item&#45;take&#45;home&#45;&gt;vendor&#45;with&#45;item -->
<g id="edge3" class="edge">
<title>item&#45;take&#45;home&#45;&gt;vendor&#45;with&#45;item</title>
<path fill="none" stroke="black" d="M124.79,-260.8C115.18,-248.43 102.08,-231.55 91.35,-217.74"/>
<polygon fill="black" stroke="black" points="93.93,-215.35 85.03,-209.6 88.4,-219.64 93.93,-215.35"/>
<text text-anchor="middle" x="124.64" y="-231.8" font-family="Times New Roman,serif" font-size="14.00">{y,z}</text>
</g>
<!-- item&#45;take&#45;home&#45;&gt;client&#45;with&#45;money -->
<g id="edge4" class="edge">
<title>item&#45;take&#45;home&#45;&gt;client&#45;with&#45;money</title>
<path fill="none" stroke="black" d="M151.7,-260.8C161.45,-248.43 174.75,-231.55 185.64,-217.74"/>
<polygon fill="black" stroke="black" points="188.62,-219.62 192.06,-209.6 183.12,-215.28 188.62,-219.62"/>
<text text-anchor="middle" x="192.64" y="-231.8" font-family="Times New Roman,serif" font-size="14.00">{x,m}</text>
</g>
<!-- vendor&#45;packs&#45;item&#45;&gt;vendor&#45;packed&#45;item -->
<g id="edge6" class="edge">
<title>vendor&#45;packs&#45;item&#45;&gt;vendor&#45;packed&#45;item</title>
<path fill="none" stroke="black" d="M72.14,-86.8C72.14,-75.16 72.14,-59.55 72.14,-46.24"/>
<polygon fill="black" stroke="black" points="75.64,-46.18 72.14,-36.18 68.64,-46.18 75.64,-46.18"/>
<text text-anchor="middle" x="91.14" y="-57.8" font-family="Times New Roman,serif" font-size="14.00">{y,pz}</text>
</g>
<!-- client&#45;pays&#45;&gt;client&#45;with&#45;voucher -->
<g id="edge8" class="edge">
<title>client&#45;pays&#45;&gt;client&#45;with&#45;voucher</title>
<path fill="none" stroke="black" d="M205.14,-86.8C205.14,-75.16 205.14,-59.55 205.14,-46.24"/>
<polygon fill="black" stroke="black" points="208.64,-46.18 205.14,-36.18 201.64,-46.18 208.64,-46.18"/>
<text text-anchor="middle" x="215.64" y="-57.8" font-family="Times New Roman,serif" font-size="14.00">{x}</text>
</g>
</g>
</svg>
