<?xml version="1.0" encoding="UTF-8" standalone="no"?>
<!DOCTYPE svg PUBLIC "-//W3C//DTD SVG 1.1//EN"
 "http://www.w3.org/Graphics/SVG/1.1/DTD/svg11.dtd">
<!-- Generated by graphviz version 5.0.0 (20220707.1540)
 -->
<!-- Title: G Pages: 1 -->
<svg width="380pt" height="392pt"
 viewBox="0.00 0.00 379.78 392.00" xmlns="http://www.w3.org/2000/svg" xmlns:xlink="http://www.w3.org/1999/xlink">
<g id="graph0" class="graph" transform="scale(1 1) rotate(0) translate(4 388)">
<title>G</title>
<polygon fill="white" stroke="transparent" points="-4,4 -4,-388 375.78,-388 375.78,4 -4,4"/>
<!-- vendor&#45;available -->
<g id="node1" class="node">
<title>vendor&#45;available</title>
<ellipse fill="none" stroke="black" cx="183.09" cy="-366" rx="27" ry="18"/>
</g>
<!-- item&#45;take&#45;home -->
<g id="node7" class="node">
<title>item&#45;take&#45;home</title>
<polygon fill="none" stroke="black" points="270.09,-297 168.09,-297 168.09,-261 270.09,-261 270.09,-297"/>
<text text-anchor="middle" x="219.09" y="-275.3" font-family="Times New Roman,serif" font-size="14.00">item&#45;take&#45;home</text>
</g>
<!-- vendor&#45;available&#45;&gt;item&#45;take&#45;home -->
<g id="edge1" class="edge">
<title>vendor&#45;available&#45;&gt;item&#45;take&#45;home</title>
<path fill="none" stroke="black" d="M190.2,-348.21C195.25,-336.29 202.12,-320.06 207.9,-306.42"/>
<polygon fill="black" stroke="black" points="211.19,-307.62 211.87,-297.05 204.74,-304.89 211.19,-307.62"/>
<text text-anchor="middle" x="214.59" y="-318.8" font-family="Times New Roman,serif" font-size="14.00">{y}</text>
</g>
<!-- client&#45;with&#45;item -->
<g id="node2" class="node">
<title>client&#45;with&#45;item</title>
<ellipse fill="none" stroke="black" cx="255.09" cy="-366" rx="27" ry="18"/>
</g>
<!-- client&#45;with&#45;item&#45;&gt;item&#45;take&#45;home -->
<g id="edge2" class="edge">
<title>client&#45;with&#45;item&#45;&gt;item&#45;take&#45;home</title>
<path fill="none" stroke="black" d="M247.98,-348.21C242.93,-336.29 236.06,-320.06 230.28,-306.42"/>
<polygon fill="black" stroke="black" points="233.43,-304.89 226.31,-297.05 226.99,-307.62 233.43,-304.89"/>
<text text-anchor="middle" x="254.59" y="-318.8" font-family="Times New Roman,serif" font-size="14.00">{x,z}</text>
</g>
<!-- vendor&#45;with&#45;item -->
<g id="node3" class="node">
<title>vendor&#45;with&#45;item</title>
<ellipse fill="none" stroke="black" cx="165.09" cy="-192" rx="27" ry="18"/>
</g>
<!-- vendor&#45;packs&#45;item -->
<g id="node8" class="node">
<title>vendor&#45;packs&#45;item</title>
<polygon fill="none" stroke="black" points="219.59,-123 98.59,-123 98.59,-87 219.59,-87 219.59,-123"/>
<text text-anchor="middle" x="159.09" y="-101.3" font-family="Times New Roman,serif" font-size="14.00">vendor&#45;packs&#45;item</text>
</g>
<!-- vendor&#45;with&#45;item&#45;&gt;vendor&#45;packs&#45;item -->
<g id="edge5" class="edge">
<title>vendor&#45;with&#45;item&#45;&gt;vendor&#45;packs&#45;item</title>
<path fill="none" stroke="black" d="M163.87,-173.8C163.05,-162.16 161.95,-146.55 161.01,-133.24"/>
<polygon fill="black" stroke="black" points="164.5,-132.9 160.3,-123.18 157.51,-133.4 164.5,-132.9"/>
<text text-anchor="middle" x="178.59" y="-144.8" font-family="Times New Roman,serif" font-size="14.00">{y,z}</text>
</g>
<!-- client&#45;with&#45;money -->
<g id="node4" class="node">
<title>client&#45;with&#45;money</title>
<ellipse fill="none" stroke="black" cx="294.09" cy="-192" rx="63.09" ry="18"/>
<text text-anchor="middle" x="294.09" y="-188.3" font-family="Times New Roman,serif" font-size="14.00">(Bob,120Eur) </text>
</g>
<!-- client&#45;pays -->
<g id="node9" class="node">
<title>client&#45;pays</title>
<polygon fill="none" stroke="black" points="353.59,-123 276.59,-123 276.59,-87 353.59,-87 353.59,-123"/>
<text text-anchor="middle" x="315.09" y="-101.3" font-family="Times New Roman,serif" font-size="14.00">client&#45;pays</text>
</g>
<!-- client&#45;with&#45;money&#45;&gt;client&#45;pays -->
<g id="edge7" class="edge">
<title>client&#45;with&#45;money&#45;&gt;client&#45;pays</title>
<path fill="none" stroke="black" d="M298.34,-173.8C301.21,-162.16 305.07,-146.55 308.36,-133.24"/>
<polygon fill="black" stroke="black" points="311.84,-133.72 310.84,-123.18 305.05,-132.04 311.84,-133.72"/>
<text text-anchor="middle" x="322.59" y="-144.8" font-family="Times New Roman,serif" font-size="14.00">{x,m}</text>
</g>
<!-- vendor&#45;packed&#45;item -->
<g id="node5" class="node">
<title>vendor&#45;packed&#45;item</title>
<ellipse fill="none" stroke="black" cx="139.09" cy="-18" rx="139.18" ry="18"/>
<text text-anchor="middle" x="139.09" y="-14.3" font-family="Times New Roman,serif" font-size="14.00">(V1,packs&#45;shirt) (V2,packs&#45;shoes) </text>
</g>
<!-- client&#45;with&#45;voucher -->
<g id="node6" class="node">
<title>client&#45;with&#45;voucher</title>
<ellipse fill="none" stroke="black" cx="334.09" cy="-18" rx="37.89" ry="18"/>
<text text-anchor="middle" x="334.09" y="-14.3" font-family="Times New Roman,serif" font-size="14.00">(Alice) </text>
</g>
<!-- item&#45;take&#45;home&#45;&gt;vendor&#45;with&#45;item -->
<g id="edge3" class="edge">
<title>item&#45;take&#45;home&#45;&gt;vendor&#45;with&#45;item</title>
<path fill="none" stroke="black" d="M208.16,-260.8C200.22,-248.3 189.37,-231.22 180.54,-217.33"/>
<polygon fill="black" stroke="black" points="183.41,-215.31 175.09,-208.74 177.5,-219.06 183.41,-215.31"/>
<text text-anchor="middle" x="211.59" y="-231.8" font-family="Times New Roman,serif" font-size="14.00">{y,z}</text>
</g>
<!-- item&#45;take&#45;home&#45;&gt;client&#45;with&#45;money -->
<g id="edge4" class="edge">
<title>item&#45;take&#45;home&#45;&gt;client&#45;with&#45;money</title>
<path fill="none" stroke="black" d="M234.27,-260.8C245.29,-248.31 260.35,-231.24 272.6,-217.35"/>
<polygon fill="black" stroke="black" points="275.45,-219.41 279.44,-209.6 270.2,-214.78 275.45,-219.41"/>
<text text-anchor="middle" x="277.59" y="-231.8" font-family="Times New Roman,serif" font-size="14.00">{x,m}</text>
</g>
<!-- vendor&#45;packs&#45;item&#45;&gt;vendor&#45;packed&#45;item -->
<g id="edge6" class="edge">
<title>vendor&#45;packs&#45;item&#45;&gt;vendor&#45;packed&#45;item</title>
<path fill="none" stroke="black" d="M155.04,-86.8C152.3,-75.16 148.63,-59.55 145.5,-46.24"/>
<polygon fill="black" stroke="black" points="148.83,-45.11 143.13,-36.18 142.01,-46.71 148.83,-45.11"/>
<text text-anchor="middle" x="170.09" y="-57.8" font-family="Times New Roman,serif" font-size="14.00">{y,pz}</text>
</g>
<!-- client&#45;pays&#45;&gt;client&#45;with&#45;voucher -->
<g id="edge8" class="edge">
<title>client&#45;pays&#45;&gt;client&#45;with&#45;voucher</title>
<path fill="none" stroke="black" d="M318.93,-86.8C321.53,-75.16 325.02,-59.55 328,-46.24"/>
<polygon fill="black" stroke="black" points="331.48,-46.7 330.25,-36.18 324.65,-45.17 331.48,-46.7"/>
<text text-anchor="middle" x="335.59" y="-57.8" font-family="Times New Roman,serif" font-size="14.00">{x}</text>
</g>
</g>
</svg>
