<?xml version="1.0" encoding="UTF-8" standalone="no"?>
<!DOCTYPE svg PUBLIC "-//W3C//DTD SVG 1.1//EN"
 "http://www.w3.org/Graphics/SVG/1.1/DTD/svg11.dtd">
<!-- Generated by graphviz version 5.0.0 (20220707.1540)
 -->
<!-- Title: G Pages: 1 -->
<svg width="266pt" height="392pt"
 viewBox="0.00 0.00 265.54 392.00" xmlns="http://www.w3.org/2000/svg" xmlns:xlink="http://www.w3.org/1999/xlink">
<g id="graph0" class="graph" transform="scale(1 1) rotate(0) translate(4 388)">
<title>G</title>
<polygon fill="white" stroke="transparent" points="-4,4 -4,-388 261.54,-388 261.54,4 -4,4"/>
<!-- vendor&#45;available -->
<g id="node1" class="node">
<title>vendor&#45;available</title>
<ellipse fill="none" stroke="black" cx="75.5" cy="-366" rx="29.8" ry="18"/>
<text text-anchor="middle" x="75.5" y="-362.3" font-family="Times New Roman,serif" font-size="14.00">(V1) </text>
</g>
<!-- item&#45;take&#45;home -->
<g id="node7" class="node">
<title>item&#45;take&#45;home</title>
<polygon fill="none" stroke="black" points="178.5,-297 76.5,-297 76.5,-261 178.5,-261 178.5,-297"/>
<text text-anchor="middle" x="127.5" y="-275.3" font-family="Times New Roman,serif" font-size="14.00">item&#45;take&#45;home</text>
</g>
<!-- vendor&#45;available&#45;&gt;item&#45;take&#45;home -->
<g id="edge1" class="edge">
<title>vendor&#45;available&#45;&gt;item&#45;take&#45;home</title>
<path fill="none" stroke="black" d="M85.53,-348.61C92.93,-336.5 103.17,-319.77 111.67,-305.87"/>
<polygon fill="black" stroke="black" points="114.74,-307.57 116.97,-297.21 108.76,-303.92 114.74,-307.57"/>
<text text-anchor="middle" x="116" y="-318.8" font-family="Times New Roman,serif" font-size="14.00">{y}</text>
</g>
<!-- client&#45;with&#45;item -->
<g id="node2" class="node">
<title>client&#45;with&#45;item</title>
<ellipse fill="none" stroke="black" cx="179.5" cy="-366" rx="55.79" ry="18"/>
<text text-anchor="middle" x="179.5" y="-362.3" font-family="Times New Roman,serif" font-size="14.00">(Alice,shirt) </text>
</g>
<!-- client&#45;with&#45;item&#45;&gt;item&#45;take&#45;home -->
<g id="edge2" class="edge">
<title>client&#45;with&#45;item&#45;&gt;item&#45;take&#45;home</title>
<path fill="none" stroke="black" d="M169.23,-348.21C161.8,-336.06 151.62,-319.43 143.18,-305.63"/>
<polygon fill="black" stroke="black" points="146.13,-303.75 137.93,-297.05 140.16,-307.41 146.13,-303.75"/>
<text text-anchor="middle" x="172" y="-318.8" font-family="Times New Roman,serif" font-size="14.00">{x,z}</text>
</g>
<!-- vendor&#45;with&#45;item -->
<g id="node3" class="node">
<title>vendor&#45;with&#45;item</title>
<ellipse fill="none" stroke="black" cx="60.5" cy="-192" rx="53.09" ry="18"/>
<text text-anchor="middle" x="60.5" y="-188.3" font-family="Times New Roman,serif" font-size="14.00">(V2,shoes) </text>
</g>
<!-- vendor&#45;packs&#45;item -->
<g id="node8" class="node">
<title>vendor&#45;packs&#45;item</title>
<polygon fill="none" stroke="black" points="121,-123 0,-123 0,-87 121,-87 121,-123"/>
<text text-anchor="middle" x="60.5" y="-101.3" font-family="Times New Roman,serif" font-size="14.00">vendor&#45;packs&#45;item</text>
</g>
<!-- vendor&#45;with&#45;item&#45;&gt;vendor&#45;packs&#45;item -->
<g id="edge5" class="edge">
<title>vendor&#45;with&#45;item&#45;&gt;vendor&#45;packs&#45;item</title>
<path fill="none" stroke="black" d="M60.5,-173.8C60.5,-162.16 60.5,-146.55 60.5,-133.24"/>
<polygon fill="black" stroke="black" points="64,-133.18 60.5,-123.18 57,-133.18 64,-133.18"/>
<text text-anchor="middle" x="76" y="-144.8" font-family="Times New Roman,serif" font-size="14.00">{y,z}</text>
</g>
<!-- client&#45;with&#45;money -->
<g id="node4" class="node">
<title>client&#45;with&#45;money</title>
<ellipse fill="none" stroke="black" cx="194.5" cy="-192" rx="63.09" ry="18"/>
<text text-anchor="middle" x="194.5" y="-188.3" font-family="Times New Roman,serif" font-size="14.00">(Bob,120Eur) </text>
</g>
<!-- client&#45;pays -->
<g id="node9" class="node">
<title>client&#45;pays</title>
<polygon fill="none" stroke="black" points="233,-123 156,-123 156,-87 233,-87 233,-123"/>
<text text-anchor="middle" x="194.5" y="-101.3" font-family="Times New Roman,serif" font-size="14.00">client&#45;pays</text>
</g>
<!-- client&#45;with&#45;money&#45;&gt;client&#45;pays -->
<g id="edge7" class="edge">
<title>client&#45;with&#45;money&#45;&gt;client&#45;pays</title>
<path fill="none" stroke="black" d="M194.5,-173.8C194.5,-162.16 194.5,-146.55 194.5,-133.24"/>
<polygon fill="black" stroke="black" points="198,-133.18 194.5,-123.18 191,-133.18 198,-133.18"/>
<text text-anchor="middle" x="212" y="-144.8" font-family="Times New Roman,serif" font-size="14.00">{x,m}</text>
</g>
<!-- vendor&#45;packed&#45;item -->
<g id="node5" class="node">
<title>vendor&#45;packed&#45;item</title>
<ellipse fill="none" stroke="black" cx="60.5" cy="-18" rx="27" ry="18"/>
</g>
<!-- client&#45;with&#45;voucher -->
<g id="node6" class="node">
<title>client&#45;with&#45;voucher</title>
<ellipse fill="none" stroke="black" cx="194.5" cy="-18" rx="27" ry="18"/>
</g>
<!-- item&#45;take&#45;home&#45;&gt;vendor&#45;with&#45;item -->
<g id="edge3" class="edge">
<title>item&#45;take&#45;home&#45;&gt;vendor&#45;with&#45;item</title>
<path fill="none" stroke="black" d="M113.94,-260.8C104.19,-248.43 90.89,-231.55 80,-217.74"/>
<polygon fill="black" stroke="black" points="82.52,-215.28 73.58,-209.6 77.02,-219.62 82.52,-215.28"/>
<text text-anchor="middle" x="114" y="-231.8" font-family="Times New Roman,serif" font-size="14.00">{y,z}</text>
</g>
<!-- item&#45;take&#45;home&#45;&gt;client&#45;with&#45;money -->
<g id="edge4" class="edge">
<title>item&#45;take&#45;home&#45;&gt;client&#45;with&#45;money</title>
<path fill="none" stroke="black" d="M141.06,-260.8C150.75,-248.51 163.94,-231.77 174.79,-218.01"/>
<polygon fill="black" stroke="black" points="177.75,-219.91 181.19,-209.89 172.25,-215.57 177.75,-219.91"/>
<text text-anchor="middle" x="182" y="-231.8" font-family="Times New Roman,serif" font-size="14.00">{x,m}</text>
</g>
<!-- vendor&#45;packs&#45;item&#45;&gt;vendor&#45;packed&#45;item -->
<g id="edge6" class="edge">
<title>vendor&#45;packs&#45;item&#45;&gt;vendor&#45;packed&#45;item</title>
<path fill="none" stroke="black" d="M60.5,-86.8C60.5,-75.16 60.5,-59.55 60.5,-46.24"/>
<polygon fill="black" stroke="black" points="64,-46.18 60.5,-36.18 57,-46.18 64,-46.18"/>
<text text-anchor="middle" x="79.5" y="-57.8" font-family="Times New Roman,serif" font-size="14.00">{y,pz}</text>
</g>
<!-- client&#45;pays&#45;&gt;client&#45;with&#45;voucher -->
<g id="edge8" class="edge">
<title>client&#45;pays&#45;&gt;client&#45;with&#45;voucher</title>
<path fill="none" stroke="black" d="M194.5,-86.8C194.5,-75.16 194.5,-59.55 194.5,-46.24"/>
<polygon fill="black" stroke="black" points="198,-46.18 194.5,-36.18 191,-46.18 198,-46.18"/>
<text text-anchor="middle" x="205" y="-57.8" font-family="Times New Roman,serif" font-size="14.00">{x}</text>
</g>
</g>
</svg>
