<?xml version="1.0" encoding="UTF-8" standalone="no"?>
<!DOCTYPE svg PUBLIC "-//W3C//DTD SVG 1.1//EN"
 "http://www.w3.org/Graphics/SVG/1.1/DTD/svg11.dtd">
<!-- Generated by graphviz version 5.0.0 (20220707.1540)
 -->
<!-- Title: G Pages: 1 -->
<svg width="374pt" height="392pt"
 viewBox="0.00 0.00 373.53 392.00" xmlns="http://www.w3.org/2000/svg" xmlns:xlink="http://www.w3.org/1999/xlink">
<g id="graph0" class="graph" transform="scale(1 1) rotate(0) translate(4 388)">
<title>G</title>
<polygon fill="white" stroke="transparent" points="-4,4 -4,-388 369.53,-388 369.53,4 -4,4"/>
<!-- vendor&#45;available -->
<g id="node1" class="node">
<title>vendor&#45;available</title>
<ellipse fill="none" stroke="black" cx="182.09" cy="-366" rx="27" ry="18"/>
</g>
<!-- item&#45;take&#45;home -->
<g id="node7" class="node">
<title>item&#45;take&#45;home</title>
<polygon fill="none" stroke="black" points="269.09,-297 167.09,-297 167.09,-261 269.09,-261 269.09,-297"/>
<text text-anchor="middle" x="218.09" y="-275.3" font-family="Times New Roman,serif" font-size="14.00">item&#45;take&#45;home</text>
</g>
<!-- vendor&#45;available&#45;&gt;item&#45;take&#45;home -->
<g id="edge1" class="edge">
<title>vendor&#45;available&#45;&gt;item&#45;take&#45;home</title>
<path fill="none" stroke="black" d="M189.2,-348.21C194.25,-336.29 201.12,-320.06 206.9,-306.42"/>
<polygon fill="black" stroke="black" points="210.19,-307.62 210.87,-297.05 203.74,-304.89 210.19,-307.62"/>
<text text-anchor="middle" x="213.59" y="-318.8" font-family="Times New Roman,serif" font-size="14.00">{y}</text>
</g>
<!-- client&#45;with&#45;item -->
<g id="node2" class="node">
<title>client&#45;with&#45;item</title>
<ellipse fill="none" stroke="black" cx="254.09" cy="-366" rx="27" ry="18"/>
</g>
<!-- client&#45;with&#45;item&#45;&gt;item&#45;take&#45;home -->
<g id="edge2" class="edge">
<title>client&#45;with&#45;item&#45;&gt;item&#45;take&#45;home</title>
<path fill="none" stroke="black" d="M246.98,-348.21C241.93,-336.29 235.06,-320.06 229.28,-306.42"/>
<polygon fill="black" stroke="black" points="232.43,-304.89 225.31,-297.05 225.99,-307.62 232.43,-304.89"/>
<text text-anchor="middle" x="253.59" y="-318.8" font-family="Times New Roman,serif" font-size="14.00">{x,z}</text>
</g>
<!-- vendor&#45;with&#45;item -->
<g id="node3" class="node">
<title>vendor&#45;with&#45;item</title>
<ellipse fill="none" stroke="black" cx="165.09" cy="-192" rx="27" ry="18"/>
</g>
<!-- vendor&#45;packs&#45;item -->
<g id="node8" class="node">
<title>vendor&#45;packs&#45;item</title>
<polygon fill="none" stroke="black" points="218.59,-123 97.59,-123 97.59,-87 218.59,-87 218.59,-123"/>
<text text-anchor="middle" x="158.09" y="-101.3" font-family="Times New Roman,serif" font-size="14.00">vendor&#45;packs&#45;item</text>
</g>
<!-- vendor&#45;with&#45;item&#45;&gt;vendor&#45;packs&#45;item -->
<g id="edge5" class="edge">
<title>vendor&#45;with&#45;item&#45;&gt;vendor&#45;packs&#45;item</title>
<path fill="none" stroke="black" d="M163.67,-173.8C162.71,-162.16 161.43,-146.55 160.33,-133.24"/>
<polygon fill="black" stroke="black" points="163.81,-132.85 159.5,-123.18 156.83,-133.43 163.81,-132.85"/>
<text text-anchor="middle" x="177.59" y="-144.8" font-family="Times New Roman,serif" font-size="14.00">{y,z}</text>
</g>
<!-- client&#45;with&#45;money -->
<g id="node4" class="node">
<title>client&#45;with&#45;money</title>
<ellipse fill="none" stroke="black" cx="292.09" cy="-192" rx="61.99" ry="18"/>
<text text-anchor="middle" x="292.09" y="-188.3" font-family="Times New Roman,serif" font-size="14.00">(Alice,50Eur) </text>
</g>
<!-- client&#45;pays -->
<g id="node9" class="node">
<title>client&#45;pays</title>
<polygon fill="none" stroke="black" points="350.59,-123 273.59,-123 273.59,-87 350.59,-87 350.59,-123"/>
<text text-anchor="middle" x="312.09" y="-101.3" font-family="Times New Roman,serif" font-size="14.00">client&#45;pays</text>
</g>
<!-- client&#45;with&#45;money&#45;&gt;client&#45;pays -->
<g id="edge7" class="edge">
<title>client&#45;with&#45;money&#45;&gt;client&#45;pays</title>
<path fill="none" stroke="black" d="M296.13,-173.8C298.87,-162.16 302.55,-146.55 305.68,-133.24"/>
<polygon fill="black" stroke="black" points="309.16,-133.71 308.05,-123.18 302.35,-132.11 309.16,-133.71"/>
<text text-anchor="middle" x="320.59" y="-144.8" font-family="Times New Roman,serif" font-size="14.00">{x,m}</text>
</g>
<!-- vendor&#45;packed&#45;item -->
<g id="node5" class="node">
<title>vendor&#45;packed&#45;item</title>
<ellipse fill="none" stroke="black" cx="139.09" cy="-18" rx="139.18" ry="18"/>
<text text-anchor="middle" x="139.09" y="-14.3" font-family="Times New Roman,serif" font-size="14.00">(V1,packs&#45;shoes) (V2,packs&#45;shirt) </text>
</g>
<!-- client&#45;with&#45;voucher -->
<g id="node6" class="node">
<title>client&#45;with&#45;voucher</title>
<ellipse fill="none" stroke="black" cx="331.09" cy="-18" rx="34.39" ry="18"/>
<text text-anchor="middle" x="331.09" y="-14.3" font-family="Times New Roman,serif" font-size="14.00">(Bob) </text>
</g>
<!-- item&#45;take&#45;home&#45;&gt;vendor&#45;with&#45;item -->
<g id="edge3" class="edge">
<title>item&#45;take&#45;home&#45;&gt;vendor&#45;with&#45;item</title>
<path fill="none" stroke="black" d="M207.36,-260.8C199.62,-248.38 189.06,-231.44 180.42,-217.6"/>
<polygon fill="black" stroke="black" points="183.34,-215.66 175.08,-209.03 177.4,-219.36 183.34,-215.66"/>
<text text-anchor="middle" x="210.59" y="-231.8" font-family="Times New Roman,serif" font-size="14.00">{y,z}</text>
</g>
<!-- item&#45;take&#45;home&#45;&gt;client&#45;with&#45;money -->
<g id="edge4" class="edge">
<title>item&#45;take&#45;home&#45;&gt;client&#45;with&#45;money</title>
<path fill="none" stroke="black" d="M233.06,-260.8C243.94,-248.31 258.8,-231.24 270.89,-217.35"/>
<polygon fill="black" stroke="black" points="273.71,-219.44 277.64,-209.6 268.43,-214.84 273.71,-219.44"/>
<text text-anchor="middle" x="276.59" y="-231.8" font-family="Times New Roman,serif" font-size="14.00">{x,m}</text>
</g>
<!-- vendor&#45;packs&#45;item&#45;&gt;vendor&#45;packed&#45;item -->
<g id="edge6" class="edge">
<title>vendor&#45;packs&#45;item&#45;&gt;vendor&#45;packed&#45;item</title>
<path fill="none" stroke="black" d="M154.24,-86.8C151.64,-75.16 148.15,-59.55 145.18,-46.24"/>
<polygon fill="black" stroke="black" points="148.52,-45.17 142.93,-36.18 141.69,-46.7 148.52,-45.17"/>
<text text-anchor="middle" x="169.09" y="-57.8" font-family="Times New Roman,serif" font-size="14.00">{y,pz}</text>
</g>
<!-- client&#45;pays&#45;&gt;client&#45;with&#45;voucher -->
<g id="edge8" class="edge">
<title>client&#45;pays&#45;&gt;client&#45;with&#45;voucher</title>
<path fill="none" stroke="black" d="M315.93,-86.8C318.53,-75.16 322.02,-59.55 325,-46.24"/>
<polygon fill="black" stroke="black" points="328.48,-46.7 327.25,-36.18 321.65,-45.17 328.48,-46.7"/>
<text text-anchor="middle" x="332.59" y="-57.8" font-family="Times New Roman,serif" font-size="14.00">{x}</text>
</g>
</g>
</svg>
