<?xml version="1.0" encoding="UTF-8" standalone="no"?>
<!DOCTYPE svg PUBLIC "-//W3C//DTD SVG 1.1//EN"
 "http://www.w3.org/Graphics/SVG/1.1/DTD/svg11.dtd">
<!-- Generated by graphviz version 5.0.0 (20220707.1540)
 -->
<!-- Title: G Pages: 1 -->
<svg width="258pt" height="392pt"
 viewBox="0.00 0.00 258.24 392.00" xmlns="http://www.w3.org/2000/svg" xmlns:xlink="http://www.w3.org/1999/xlink">
<g id="graph0" class="graph" transform="scale(1 1) rotate(0) translate(4 388)">
<title>G</title>
<polygon fill="white" stroke="transparent" points="-4,4 -4,-388 254.24,-388 254.24,4 -4,4"/>
<!-- vendor&#45;available -->
<g id="node1" class="node">
<title>vendor&#45;available</title>
<ellipse fill="none" stroke="black" cx="71.5" cy="-366" rx="29.8" ry="18"/>
<text text-anchor="middle" x="71.5" y="-362.3" font-family="Times New Roman,serif" font-size="14.00">(V2) </text>
</g>
<!-- item&#45;take&#45;home -->
<g id="node7" class="node">
<title>item&#45;take&#45;home</title>
<polygon fill="none" stroke="black" points="175.5,-297 73.5,-297 73.5,-261 175.5,-261 175.5,-297"/>
<text text-anchor="middle" x="124.5" y="-275.3" font-family="Times New Roman,serif" font-size="14.00">item&#45;take&#45;home</text>
</g>
<!-- vendor&#45;available&#45;&gt;item&#45;take&#45;home -->
<g id="edge1" class="edge">
<title>vendor&#45;available&#45;&gt;item&#45;take&#45;home</title>
<path fill="none" stroke="black" d="M81.47,-349.01C89.05,-336.86 99.62,-319.9 108.39,-305.83"/>
<polygon fill="black" stroke="black" points="111.53,-307.42 113.85,-297.08 105.59,-303.72 111.53,-307.42"/>
<text text-anchor="middle" x="112" y="-318.8" font-family="Times New Roman,serif" font-size="14.00">{y}</text>
</g>
<!-- client&#45;with&#45;item -->
<g id="node2" class="node">
<title>client&#45;with&#45;item</title>
<ellipse fill="none" stroke="black" cx="177.5" cy="-366" rx="57.69" ry="18"/>
<text text-anchor="middle" x="177.5" y="-362.3" font-family="Times New Roman,serif" font-size="14.00">(Bob,shoes) </text>
</g>
<!-- client&#45;with&#45;item&#45;&gt;item&#45;take&#45;home -->
<g id="edge2" class="edge">
<title>client&#45;with&#45;item&#45;&gt;item&#45;take&#45;home</title>
<path fill="none" stroke="black" d="M167.03,-348.21C159.46,-336.06 149.09,-319.43 140.48,-305.63"/>
<polygon fill="black" stroke="black" points="143.39,-303.68 135.13,-297.05 137.45,-307.39 143.39,-303.68"/>
<text text-anchor="middle" x="169" y="-318.8" font-family="Times New Roman,serif" font-size="14.00">{x,z}</text>
</g>
<!-- vendor&#45;with&#45;item -->
<g id="node3" class="node">
<title>vendor&#45;with&#45;item</title>
<ellipse fill="none" stroke="black" cx="60.5" cy="-192" rx="48.19" ry="18"/>
<text text-anchor="middle" x="60.5" y="-188.3" font-family="Times New Roman,serif" font-size="14.00">(V1,shirt) </text>
</g>
<!-- vendor&#45;packs&#45;item -->
<g id="node8" class="node">
<title>vendor&#45;packs&#45;item</title>
<polygon fill="none" stroke="black" points="121,-123 0,-123 0,-87 121,-87 121,-123"/>
<text text-anchor="middle" x="60.5" y="-101.3" font-family="Times New Roman,serif" font-size="14.00">vendor&#45;packs&#45;item</text>
</g>
<!-- vendor&#45;with&#45;item&#45;&gt;vendor&#45;packs&#45;item -->
<g id="edge5" class="edge">
<title>vendor&#45;with&#45;item&#45;&gt;vendor&#45;packs&#45;item</title>
<path fill="none" stroke="black" d="M60.5,-173.8C60.5,-162.16 60.5,-146.55 60.5,-133.24"/>
<polygon fill="black" stroke="black" points="64,-133.18 60.5,-123.18 57,-133.18 64,-133.18"/>
<text text-anchor="middle" x="76" y="-144.8" font-family="Times New Roman,serif" font-size="14.00">{y,z}</text>
</g>
<!-- client&#45;with&#45;money -->
<g id="node4" class="node">
<title>client&#45;with&#45;money</title>
<ellipse fill="none" stroke="black" cx="188.5" cy="-192" rx="61.99" ry="18"/>
<text text-anchor="middle" x="188.5" y="-188.3" font-family="Times New Roman,serif" font-size="14.00">(Alice,50Eur) </text>
</g>
<!-- client&#45;pays -->
<g id="node9" class="node">
<title>client&#45;pays</title>
<polygon fill="none" stroke="black" points="227,-123 150,-123 150,-87 227,-87 227,-123"/>
<text text-anchor="middle" x="188.5" y="-101.3" font-family="Times New Roman,serif" font-size="14.00">client&#45;pays</text>
</g>
<!-- client&#45;with&#45;money&#45;&gt;client&#45;pays -->
<g id="edge7" class="edge">
<title>client&#45;with&#45;money&#45;&gt;client&#45;pays</title>
<path fill="none" stroke="black" d="M188.5,-173.8C188.5,-162.16 188.5,-146.55 188.5,-133.24"/>
<polygon fill="black" stroke="black" points="192,-133.18 188.5,-123.18 185,-133.18 192,-133.18"/>
<text text-anchor="middle" x="206" y="-144.8" font-family="Times New Roman,serif" font-size="14.00">{x,m}</text>
</g>
<!-- vendor&#45;packed&#45;item -->
<g id="node5" class="node">
<title>vendor&#45;packed&#45;item</title>
<ellipse fill="none" stroke="black" cx="60.5" cy="-18" rx="27" ry="18"/>
</g>
<!-- client&#45;with&#45;voucher -->
<g id="node6" class="node">
<title>client&#45;with&#45;voucher</title>
<ellipse fill="none" stroke="black" cx="188.5" cy="-18" rx="27" ry="18"/>
</g>
<!-- item&#45;take&#45;home&#45;&gt;vendor&#45;with&#45;item -->
<g id="edge3" class="edge">
<title>item&#45;take&#45;home&#45;&gt;vendor&#45;with&#45;item</title>
<path fill="none" stroke="black" d="M111.55,-260.8C102.23,-248.43 89.53,-231.55 79.13,-217.74"/>
<polygon fill="black" stroke="black" points="81.81,-215.48 73,-209.6 76.22,-219.69 81.81,-215.48"/>
<text text-anchor="middle" x="112" y="-231.8" font-family="Times New Roman,serif" font-size="14.00">{y,z}</text>
</g>
<!-- item&#45;take&#45;home&#45;&gt;client&#45;with&#45;money -->
<g id="edge4" class="edge">
<title>item&#45;take&#45;home&#45;&gt;client&#45;with&#45;money</title>
<path fill="none" stroke="black" d="M137.45,-260.8C146.71,-248.51 159.31,-231.77 169.67,-218.01"/>
<polygon fill="black" stroke="black" points="172.57,-219.98 175.79,-209.89 166.98,-215.77 172.57,-219.98"/>
<text text-anchor="middle" x="177" y="-231.8" font-family="Times New Roman,serif" font-size="14.00">{x,m}</text>
</g>
<!-- vendor&#45;packs&#45;item&#45;&gt;vendor&#45;packed&#45;item -->
<g id="edge6" class="edge">
<title>vendor&#45;packs&#45;item&#45;&gt;vendor&#45;packed&#45;item</title>
<path fill="none" stroke="black" d="M60.5,-86.8C60.5,-75.16 60.5,-59.55 60.5,-46.24"/>
<polygon fill="black" stroke="black" points="64,-46.18 60.5,-36.18 57,-46.18 64,-46.18"/>
<text text-anchor="middle" x="79.5" y="-57.8" font-family="Times New Roman,serif" font-size="14.00">{y,pz}</text>
</g>
<!-- client&#45;pays&#45;&gt;client&#45;with&#45;voucher -->
<g id="edge8" class="edge">
<title>client&#45;pays&#45;&gt;client&#45;with&#45;voucher</title>
<path fill="none" stroke="black" d="M188.5,-86.8C188.5,-75.16 188.5,-59.55 188.5,-46.24"/>
<polygon fill="black" stroke="black" points="192,-46.18 188.5,-36.18 185,-46.18 192,-46.18"/>
<text text-anchor="middle" x="199" y="-57.8" font-family="Times New Roman,serif" font-size="14.00">{x}</text>
</g>
</g>
</svg>
