<?xml version="1.0" encoding="UTF-8" standalone="no"?>
<!DOCTYPE svg PUBLIC "-//W3C//DTD SVG 1.1//EN"
 "http://www.w3.org/Graphics/SVG/1.1/DTD/svg11.dtd">
<!-- Generated by graphviz version 5.0.0 (20220707.1540)
 -->
<!-- Title: G Pages: 1 -->
<svg width="258pt" height="218pt"
 viewBox="0.00 0.00 258.34 218.00" xmlns="http://www.w3.org/2000/svg" xmlns:xlink="http://www.w3.org/1999/xlink">
<g id="graph0" class="graph" transform="scale(1 1) rotate(0) translate(4 214)">
<title>G</title>
<polygon fill="white" stroke="transparent" points="-4,4 -4,-214 254.34,-214 254.34,4 -4,4"/>
<!-- vendor&#45;available -->
<g id="node1" class="node">
<title>vendor&#45;available</title>
<ellipse fill="none" stroke="black" cx="68.3" cy="-192" rx="29.8" ry="18"/>
<text text-anchor="middle" x="68.3" y="-188.3" font-family="Times New Roman,serif" font-size="14.00">(V2) </text>
</g>
<!-- item&#45;take&#45;home -->
<g id="node5" class="node">
<title>item&#45;take&#45;home</title>
<polygon fill="none" stroke="black" points="171.3,-123 69.3,-123 69.3,-87 171.3,-87 171.3,-123"/>
<text text-anchor="middle" x="120.3" y="-101.3" font-family="Times New Roman,serif" font-size="14.00">item&#45;take&#45;home</text>
</g>
<!-- vendor&#45;available&#45;&gt;item&#45;take&#45;home -->
<g id="edge1" class="edge">
<title>vendor&#45;available&#45;&gt;item&#45;take&#45;home</title>
<path fill="none" stroke="black" d="M78.32,-174.61C85.73,-162.5 95.96,-145.77 104.47,-131.87"/>
<polygon fill="black" stroke="black" points="107.53,-133.57 109.76,-123.21 101.56,-129.92 107.53,-133.57"/>
<text text-anchor="middle" x="108.8" y="-144.8" font-family="Times New Roman,serif" font-size="14.00">{y}</text>
</g>
<!-- client&#45;with&#45;item -->
<g id="node2" class="node">
<title>client&#45;with&#45;item</title>
<ellipse fill="none" stroke="black" cx="172.3" cy="-192" rx="55.79" ry="18"/>
<text text-anchor="middle" x="172.3" y="-188.3" font-family="Times New Roman,serif" font-size="14.00">(Alice,shirt) </text>
</g>
<!-- client&#45;with&#45;item&#45;&gt;item&#45;take&#45;home -->
<g id="edge2" class="edge">
<title>client&#45;with&#45;item&#45;&gt;item&#45;take&#45;home</title>
<path fill="none" stroke="black" d="M162.02,-174.21C154.59,-162.06 144.42,-145.43 135.98,-131.63"/>
<polygon fill="black" stroke="black" points="138.93,-129.75 130.73,-123.05 132.96,-133.41 138.93,-129.75"/>
<text text-anchor="middle" x="164.8" y="-144.8" font-family="Times New Roman,serif" font-size="14.00">{x,z}</text>
</g>
<!-- vendor&#45;with&#45;item -->
<g id="node3" class="node">
<title>vendor&#45;with&#45;item</title>
<ellipse fill="none" stroke="black" cx="53.3" cy="-18" rx="53.09" ry="18"/>
<text text-anchor="middle" x="53.3" y="-14.3" font-family="Times New Roman,serif" font-size="14.00">(V1,shoes) </text>
</g>
<!-- client&#45;with&#45;money -->
<g id="node4" class="node">
<title>client&#45;with&#45;money</title>
<ellipse fill="none" stroke="black" cx="187.3" cy="-18" rx="63.09" ry="18"/>
<text text-anchor="middle" x="187.3" y="-14.3" font-family="Times New Roman,serif" font-size="14.00">(Bob,120Eur) </text>
</g>
<!-- item&#45;take&#45;home&#45;&gt;vendor&#45;with&#45;item -->
<g id="edge3" class="edge">
<title>item&#45;take&#45;home&#45;&gt;vendor&#45;with&#45;item</title>
<path fill="none" stroke="black" d="M106.74,-86.8C96.98,-74.43 83.69,-57.55 72.79,-43.74"/>
<polygon fill="black" stroke="black" points="75.32,-41.28 66.38,-35.6 69.82,-45.62 75.32,-41.28"/>
<text text-anchor="middle" x="106.8" y="-57.8" font-family="Times New Roman,serif" font-size="14.00">{y,z}</text>
</g>
<!-- item&#45;take&#45;home&#45;&gt;client&#45;with&#45;money -->
<g id="edge4" class="edge">
<title>item&#45;take&#45;home&#45;&gt;client&#45;with&#45;money</title>
<path fill="none" stroke="black" d="M133.85,-86.8C143.54,-74.51 156.73,-57.77 167.58,-44.01"/>
<polygon fill="black" stroke="black" points="170.54,-45.91 173.99,-35.89 165.05,-41.57 170.54,-45.91"/>
<text text-anchor="middle" x="174.8" y="-57.8" font-family="Times New Roman,serif" font-size="14.00">{x,m}</text>
</g>
</g>
</svg>
