<?xml version="1.0" encoding="UTF-8" standalone="no"?>
<!DOCTYPE svg PUBLIC "-//W3C//DTD SVG 1.1//EN"
 "http://www.w3.org/Graphics/SVG/1.1/DTD/svg11.dtd">
<!-- Generated by graphviz version 5.0.0 (20220707.1540)
 -->
<!-- Title: RG Pages: 1 -->
<svg width="434pt" height="218pt"
 viewBox="0.00 0.00 434.00 218.00" xmlns="http://www.w3.org/2000/svg" xmlns:xlink="http://www.w3.org/1999/xlink">
<g id="graph0" class="graph" transform="scale(1 1) rotate(0) translate(4 214)">
<title>RG</title>
<polygon fill="white" stroke="transparent" points="-4,4 -4,-214 430,-214 430,4 -4,4"/>
<!-- startState -->
<g id="node1" class="node">
<title>startState</title>
<g id="a_node1"><a xlink:href="./startState.svg" xlink:title="startState">
<ellipse fill="none" stroke="black" cx="190" cy="-192" rx="44.39" ry="18"/>
<text text-anchor="middle" x="190" y="-188.3" font-family="Times New Roman,serif" font-size="14.00">startState</text>
</a>
</g>
</g>
<!-- rs1 -->
<g id="node2" class="node">
<title>rs1</title>
<g id="a_node2"><a xlink:href="./rs1.svg" xlink:title="rs1">
<ellipse fill="none" stroke="black" cx="27" cy="-105" rx="27" ry="18"/>
<text text-anchor="middle" x="27" y="-101.3" font-family="Times New Roman,serif" font-size="14.00">rs1</text>
</a>
</g>
</g>
<!-- startState&#45;&gt;rs1 -->
<g id="edge1" class="edge">
<title>startState&#45;&gt;rs1</title>
<path fill="none" stroke="black" d="M148.55,-185.73C110.63,-180.12 58.2,-170.09 43,-156 36.54,-150.01 32.67,-141.41 30.37,-133.03"/>
<polygon fill="black" stroke="black" points="33.76,-132.16 28.26,-123.11 26.91,-133.61 33.76,-132.16"/>
<text text-anchor="middle" x="86" y="-144.8" font-family="Times New Roman,serif" font-size="14.00">item&#45;take&#45;home</text>
</g>
<!-- rs2 -->
<g id="node3" class="node">
<title>rs2</title>
<g id="a_node3"><a xlink:href="./rs2.svg" xlink:title="rs2">
<ellipse fill="none" stroke="black" cx="245" cy="-105" rx="27" ry="18"/>
<text text-anchor="middle" x="245" y="-101.3" font-family="Times New Roman,serif" font-size="14.00">rs2</text>
</a>
</g>
</g>
<!-- startState&#45;&gt;rs2 -->
<g id="edge2" class="edge">
<title>startState&#45;&gt;rs2</title>
<path fill="none" stroke="black" d="M207.03,-175.26C212.58,-169.55 218.48,-162.82 223,-156 227.79,-148.77 231.96,-140.33 235.35,-132.47"/>
<polygon fill="black" stroke="black" points="238.7,-133.53 239.21,-122.95 232.21,-130.9 238.7,-133.53"/>
<text text-anchor="middle" x="274" y="-144.8" font-family="Times New Roman,serif" font-size="14.00">item&#45;take&#45;home</text>
</g>
<!-- rs3 -->
<g id="node4" class="node">
<title>rs3</title>
<g id="a_node4"><a xlink:href="./rs3.svg" xlink:title="rs3">
<ellipse fill="none" stroke="black" cx="354" cy="-105" rx="27" ry="18"/>
<text text-anchor="middle" x="354" y="-101.3" font-family="Times New Roman,serif" font-size="14.00">rs3</text>
</a>
</g>
</g>
<!-- startState&#45;&gt;rs3 -->
<g id="edge3" class="edge">
<title>startState&#45;&gt;rs3</title>
<path fill="none" stroke="black" d="M232.85,-187.38C260.19,-183.29 295.21,-174.58 321,-156 329.64,-149.77 336.65,-140.53 341.95,-131.67"/>
<polygon fill="black" stroke="black" points="345.12,-133.18 346.85,-122.73 338.98,-129.82 345.12,-133.18"/>
<text text-anchor="middle" x="377" y="-144.8" font-family="Times New Roman,serif" font-size="14.00">item&#45;take&#45;home</text>
</g>
<!-- rs4 -->
<g id="node5" class="node">
<title>rs4</title>
<g id="a_node5"><a xlink:href="./rs4.svg" xlink:title="rs4">
<ellipse fill="none" stroke="black" cx="136" cy="-105" rx="27" ry="18"/>
<text text-anchor="middle" x="136" y="-101.3" font-family="Times New Roman,serif" font-size="14.00">rs4</text>
</a>
</g>
</g>
<!-- startState&#45;&gt;rs4 -->
<g id="edge4" class="edge">
<title>startState&#45;&gt;rs4</title>
<path fill="none" stroke="black" d="M160.59,-178.44C151.39,-172.96 142.27,-165.56 137,-156 133.26,-149.2 132,-141.06 131.96,-133.33"/>
<polygon fill="black" stroke="black" points="135.46,-133.41 132.53,-123.23 128.47,-133.02 135.46,-133.41"/>
<text text-anchor="middle" x="180" y="-144.8" font-family="Times New Roman,serif" font-size="14.00">item&#45;take&#45;home</text>
</g>
<!-- rs5 -->
<g id="node6" class="node">
<title>rs5</title>
<g id="a_node6"><a xlink:href="./rs5.svg" xlink:title="rs5">
<ellipse fill="none" stroke="black" cx="82" cy="-18" rx="27" ry="18"/>
<text text-anchor="middle" x="82" y="-14.3" font-family="Times New Roman,serif" font-size="14.00">rs5</text>
</a>
</g>
</g>
<!-- rs1&#45;&gt;rs5 -->
<g id="edge5" class="edge">
<title>rs1&#45;&gt;rs5</title>
<path fill="none" stroke="black" d="M21.6,-87.21C19.33,-76.98 18.36,-64 24,-54 29.62,-44.04 39.34,-36.6 49.23,-31.2"/>
<polygon fill="black" stroke="black" points="50.8,-34.33 58.25,-26.8 47.73,-28.04 50.8,-34.33"/>
<text text-anchor="middle" x="67" y="-57.8" font-family="Times New Roman,serif" font-size="14.00">item&#45;take&#45;home</text>
</g>
<!-- rs6 -->
<g id="node7" class="node">
<title>rs6</title>
<g id="a_node7"><a xlink:href="./rs6.svg" xlink:title="rs6">
<ellipse fill="none" stroke="black" cx="299" cy="-18" rx="27" ry="18"/>
<text text-anchor="middle" x="299" y="-14.3" font-family="Times New Roman,serif" font-size="14.00">rs6</text>
</a>
</g>
</g>
<!-- rs2&#45;&gt;rs6 -->
<g id="edge6" class="edge">
<title>rs2&#45;&gt;rs6</title>
<path fill="none" stroke="black" d="M241.53,-86.77C240.38,-76.63 240.55,-63.89 246,-54 250.86,-45.18 258.99,-38.2 267.44,-32.87"/>
<polygon fill="black" stroke="black" points="269.26,-35.87 276.25,-27.91 265.82,-29.77 269.26,-35.87"/>
<text text-anchor="middle" x="289" y="-57.8" font-family="Times New Roman,serif" font-size="14.00">item&#45;take&#45;home</text>
</g>
<!-- rs3&#45;&gt;rs6 -->
<g id="edge7" class="edge">
<title>rs3&#45;&gt;rs6</title>
<path fill="none" stroke="black" d="M348.21,-87.05C344.38,-77.01 338.81,-64.28 332,-54 328.89,-49.3 325.12,-44.65 321.26,-40.34"/>
<polygon fill="black" stroke="black" points="323.76,-37.88 314.34,-33.03 318.67,-42.7 323.76,-37.88"/>
<text text-anchor="middle" x="383" y="-57.8" font-family="Times New Roman,serif" font-size="14.00">item&#45;take&#45;home</text>
</g>
<!-- rs4&#45;&gt;rs5 -->
<g id="edge8" class="edge">
<title>rs4&#45;&gt;rs5</title>
<path fill="none" stroke="black" d="M130.15,-87.09C126.3,-77.06 120.73,-64.33 114,-54 111.04,-49.46 107.49,-44.94 103.84,-40.73"/>
<polygon fill="black" stroke="black" points="106.19,-38.11 96.85,-33.1 101.02,-42.84 106.19,-38.11"/>
<text text-anchor="middle" x="166" y="-57.8" font-family="Times New Roman,serif" font-size="14.00">item&#45;take&#45;home</text>
</g>
</g>
</svg>
