<?xml version="1.0" encoding="UTF-8" standalone="no"?>
<!DOCTYPE svg PUBLIC "-//W3C//DTD SVG 1.1//EN"
 "http://www.w3.org/Graphics/SVG/1.1/DTD/svg11.dtd">
<!-- Generated by graphviz version 5.0.0 (20220707.1540)
 -->
<!-- Title: G Pages: 1 -->
<svg width="246pt" height="218pt"
 viewBox="0.00 0.00 245.84 218.00" xmlns="http://www.w3.org/2000/svg" xmlns:xlink="http://www.w3.org/1999/xlink">
<g id="graph0" class="graph" transform="scale(1 1) rotate(0) translate(4 214)">
<title>G</title>
<polygon fill="white" stroke="transparent" points="-4,4 -4,-214 241.84,-214 241.84,4 -4,4"/>
<!-- vendor&#45;available -->
<g id="node1" class="node">
<title>vendor&#45;available</title>
<ellipse fill="none" stroke="black" cx="59.1" cy="-192" rx="29.8" ry="18"/>
<text text-anchor="middle" x="59.1" y="-188.3" font-family="Times New Roman,serif" font-size="14.00">(V2) </text>
</g>
<!-- item&#45;take&#45;home -->
<g id="node5" class="node">
<title>item&#45;take&#45;home</title>
<polygon fill="none" stroke="black" points="163.1,-123 61.1,-123 61.1,-87 163.1,-87 163.1,-123"/>
<text text-anchor="middle" x="112.1" y="-101.3" font-family="Times New Roman,serif" font-size="14.00">item&#45;take&#45;home</text>
</g>
<!-- vendor&#45;available&#45;&gt;item&#45;take&#45;home -->
<g id="edge1" class="edge">
<title>vendor&#45;available&#45;&gt;item&#45;take&#45;home</title>
<path fill="none" stroke="black" d="M69.06,-175.01C76.64,-162.86 87.22,-145.9 95.99,-131.83"/>
<polygon fill="black" stroke="black" points="99.12,-133.42 101.44,-123.08 93.18,-129.72 99.12,-133.42"/>
<text text-anchor="middle" x="99.6" y="-144.8" font-family="Times New Roman,serif" font-size="14.00">{y}</text>
</g>
<!-- client&#45;with&#45;item -->
<g id="node2" class="node">
<title>client&#45;with&#45;item</title>
<ellipse fill="none" stroke="black" cx="165.1" cy="-192" rx="57.69" ry="18"/>
<text text-anchor="middle" x="165.1" y="-188.3" font-family="Times New Roman,serif" font-size="14.00">(Bob,shoes) </text>
</g>
<!-- client&#45;with&#45;item&#45;&gt;item&#45;take&#45;home -->
<g id="edge2" class="edge">
<title>client&#45;with&#45;item&#45;&gt;item&#45;take&#45;home</title>
<path fill="none" stroke="black" d="M154.62,-174.21C147.05,-162.06 136.68,-145.43 128.08,-131.63"/>
<polygon fill="black" stroke="black" points="130.99,-129.68 122.73,-123.05 125.05,-133.39 130.99,-129.68"/>
<text text-anchor="middle" x="156.6" y="-144.8" font-family="Times New Roman,serif" font-size="14.00">{x,z}</text>
</g>
<!-- vendor&#45;with&#45;item -->
<g id="node3" class="node">
<title>vendor&#45;with&#45;item</title>
<ellipse fill="none" stroke="black" cx="48.1" cy="-18" rx="48.19" ry="18"/>
<text text-anchor="middle" x="48.1" y="-14.3" font-family="Times New Roman,serif" font-size="14.00">(V1,shirt) </text>
</g>
<!-- client&#45;with&#45;money -->
<g id="node4" class="node">
<title>client&#45;with&#45;money</title>
<ellipse fill="none" stroke="black" cx="176.1" cy="-18" rx="61.99" ry="18"/>
<text text-anchor="middle" x="176.1" y="-14.3" font-family="Times New Roman,serif" font-size="14.00">(Alice,50Eur) </text>
</g>
<!-- item&#45;take&#45;home&#45;&gt;vendor&#45;with&#45;item -->
<g id="edge3" class="edge">
<title>item&#45;take&#45;home&#45;&gt;vendor&#45;with&#45;item</title>
<path fill="none" stroke="black" d="M99.14,-86.8C89.83,-74.43 77.13,-57.55 66.72,-43.74"/>
<polygon fill="black" stroke="black" points="69.4,-41.48 60.59,-35.6 63.81,-45.69 69.4,-41.48"/>
<text text-anchor="middle" x="99.6" y="-57.8" font-family="Times New Roman,serif" font-size="14.00">{y,z}</text>
</g>
<!-- item&#45;take&#45;home&#45;&gt;client&#45;with&#45;money -->
<g id="edge4" class="edge">
<title>item&#45;take&#45;home&#45;&gt;client&#45;with&#45;money</title>
<path fill="none" stroke="black" d="M125.05,-86.8C134.3,-74.51 146.9,-57.77 157.27,-44.01"/>
<polygon fill="black" stroke="black" points="160.16,-45.98 163.38,-35.89 154.57,-41.77 160.16,-45.98"/>
<text text-anchor="middle" x="164.6" y="-57.8" font-family="Times New Roman,serif" font-size="14.00">{x,m}</text>
</g>
</g>
</svg>
