<?xml version="1.0" encoding="UTF-8" standalone="no"?>
<!DOCTYPE svg PUBLIC "-//W3C//DTD SVG 1.1//EN"
 "http://www.w3.org/Graphics/SVG/1.1/DTD/svg11.dtd">
<!-- Generated by graphviz version 5.0.0 (20220707.1540)
 -->
<!-- Title: G Pages: 1 -->
<svg width="328pt" height="218pt"
 viewBox="0.00 0.00 328.44 218.00" xmlns="http://www.w3.org/2000/svg" xmlns:xlink="http://www.w3.org/1999/xlink">
<g id="graph0" class="graph" transform="scale(1 1) rotate(0) translate(4 214)">
<title>G</title>
<polygon fill="white" stroke="transparent" points="-4,4 -4,-214 324.44,-214 324.44,4 -4,4"/>
<!-- vendor&#45;available -->
<g id="node1" class="node">
<title>vendor&#45;available</title>
<ellipse fill="none" stroke="black" cx="48.75" cy="-192" rx="48.99" ry="18"/>
<text text-anchor="middle" x="48.75" y="-188.3" font-family="Times New Roman,serif" font-size="14.00">(V1) (V2) </text>
</g>
<!-- item&#45;take&#45;home -->
<g id="node5" class="node">
<title>item&#45;take&#45;home</title>
<polygon fill="none" stroke="black" points="183.75,-123 81.75,-123 81.75,-87 183.75,-87 183.75,-123"/>
<text text-anchor="middle" x="132.75" y="-101.3" font-family="Times New Roman,serif" font-size="14.00">item&#45;take&#45;home</text>
</g>
<!-- vendor&#45;available&#45;&gt;item&#45;take&#45;home -->
<g id="edge1" class="edge">
<title>vendor&#45;available&#45;&gt;item&#45;take&#45;home</title>
<path fill="none" stroke="black" d="M64.94,-174.61C77.25,-162.16 94.39,-144.81 108.35,-130.68"/>
<polygon fill="black" stroke="black" points="111.19,-132.79 115.73,-123.21 106.22,-127.87 111.19,-132.79"/>
<text text-anchor="middle" x="107.25" y="-144.8" font-family="Times New Roman,serif" font-size="14.00">{y}</text>
</g>
<!-- client&#45;with&#45;item -->
<g id="node2" class="node">
<title>client&#45;with&#45;item</title>
<ellipse fill="none" stroke="black" cx="217.75" cy="-192" rx="102.88" ry="18"/>
<text text-anchor="middle" x="217.75" y="-188.3" font-family="Times New Roman,serif" font-size="14.00">(Alice,shirt) (Bob,shoes) </text>
</g>
<!-- client&#45;with&#45;item&#45;&gt;item&#45;take&#45;home -->
<g id="edge2" class="edge">
<title>client&#45;with&#45;item&#45;&gt;item&#45;take&#45;home</title>
<path fill="none" stroke="black" d="M200.95,-174.21C188.46,-161.72 171.22,-144.48 157.2,-130.46"/>
<polygon fill="black" stroke="black" points="159.34,-127.65 149.79,-123.05 154.39,-132.6 159.34,-127.65"/>
<text text-anchor="middle" x="195.25" y="-144.8" font-family="Times New Roman,serif" font-size="14.00">{x,z}</text>
</g>
<!-- vendor&#45;with&#45;item -->
<g id="node3" class="node">
<title>vendor&#45;with&#45;item</title>
<ellipse fill="none" stroke="black" cx="96.75" cy="-18" rx="27" ry="18"/>
</g>
<!-- client&#45;with&#45;money -->
<g id="node4" class="node">
<title>client&#45;with&#45;money</title>
<ellipse fill="none" stroke="black" cx="168.75" cy="-18" rx="27" ry="18"/>
</g>
<!-- item&#45;take&#45;home&#45;&gt;vendor&#45;with&#45;item -->
<g id="edge3" class="edge">
<title>item&#45;take&#45;home&#45;&gt;vendor&#45;with&#45;item</title>
<path fill="none" stroke="black" d="M123.96,-86.69C121.22,-81.1 118.26,-74.83 115.75,-69 112.47,-61.41 109.17,-53.06 106.27,-45.39"/>
<polygon fill="black" stroke="black" points="109.48,-43.97 102.71,-35.82 102.92,-46.41 109.48,-43.97"/>
<text text-anchor="middle" x="131.25" y="-57.8" font-family="Times New Roman,serif" font-size="14.00">{y,z}</text>
</g>
<!-- item&#45;take&#45;home&#45;&gt;client&#45;with&#45;money -->
<g id="edge4" class="edge">
<title>item&#45;take&#45;home&#45;&gt;client&#45;with&#45;money</title>
<path fill="none" stroke="black" d="M140.03,-86.8C145.12,-74.78 152.01,-58.51 157.77,-44.92"/>
<polygon fill="black" stroke="black" points="161.04,-46.17 161.72,-35.6 154.59,-43.44 161.04,-46.17"/>
<text text-anchor="middle" x="171.25" y="-57.8" font-family="Times New Roman,serif" font-size="14.00">{x,m}</text>
</g>
</g>
</svg>
